{"glyphs":{":":{"x_min":0,"x_max":300,"ha":300,"o":"m 116 451 l 173 413 l 184 394 q 200 384 202 380 q 205 376 205 366 l 180 335 q 166 314 157 304 l 137 301 l 116 276 l 114 276 l 107 279 l 103 285 l 94 308 l 78 322 l 62 340 q 42 347 36 353 q 30 358 30 369 q 30 379 39 394 l 44 394 l 44 401 l 46 399 q 51 419 66 419 l 71 417 l 79 425 q 82 428 89 444 l 100 449 l 116 447 z m 116 123 l 173 85 l 184 66 q 200 56 202 52 q 205 48 205 38 l 180 7 q 174 0 171 -6 q 167 -12 157 -24 l 137 -27 l 116 -52 l 114 -52 l 107 -49 l 103 -43 l 94 -20 l 78 -6 l 62 12 q 42 20 36 25 q 30 30 30 41 q 30 51 39 66 l 44 66 l 44 73 l 46 71 q 51 91 66 91 l 71 89 l 79 97 q 82 100 89 116 l 100 121 l 116 119 z"},"$":{"x_min":0,"x_max":660,"ha":660,"o":"m 267 27 l 250 22 l 248 23 l 232 22 l 183 15 l 135 20 l 112 13 l 83 20 l 71 21 q 65 22 55 28 q 46 34 42 40 l 30 57 l 32 87 l 40 89 l 48 97 l 61 103 q 68 112 82 121 l 128 121 l 128 107 l 127 101 l 133 95 l 122 84 q 116 79 110 66 l 114 58 l 137 48 l 143 58 l 159 62 l 181 57 l 228 54 l 244 62 l 258 62 q 269 63 271 65 l 268 78 q 268 82 272 90 l 270 101 l 272 111 l 269 130 l 271 147 l 273 146 l 272 152 l 278 159 q 271 173 271 178 l 272 190 q 278 196 278 203 q 278 207 277 209 l 280 208 q 272 226 272 239 q 272 245 274 255 l 277 256 l 273 259 l 276 268 l 278 327 l 280 328 l 280 332 q 280 336 282 340 l 281 342 l 283 344 l 282 347 l 278 341 l 258 350 l 255 341 l 239 341 l 236 347 l 217 350 l 200 343 l 185 345 q 178 346 165 353 l 156 349 l 147 353 l 146 346 l 120 343 l 119 347 l 109 346 l 92 360 l 88 371 q 86 376 78 384 q 88 392 96 400 l 101 400 l 109 415 l 117 415 l 127 426 l 149 441 l 172 462 l 184 470 l 200 476 l 215 491 l 228 497 l 241 508 l 262 521 l 278 539 q 281 542 297 551 q 297 567 306 582 l 307 580 l 309 581 l 309 592 l 307 597 q 310 600 310 604 q 310 607 309 609 q 311 614 311 623 q 311 628 310 632 q 313 635 313 636 l 313 638 q 319 641 319 645 q 319 647 315 653 l 320 653 l 322 660 l 325 660 l 322 664 q 322 666 324 678 l 328 680 l 329 686 q 329 691 326 696 q 329 698 338 717 q 347 735 347 741 l 347 757 q 353 774 368 774 q 370 774 376 770 q 383 767 390 765 l 377 744 q 373 735 364 724 l 364 687 l 343 633 l 334 614 l 337 596 l 333 577 l 346 587 l 354 587 l 365 600 q 379 608 387 615 l 389 621 q 393 627 393 630 q 410 642 427 656 l 430 656 l 430 660 l 436 660 l 438 667 l 457 672 l 491 693 l 502 686 l 518 688 l 536 667 l 536 658 l 548 649 l 553 628 l 551 615 l 553 615 l 548 545 l 536 534 l 518 525 l 498 499 l 487 496 q 480 494 476 490 l 464 478 l 441 489 l 435 505 l 445 517 l 438 531 l 449 552 q 446 570 443 573 l 420 570 l 404 577 l 385 570 l 387 560 l 368 544 l 361 544 l 319 518 l 324 510 l 317 505 l 321 501 q 311 492 308 393 l 326 392 l 331 384 l 350 384 l 365 373 l 402 376 l 414 376 l 422 369 l 435 369 q 440 364 451 362 l 461 353 l 469 353 q 474 357 486 360 q 499 349 504 337 l 539 314 l 573 284 l 566 270 l 580 256 l 570 226 l 567 197 l 558 182 q 553 175 548 157 l 529 147 l 525 136 l 449 84 l 435 87 l 433 79 l 359 52 l 346 42 l 322 42 l 315 36 l 303 36 l 297 29 l 294 30 q 291 15 291 1 l 291 -9 q 285 -42 285 -47 q 285 -56 291 -72 l 284 -95 l 286 -134 q 275 -145 270 -163 l 252 -168 l 256 -158 l 251 -159 q 246 -159 242 -152 q 238 -146 238 -139 q 238 -129 243 -113 l 241 -106 q 250 -102 250 -95 q 250 -94 248 -88 l 251 -87 l 254 -68 l 253 -61 q 253 -54 260 -50 l 263 -16 l 260 -7 q 263 -6 266 1 l 269 7 q 269 17 267 27 z m 278 393 l 280 398 l 287 439 l 284 443 q 288 454 288 465 q 288 476 286 481 q 289 487 289 490 l 289 492 q 292 498 294 503 q 273 492 260 476 l 250 474 l 246 466 l 223 460 l 225 455 l 209 449 l 165 415 q 179 406 186 394 l 196 400 l 202 392 l 219 399 l 232 392 l 254 394 z m 292 71 l 303 71 l 313 73 l 351 88 l 364 91 q 380 101 391 102 l 397 109 l 403 107 l 440 128 l 450 147 l 469 153 l 468 165 l 475 175 l 472 178 l 481 203 l 480 214 l 485 228 l 474 249 l 479 265 l 468 290 l 457 293 q 451 308 443 314 l 420 311 l 413 326 q 412 329 402 337 l 373 330 l 367 337 l 349 342 q 345 343 341 346 l 331 355 l 326 349 l 313 353 l 306 346 l 306 336 l 302 306 l 300 218 l 297 178 l 301 168 l 294 153 l 295 139 l 291 139 l 292 128 l 298 127 l 301 106 l 291 94 l 295 83 q 295 77 292 71 z"},"?":{"x_min":0,"x_max":568,"ha":568,"o":"m 412 774 q 419 781 424 781 l 439 780 q 446 780 446 787 q 448 793 465 793 q 475 793 489 790 l 503 787 l 512 789 l 519 778 l 541 771 q 560 758 580 749 l 591 730 l 607 721 l 609 708 l 594 692 l 582 671 l 562 653 l 546 628 l 523 610 l 501 585 l 480 574 l 453 551 l 432 542 l 382 506 l 301 438 l 249 401 l 214 367 l 210 358 q 208 354 190 340 l 185 297 l 174 270 q 174 264 190 257 q 207 250 230 250 q 239 250 242 250 q 246 251 269 261 q 274 256 274 253 q 274 247 262 240 q 251 232 251 220 l 249 220 q 251 188 207 155 l 183 179 l 165 179 l 149 188 l 137 186 l 106 191 q 93 193 81 206 q 70 218 71 224 l 78 258 l 74 261 l 78 274 q 87 283 87 304 l 92 306 q 90 308 90 311 q 90 313 96 315 q 111 321 112 333 l 117 333 l 119 338 q 119 349 131 349 l 131 356 l 137 356 q 141 356 143 362 q 146 369 153 375 q 159 380 162 385 l 169 388 q 169 398 180 406 l 183 406 q 183 408 184 410 q 184 412 185 413 q 186 415 187 416 q 188 417 189 418 q 191 419 193 420 q 195 421 197 421 q 199 422 204 426 l 212 433 l 239 449 l 249 465 l 264 467 l 269 478 l 276 481 l 278 488 q 292 490 292 497 l 292 499 l 296 499 q 305 499 305 506 l 305 510 l 310 513 l 312 508 q 319 523 333 526 l 333 528 l 344 535 q 346 534 349 534 q 355 534 357 544 q 371 558 376 558 l 380 558 q 382 562 386 565 l 394 569 l 466 617 q 467 628 478 628 l 487 644 l 478 667 l 480 687 l 469 690 q 464 694 454 702 q 444 709 410 715 l 351 687 q 350 686 341 683 q 333 680 323 669 l 312 674 l 307 670 q 305 669 287 667 l 271 649 l 262 647 q 258 646 242 633 q 235 643 224 644 l 224 662 q 226 663 239 681 l 239 678 l 251 685 l 251 694 l 262 694 l 269 696 l 278 708 l 289 703 l 289 715 l 294 712 l 303 721 l 314 721 l 312 724 q 324 729 330 731 l 335 740 l 373 755 l 369 758 l 376 760 l 376 758 l 396 762 l 394 764 l 403 771 l 405 769 q 417 770 417 774 z m 167 88 l 176 79 q 194 78 200 73 q 206 68 206 64 q 206 61 203 56 q 214 53 217 43 l 214 38 q 210 31 205 31 l 199 38 l 199 1 q 189 1 189 -8 l 187 -8 l 176 -24 l 137 -25 q 126 -46 124 -47 q 122 -48 112 -50 q 108 -38 105 -36 q 103 -34 96 -32 q 87 -26 87 -16 q 87 -8 119 36 l 126 34 l 126 45 q 133 52 137 61 q 142 62 146 68 q 151 64 158 63 l 160 77 z"},"<":{"x_min":0,"x_max":833,"ha":833,"o":"m 704 559 l 704 497 l 216 298 l 704 100 l 704 37 l 129 273 l 129 323 z"},"'":{"x_min":0,"x_max":300,"ha":300,"o":"m 122 466 l 111 475 q 115 487 119 506 l 131 516 l 122 537 l 134 540 l 140 566 q 152 585 154 607 q 155 629 159 631 l 177 683 l 188 697 q 190 700 201 705 l 220 700 l 224 686 l 245 683 q 257 663 257 661 l 257 654 l 263 651 l 263 633 l 255 615 l 245 600 q 243 597 243 592 l 241 579 l 235 572 q 230 563 213 542 q 195 521 187 505 l 167 467 l 148 456 z"},"=":{"x_min":0,"x_max":833,"ha":833,"o":"m 124 420 l 709 420 l 709 363 l 124 363 z m 124 233 l 709 233 l 709 176 l 124 176 z"},"a":{"x_min":0,"x_max":635,"ha":635,"o":"m 389 479 q 393 480 408 478 q 424 476 428 471 l 445 475 l 454 474 l 461 461 l 460 451 q 450 443 447 434 l 442 434 l 437 428 q 434 426 416 420 l 415 329 l 423 282 l 424 234 l 431 175 l 462 91 q 470 82 473 76 q 498 90 504 90 q 524 113 530 114 l 530 119 l 585 166 l 586 175 q 591 176 607 194 l 625 190 l 635 168 l 631 149 l 621 153 l 616 142 l 607 142 q 602 127 591 118 l 591 113 l 564 88 l 559 75 q 550 69 528 58 l 524 51 l 523 53 l 517 43 l 504 39 l 502 32 l 495 32 l 498 25 l 490 10 l 483 8 q 484 0 467 -21 l 444 -22 l 439 -36 l 425 -40 q 409 -36 399 -20 l 366 33 l 335 103 l 338 129 l 331 152 l 336 153 q 322 181 322 196 l 324 214 l 309 223 l 299 217 l 299 219 l 294 217 l 281 183 l 274 186 l 272 179 l 267 181 l 267 177 l 265 177 q 265 174 251 152 l 247 154 l 244 133 l 234 127 q 224 122 221 115 l 217 105 l 221 99 l 210 95 l 205 75 l 197 71 l 199 67 q 188 58 180 55 l 176 48 l 172 53 l 165 36 l 159 36 l 151 8 l 142 5 l 141 -10 l 127 -10 l 113 -42 l 106 -47 l 100 -47 l 98 -56 l 67 -68 l 34 -69 l 20 24 l 26 36 l 27 46 q 28 50 39 75 l 37 82 q 46 102 49 106 l 45 108 l 54 132 l 55 141 q 55 145 62 159 q 58 183 54 186 l 58 193 l 71 191 q 82 206 85 207 l 88 216 l 90 216 l 83 226 l 89 252 l 93 250 q 99 265 100 265 l 98 278 l 112 303 l 112 310 l 109 316 l 129 359 l 152 390 q 164 400 172 413 l 189 420 l 212 444 l 234 457 l 247 457 l 258 460 l 273 460 l 280 471 l 294 470 l 308 470 l 308 474 q 314 474 321 469 l 336 475 l 347 472 l 350 476 l 362 472 z m 263 402 l 251 400 l 236 401 l 231 392 l 231 385 q 223 381 214 378 l 205 356 q 198 327 197 326 l 192 326 l 185 310 l 182 296 q 180 290 172 286 l 167 269 l 159 254 q 155 246 155 237 l 155 233 l 150 237 l 150 229 l 147 229 l 148 224 l 144 216 l 138 190 l 128 169 l 126 139 l 123 135 l 121 135 l 119 126 l 123 122 l 118 104 l 116 104 l 118 98 l 111 98 l 112 62 l 116 45 l 118 45 l 129 55 l 157 95 l 208 162 l 223 178 l 257 233 l 292 280 l 295 290 l 288 299 l 301 321 l 304 337 q 304 340 312 350 l 313 389 l 300 390 l 289 390 l 275 400 l 272 395 z"},"L":{"x_min":0,"x_max":717,"ha":717,"o":"m 388 683 q 415 687 481 665 l 490 658 q 494 654 504 651 l 501 645 l 540 615 l 553 595 l 529 565 l 485 536 l 479 518 l 476 522 l 460 524 l 451 522 l 443 533 q 438 540 432 544 l 415 554 l 406 574 l 401 574 l 397 581 l 386 584 q 379 586 375 589 l 365 599 l 351 592 l 345 579 l 322 549 l 322 527 l 306 502 l 290 418 l 291 406 l 269 291 q 264 267 262 250 l 258 247 l 260 241 l 252 232 l 254 218 l 252 206 l 247 200 q 245 198 241 179 l 236 154 l 227 136 q 223 127 218 104 l 199 86 l 203 73 l 189 68 l 193 52 l 245 48 l 261 48 l 277 36 l 349 32 l 342 34 l 356 36 l 390 34 l 406 36 l 417 30 l 447 25 l 458 32 l 479 30 l 492 30 l 501 34 l 526 30 l 522 43 q 535 63 542 68 l 590 100 l 597 102 l 635 120 l 649 118 q 667 101 687 91 l 680 75 q 676 66 671 61 l 656 45 l 635 39 q 629 32 615 9 l 597 5 l 592 -2 l 585 -2 l 565 -16 l 549 -14 l 540 -20 l 517 -16 l 492 -32 l 460 -30 l 456 -36 l 447 -30 l 429 -34 l 426 -43 l 401 -34 l 395 -34 l 379 -43 l 354 -43 l 331 -45 l 306 -45 l 267 -50 l 258 -43 l 245 -50 l 222 -45 l 140 -43 l 115 -39 l 113 -32 l 104 -41 l 97 -39 l 88 -52 l 72 -52 l 70 -25 l 63 -23 l 54 -27 l 34 -18 l 6 -23 l -14 -16 l -16 -9 l -30 -9 l -44 0 l -50 32 l -30 34 l -19 61 l -8 64 q -3 66 20 82 l 20 86 l 50 89 l 65 77 q 82 75 95 73 l 104 68 l 109 68 l 113 66 l 129 66 l 138 64 l 152 79 q 153 91 159 116 l 163 120 l 172 157 l 174 200 l 181 202 l 199 277 l 197 325 l 211 345 l 202 356 l 211 359 l 218 377 l 213 381 l 222 434 q 220 441 215 445 l 215 456 l 220 459 l 222 506 l 231 522 l 229 545 l 236 549 l 245 586 l 252 588 l 258 606 l 290 631 l 315 647 l 320 647 l 324 654 l 342 656 l 358 672 l 367 674 l 363 679 z"},"3":{"x_min":0,"x_max":485,"ha":485,"o":"m 485 589 l 452 573 l 442 565 q 438 562 425 559 q 418 551 403 541 l 399 531 l 380 523 l 366 515 l 344 513 l 328 502 l 314 495 q 293 470 277 462 q 260 448 260 444 q 260 439 262 436 l 312 443 q 330 443 360 426 l 381 435 l 386 431 l 405 434 q 423 420 440 411 q 449 390 466 369 l 464 351 q 456 339 454 335 q 452 331 445 298 q 432 288 421 276 l 380 230 l 361 223 l 348 203 q 328 197 319 196 q 309 194 304 189 q 299 178 296 174 q 293 169 287 164 q 259 154 236 137 l 228 140 l 227 137 l 209 124 q 206 121 191 117 l 186 109 q 183 106 162 94 q 161 90 149 87 l 105 72 l 95 57 l 71 52 l 69 50 l 70 46 l 87 51 l 90 51 q 116 51 129 27 l 100 8 q 86 -6 82 -24 l 66 -24 l 54 -39 q 34 -40 30 -57 q 16 -70 7 -71 q -6 -83 -22 -83 q -52 -83 -52 -20 l -41 6 q -23 6 -23 22 l -12 25 l -11 27 l -15 34 l -5 38 l -5 45 l 4 45 l 34 71 l 52 82 l 62 92 q 66 96 85 106 l 88 104 l 95 113 l 109 118 l 226 183 l 248 197 l 266 203 l 349 274 l 357 306 q 358 312 362 321 q 356 339 326 354 q 308 356 304 358 l 284 348 l 272 357 l 256 353 l 254 357 l 251 356 l 251 351 l 222 339 l 214 344 l 201 336 l 186 336 q 157 326 109 295 l 84 320 l 90 338 q 109 348 112 368 q 116 383 131 386 l 133 397 l 139 397 q 142 402 156 414 l 153 425 q 160 428 180 444 l 196 464 q 218 481 241 502 l 267 526 q 270 532 270 536 q 221 540 208 540 l 183 534 q 171 531 162 530 q 154 529 140 524 q 126 519 117 514 q 107 519 102 525 q 97 531 89 541 l 89 549 q 89 554 101 565 q 113 576 120 584 l 129 585 l 139 600 l 150 605 q 155 608 166 620 l 169 620 l 185 629 l 212 629 l 218 631 q 227 629 239 629 q 252 629 263 633 q 275 636 277 636 q 286 636 296 631 q 320 623 328 623 l 338 625 l 346 624 q 354 622 370 622 l 375 624 q 392 618 399 618 q 409 618 425 628 q 448 638 467 638 q 492 638 492 611 q 492 592 485 589 z"},";":{"x_min":0,"x_max":300,"ha":300,"o":"m 116 451 l 173 413 l 184 394 q 200 384 202 380 q 205 376 205 366 l 180 335 q 166 314 157 304 l 137 301 l 116 276 l 114 276 l 107 279 l 103 285 l 94 308 l 78 322 l 62 340 q 42 347 36 353 q 30 358 30 369 q 30 379 39 394 l 44 394 l 44 401 l 46 399 q 51 419 66 419 l 71 417 l 79 425 q 82 428 89 444 l 100 449 l 116 447 z m 63 -194 l 61 -187 l 48 -191 l 38 -181 q 31 -178 31 -172 q 31 -170 33 -168 q 35 -165 35 -163 l 35 -161 l 34 -157 q 34 -151 48 -145 q 61 -139 61 -130 q 61 -126 60 -124 l 69 -117 q 85 -115 96 -109 l 101 -92 l 111 -76 l 124 -47 l 131 -21 l 103 -33 q 96 -30 79 -15 l 70 -5 q 66 0 47 13 q 36 17 36 29 q 36 39 56 52 l 74 92 q 84 114 111 117 q 123 111 134 111 q 143 111 150 114 l 156 103 q 159 96 165 92 l 179 80 l 179 64 l 190 31 l 192 21 l 192 6 l 188 -17 l 185 -17 l 181 -40 q 172 -41 172 -52 l 172 -56 l 174 -65 q 171 -72 165 -74 l 167 -74 q 168 -74 168 -76 q 168 -86 156 -99 l 156 -103 l 154 -101 l 145 -115 l 145 -119 q 134 -134 124 -135 q 120 -140 113 -142 q 112 -161 86 -171 q 86 -179 76 -185 l 74 -183 z"},"J":{"x_min":0,"x_max":464,"ha":464,"o":"m 456 649 l 484 633 l 481 622 q 479 615 475 611 l 465 599 l 456 597 l 456 583 l 434 579 q 409 563 395 556 l 385 555 q 381 554 368 545 l 352 549 l 334 545 l 336 527 l 334 527 l 338 511 l 336 490 l 334 488 l 338 484 l 336 452 l 336 436 l 331 436 l 336 420 l 336 384 l 329 354 l 327 327 l 318 288 l 297 163 l 288 157 l 291 145 l 281 132 l 281 114 l 275 114 l 266 89 q 261 64 257 50 l 247 39 l 216 -57 l 204 -89 l 179 -109 l 188 -129 l 177 -145 l 177 -152 l 167 -162 q 163 -166 148 -191 l 138 -209 l 129 -216 l 121 -232 q 116 -241 113 -244 l 102 -251 q 95 -257 86 -259 q 81 -276 71 -285 q 62 -293 57 -293 l 48 -293 l 43 -302 l 25 -311 l 23 -325 l 7 -336 l 2 -334 q -22 -352 -30 -359 l -34 -359 l -43 -372 l -52 -375 l -61 -381 l -69 -384 q -73 -386 -86 -400 l -100 -404 q -110 -418 -125 -422 l -127 -431 l -129 -429 l -129 -434 l -166 -461 l -179 -463 l -184 -452 l -200 -445 l -197 -418 l -182 -415 q -155 -394 -145 -388 l -143 -388 l -129 -381 l -104 -365 l -84 -350 l -66 -340 l -41 -320 l -25 -316 q -15 -304 -11 -293 l -5 -295 q 8 -278 36 -263 l 43 -247 l 50 -243 l 84 -207 l 104 -177 l 116 -154 l 125 -145 l 134 -123 l 150 -95 l 152 -84 l 177 -27 l 179 -11 l 193 41 l 193 27 l 199 48 q 200 52 207 59 l 204 73 l 211 100 l 218 104 l 220 134 l 224 144 q 225 148 234 159 l 229 173 l 232 186 l 229 197 l 243 211 l 238 225 q 243 247 247 254 l 245 257 l 250 266 l 241 286 l 250 302 l 247 327 l 254 334 l 252 356 l 238 370 q 245 376 250 386 l 243 409 l 216 447 l 216 465 l 222 484 l 207 543 l 184 547 l 177 545 l 159 549 l 143 547 l 138 552 l 119 548 q 116 547 102 536 l 77 547 l 66 572 l 77 588 l 89 590 l 111 613 l 123 615 l 152 636 l 168 640 l 209 640 l 222 633 l 229 640 l 234 638 l 270 636 q 297 646 304 647 l 318 640 l 318 633 l 331 624 l 393 624 l 406 631 l 424 631 z"},"V":{"x_min":0,"x_max":671,"ha":671,"o":"m 619 674 q 630 665 644 663 l 650 670 l 671 670 l 655 640 q 656 618 662 590 l 655 572 l 646 565 l 653 552 l 610 463 l 598 446 q 596 443 582 434 l 555 375 q 541 346 507 322 l 503 304 l 493 296 q 487 291 484 285 l 478 270 l 470 267 q 467 266 453 250 l 444 250 l 396 191 l 392 179 l 382 172 q 377 169 367 154 q 357 138 351 125 l 343 120 q 339 118 330 104 l 330 86 l 344 70 l 324 50 l 308 48 l 299 39 l 271 20 l 267 9 l 244 -5 l 244 -11 l 228 -16 l 215 -7 l 208 9 l 215 52 l 224 64 l 219 73 q 208 82 207 85 l 203 91 q 201 95 199 120 l 205 129 l 192 138 l 192 161 l 187 195 l 199 197 l 201 216 l 194 247 l 194 257 l 187 259 l 187 302 l 174 316 l 176 327 q 178 331 181 345 l 171 361 q 174 371 176 388 l 160 395 l 153 409 l 144 409 l 146 424 l 146 436 l 140 438 l 144 445 l 137 463 l 142 479 l 137 486 l 149 504 l 137 508 l 140 524 l 133 531 l 117 531 l 115 508 l 101 504 l 90 504 l 83 495 l 49 490 l 28 493 l 22 502 l 15 504 l 19 513 l 15 531 l 31 549 l 35 549 l 51 561 l 97 583 l 106 595 l 133 599 l 137 606 l 165 615 l 210 638 l 219 647 l 237 649 q 255 635 258 629 q 256 618 246 602 l 251 579 l 246 568 l 251 538 l 246 529 l 249 488 l 237 470 l 246 459 l 258 413 l 253 411 l 251 390 l 262 379 l 262 356 l 265 354 l 262 336 l 285 309 l 280 293 l 301 257 l 310 222 l 308 191 l 312 179 l 319 179 l 333 191 l 335 197 l 346 195 l 358 204 l 364 218 l 378 234 q 389 252 394 257 l 403 263 l 430 300 l 448 309 l 473 356 l 489 370 l 498 388 l 521 415 l 521 422 l 535 422 l 541 429 l 546 477 l 553 493 q 563 503 569 536 l 573 536 q 576 554 578 556 l 573 570 l 564 571 q 560 572 541 586 l 537 604 l 546 620 l 553 622 l 573 647 l 582 649 l 589 661 l 603 665 z"},"\"":{"x_min":0,"x_max":468,"ha":468,"o":"m 308 462 l 290 468 l 289 496 l 295 505 q 298 510 299 524 l 314 540 l 310 576 q 334 603 334 609 q 334 617 330 624 q 325 630 325 632 q 325 633 326 634 l 336 674 l 347 690 q 352 698 369 713 q 389 709 404 698 l 404 676 l 423 674 l 425 669 l 425 662 l 431 659 l 431 641 q 426 630 420 618 q 415 606 396 594 l 403 580 q 396 571 389 562 q 383 553 378 543 q 374 533 370 522 l 364 501 l 338 468 l 322 472 z m 122 466 l 111 475 q 115 487 119 506 l 131 516 l 122 537 l 134 540 l 140 566 q 152 585 154 607 q 155 629 159 631 l 177 683 l 188 697 q 190 700 201 705 l 220 700 l 224 686 l 245 683 q 257 663 257 661 l 257 654 l 263 651 l 263 633 q 254 612 243 597 l 244 582 l 235 572 q 230 563 213 542 q 195 521 187 505 l 167 467 l 148 456 z"},"7":{"x_min":0,"x_max":478,"ha":478,"o":"m 336 606 l 341 609 l 406 620 l 454 633 q 467 644 472 644 q 490 644 513 619 l 504 603 l 516 592 l 512 579 l 483 553 l 483 542 q 467 537 463 531 q 460 525 447 515 l 447 503 q 439 490 430 490 l 416 494 l 414 490 q 398 470 397 465 l 387 459 l 386 442 l 337 380 q 328 371 320 356 q 312 342 300 335 l 287 305 l 281 299 l 281 277 l 253 241 l 225 181 l 227 175 l 219 148 q 224 125 233 122 q 242 119 248 119 l 243 90 l 237 66 l 228 57 l 212 16 l 201 6 q 195 2 185 -13 q 157 -24 137 -36 l 127 -21 q 126 -20 126 -17 l 128 -7 q 128 -4 127 -2 l 140 -2 l 130 28 q 149 47 149 68 l 147 82 q 147 88 149 95 q 151 102 153 105 q 155 108 159 128 l 164 130 l 162 135 q 168 143 174 156 q 174 172 193 195 l 193 210 l 200 217 l 226 280 q 234 302 244 302 l 246 302 l 246 308 q 246 334 259 346 l 262 363 q 271 367 273 374 q 281 379 281 387 l 297 414 l 302 417 l 306 431 q 307 435 313 441 l 328 456 l 324 472 q 332 496 336 504 q 340 512 340 518 q 340 527 323 527 l 316 527 l 314 530 q 293 532 286 531 l 260 524 l 254 524 l 246 520 q 226 523 225 524 l 214 532 l 192 525 l 188 531 l 178 525 l 168 533 l 147 531 l 130 533 l 113 527 l 110 536 l 104 536 l 87 525 l 71 533 l 55 528 l 42 559 q 49 569 57 575 q 65 581 68 581 l 71 581 q 76 589 81 590 l 84 587 l 84 590 q 84 615 112 619 q 117 626 131 626 l 134 632 q 168 624 178 624 q 181 626 190 626 q 195 626 213 622 q 228 613 262 613 l 295 608 l 304 609 z"},"S":{"x_min":0,"x_max":682,"ha":682,"o":"m 514 720 l 526 711 l 544 713 l 564 690 l 564 681 l 576 670 l 583 647 l 580 633 l 583 633 l 576 556 l 564 543 l 544 533 l 521 504 l 501 499 l 483 481 l 458 493 l 451 511 l 462 524 l 455 540 l 467 563 q 464 583 460 586 l 435 583 l 417 590 l 387 583 l 390 572 l 369 554 l 360 554 l 265 495 l 249 479 l 237 477 l 233 468 l 208 461 l 210 456 l 192 449 l 151 418 l 144 411 l 154 405 q 158 402 167 388 l 178 395 l 185 386 l 203 393 l 217 386 l 242 388 l 321 386 l 328 377 l 349 377 l 365 365 l 394 375 l 405 375 l 415 368 l 428 368 l 437 361 l 451 361 l 458 354 l 466 353 q 469 352 480 343 l 489 343 q 497 348 508 350 l 521 338 l 528 325 l 567 300 l 605 266 l 596 250 l 612 236 l 601 202 l 598 170 l 588 153 q 583 145 576 125 l 555 114 l 551 102 l 467 45 l 451 48 l 449 39 l 358 9 l 344 -2 l 317 -2 l 310 -9 l 296 -9 l 290 -16 l 276 -11 l 237 -25 l 235 -23 l 217 -25 l 185 -32 l 131 -27 l 106 -34 l 74 -27 l 68 -26 l 62 -26 l 56 -25 q 54 -25 47 -20 q 39 -15 33 -11 l 15 14 l 17 48 l 26 50 l 35 59 l 49 66 q 57 76 72 86 l 124 86 l 124 70 l 122 64 l 129 57 l 113 42 q 110 39 104 25 l 108 16 l 133 5 l 140 16 l 158 20 l 183 14 l 213 11 l 231 20 l 247 20 l 269 25 l 278 30 l 296 30 l 308 32 l 350 49 l 364 52 l 375 58 q 379 61 402 65 l 409 72 l 416 70 l 457 93 l 468 115 l 489 121 l 488 134 l 496 145 l 492 149 l 503 177 l 501 188 l 507 204 l 495 227 l 500 245 l 488 272 l 476 277 q 469 292 460 300 l 435 295 l 427 313 q 426 316 415 325 q 404 327 390 334 l 374 318 l 367 325 l 342 331 l 328 345 l 321 338 l 308 343 l 299 334 l 278 343 l 269 329 l 247 340 l 244 329 l 226 329 l 222 336 l 201 340 l 183 331 l 162 333 q 158 334 144 343 l 133 338 l 124 343 l 122 334 l 94 331 l 92 336 l 81 334 l 63 350 l 58 362 q 56 368 47 377 q 59 386 67 395 l 72 395 l 81 411 l 90 411 l 101 424 l 126 440 l 151 463 l 165 472 l 183 479 l 199 495 l 213 502 l 228 515 l 251 529 l 272 552 l 296 565 q 302 571 312 574 l 315 581 l 344 602 l 353 602 l 365 617 q 380 625 390 633 l 392 640 l 403 645 l 405 649 q 427 666 442 679 l 446 679 l 446 683 l 453 683 l 455 690 l 476 697 z"},"}":{"x_min":0,"x_max":542,"ha":542,"o":"m 245 269 q 258 288 281 288 l 293 295 q 287 310 274 313 l 261 334 l 264 353 l 259 368 l 269 378 l 264 388 l 267 399 l 271 400 q 269 411 269 414 q 269 421 275 426 q 275 436 282 445 l 277 451 l 281 460 q 292 473 292 490 l 291 499 q 303 513 303 522 l 302 526 l 306 524 l 301 549 l 298 548 l 302 558 l 300 558 l 297 581 l 302 582 l 299 583 l 303 588 l 306 586 l 304 595 l 305 617 l 293 630 l 294 644 l 291 642 l 298 653 l 296 653 q 285 669 283 670 l 284 676 l 274 678 q 272 688 262 689 l 239 692 q 227 699 215 699 l 208 698 l 207 701 l 200 702 l 197 698 q 182 708 182 719 l 182 728 q 190 732 205 734 q 219 736 235 740 q 251 744 261 744 q 266 744 270 742 l 297 728 l 328 719 l 353 699 l 354 702 l 364 682 l 379 644 l 381 603 q 385 602 385 596 q 385 590 381 582 l 383 568 l 375 543 l 375 502 l 361 490 l 361 468 q 345 452 345 434 q 345 429 346 426 q 339 417 326 380 l 336 365 l 326 362 l 328 341 q 334 336 334 328 q 334 323 333 320 l 351 311 l 361 313 l 368 301 q 376 308 383 308 q 389 308 393 304 l 405 304 l 415 295 q 410 261 384 266 q 375 267 369 267 q 357 267 350 258 l 347 266 l 333 259 q 325 262 319 262 q 297 262 297 222 l 297 210 l 291 203 l 291 186 q 280 167 280 156 l 281 147 q 281 146 278 140 q 276 135 274 126 q 272 116 267 94 q 258 72 251 50 q 239 41 217 9 l 217 8 q 217 5 206 -8 q 196 -21 178 -33 l 182 -37 l 168 -43 l 161 -59 l 140 -65 l 132 -71 l 85 -83 q 76 -86 71 -86 q 65 -86 58 -81 q 41 -80 41 -68 q 41 -64 42 -62 l 31 -51 l 32 -33 l 55 -28 l 65 -37 l 78 -31 l 93 -34 q 102 -34 108 -28 q 115 -22 135 -5 q 136 4 151 17 q 166 29 166 34 l 165 44 l 176 56 l 184 57 l 182 62 q 185 66 186 91 l 196 104 l 195 116 q 225 174 225 189 l 225 192 q 234 225 237 229 q 239 234 239 243 l 239 251 q 247 259 247 263 q 247 267 245 269 z"},"Z":{"x_min":0,"x_max":691,"ha":691,"o":"m 637 729 l 648 724 l 657 729 l 666 717 l 666 674 l 660 656 q 647 650 628 638 l 616 638 l 610 624 l 503 499 l 498 497 l 483 474 l 419 409 l 410 404 l 380 363 l 351 345 l 321 304 l 305 293 l 292 278 q 290 275 278 270 q 275 253 265 241 l 265 225 l 253 216 l 253 202 l 246 188 l 217 175 l 206 163 q 201 157 181 143 l 183 134 l 197 125 l 199 116 l 210 116 l 221 109 q 235 92 237 93 l 240 75 l 251 79 l 283 77 l 283 61 l 305 57 l 310 48 l 328 45 l 333 50 l 385 45 l 396 39 l 410 48 l 421 43 l 460 50 l 475 56 q 483 59 487 64 l 498 64 l 514 77 q 517 79 530 82 l 539 114 l 551 129 l 557 129 l 564 136 l 576 139 q 582 141 589 148 l 601 151 q 607 152 619 161 l 623 159 l 639 168 l 657 138 l 653 132 l 653 114 q 635 103 632 98 l 610 91 l 601 77 l 585 70 l 576 57 l 458 -2 l 444 -11 l 410 -20 l 401 -20 l 380 -27 l 358 -20 l 351 -25 l 315 -30 l 301 -23 l 283 -25 l 267 -18 l 235 -16 l 228 -11 l 201 -9 l 187 2 l 162 5 l 78 48 l 72 59 l 65 57 l 60 70 l 51 70 l 31 84 l 29 95 l 1 100 l -6 112 q -10 118 -15 141 l -10 152 l 22 177 l 44 177 l 51 184 q 54 188 58 190 l 68 196 q 74 200 82 201 l 103 202 l 117 182 l 149 197 l 158 216 l 162 227 l 183 261 l 190 263 l 219 284 l 240 304 l 256 306 q 258 312 262 322 l 285 329 l 285 343 l 301 347 l 312 345 l 321 347 l 312 365 l 324 363 l 330 388 l 344 402 l 355 415 l 371 427 l 380 445 l 405 463 l 428 499 l 444 515 l 455 524 l 478 549 l 476 572 q 482 579 492 602 q 479 611 476 620 l 458 611 q 447 623 446 627 l 401 629 l 383 638 q 375 637 362 629 l 349 636 l 319 633 l 294 624 l 283 599 l 287 577 l 278 558 l 278 536 l 267 511 l 246 502 l 242 490 l 228 490 l 199 470 l 187 479 l 178 479 l 165 499 l 178 518 l 176 529 l 174 563 l 181 565 l 185 588 l 178 590 l 183 608 l 176 624 l 185 638 l 185 647 l 193 658 q 197 663 212 672 l 217 670 l 217 676 l 226 674 l 235 683 l 251 686 l 269 698 l 299 701 l 308 695 l 317 701 l 353 708 l 355 699 l 360 701 l 430 704 l 437 701 l 460 701 q 475 707 483 708 l 494 704 l 530 706 l 562 711 l 567 711 l 571 699 l 578 695 l 576 699 l 621 717 z"},"x":{"x_min":0,"x_max":525,"ha":525,"o":"m 416 486 l 434 486 l 445 484 l 448 479 l 475 463 l 480 457 q 482 454 498 445 l 504 431 l 500 429 l 502 418 l 516 418 l 525 406 l 513 393 q 498 387 491 381 q 484 356 477 350 l 468 352 l 411 309 q 403 301 398 300 l 389 286 l 380 288 l 366 275 q 353 267 350 263 l 341 266 l 339 259 l 336 259 l 336 254 q 326 245 307 238 l 302 225 l 293 218 l 289 202 l 280 197 l 277 184 l 282 161 l 293 152 l 300 127 l 296 125 l 302 114 l 314 107 l 324 96 q 325 95 328 94 l 348 84 l 352 84 l 357 77 l 359 77 q 368 62 377 59 l 382 48 l 400 45 l 404 11 l 395 11 l 393 16 q 387 6 375 2 l 373 -5 l 366 -9 l 368 -23 l 361 -36 q 347 -42 341 -52 l 336 -52 l 320 -64 l 316 -57 l 316 -52 q 301 -34 293 -32 l 293 -18 l 280 0 l 282 16 l 286 18 l 264 48 l 246 68 l 243 91 l 239 98 q 225 133 212 134 l 187 106 l 170 81 l 150 72 l 139 55 l 118 33 l 105 24 l 98 6 l 91 6 l 96 -6 l 84 8 l 80 8 l 73 1 l 71 -8 l 77 -17 l 66 -22 l 59 -15 l 50 -17 l 53 -40 l 34 -37 l 14 -67 l 3 -65 l 0 -56 l 7 -51 l 12 -33 l 7 -28 l 14 -1 l 25 10 l 37 17 q 46 31 59 44 l 65 46 q 68 47 77 56 l 80 56 l 82 65 l 91 72 l 98 75 q 100 76 116 93 l 124 111 l 148 132 l 155 134 q 163 145 180 157 l 182 170 l 189 173 l 189 188 l 180 200 l 177 210 q 175 216 171 219 l 162 229 l 164 293 l 159 293 l 157 300 q 141 304 123 331 l 96 338 l 89 327 l 32 277 l 25 266 l 10 266 l 7 272 l 12 281 q 23 293 34 309 l 38 318 q 39 321 47 330 q 56 339 60 345 q 64 350 71 353 q 78 356 96 372 l 100 370 l 103 379 l 107 379 l 118 390 l 125 393 q 133 403 141 409 l 155 409 l 164 415 l 166 415 l 166 418 q 194 430 200 434 l 200 438 l 223 436 q 232 422 237 405 q 241 388 241 386 l 239 375 q 248 363 248 356 l 246 347 q 250 338 257 329 l 255 313 l 259 286 l 257 272 l 264 268 l 266 259 l 277 252 l 284 257 l 288 263 q 289 266 298 272 q 308 279 314 279 l 318 279 l 332 302 l 339 304 l 393 352 l 393 356 l 384 359 l 384 365 l 375 368 l 375 375 l 361 390 l 341 388 l 327 404 l 332 429 l 355 449 l 364 451 q 368 452 380 461 l 391 461 l 393 465 z"},")":{"x_min":0,"x_max":542,"ha":542,"o":"m 194 704 l 217 695 l 251 640 l 282 595 l 312 533 l 322 518 q 328 508 330 501 l 335 481 q 334 478 334 472 q 334 458 344 447 l 339 431 q 341 427 344 404 q 343 402 343 398 q 343 394 346 387 l 348 381 l 348 350 q 348 342 351 336 q 346 314 330 291 l 328 291 q 325 272 314 259 q 307 247 307 243 l 307 241 l 305 241 q 299 216 287 204 q 269 190 264 182 q 264 178 267 173 q 245 140 232 129 l 187 89 l 171 68 l 151 59 l 137 41 l 103 14 l 92 -1 q 87 -9 76 -18 l 71 -34 l 66 -34 q 46 -34 39 -25 q 32 -15 30 16 l 33 16 l 36 22 q 37 25 51 36 l 58 34 q 62 40 62 48 l 69 48 q 69 64 74 64 l 83 64 q 88 64 89 68 q 96 68 99 75 l 101 75 q 114 78 119 82 q 122 82 128 79 l 130 89 q 140 93 142 100 l 144 98 l 146 100 l 144 104 q 149 108 160 111 l 158 114 q 168 114 171 127 l 173 125 l 173 132 l 176 129 l 175 132 q 175 136 179 136 q 181 136 187 134 l 187 138 q 192 139 194 145 q 206 154 213 176 q 220 198 223 200 l 226 222 l 237 236 l 235 238 l 246 259 l 246 275 l 253 279 l 255 286 l 242 304 l 244 334 l 246 331 q 248 333 248 334 q 248 338 242 340 l 239 363 l 230 386 l 230 402 l 214 452 l 214 456 l 205 465 l 201 486 l 185 504 l 173 527 q 156 543 151 568 l 153 568 l 153 570 l 146 574 l 146 577 l 139 588 l 137 581 q 130 591 128 606 q 119 608 119 615 q 119 625 121 631 l 124 633 l 126 642 q 128 640 130 640 q 133 640 133 649 l 135 649 l 139 658 q 150 667 151 670 q 170 670 171 688 l 173 686 l 189 695 l 189 697 l 192 697 z"},"&":{"x_min":0,"x_max":571,"ha":571,"o":"m 441 577 l 450 570 l 450 568 q 465 577 475 577 q 487 577 491 561 q 479 528 466 524 l 432 513 l 405 490 l 371 493 l 346 486 l 330 486 q 309 476 296 472 l 294 468 q 258 459 239 431 l 264 427 q 269 427 278 421 q 287 415 296 415 l 298 415 q 321 424 328 424 l 344 418 l 369 418 l 373 413 l 387 384 l 357 365 q 350 354 346 347 q 343 340 321 328 l 301 316 l 253 261 l 187 193 q 154 160 142 102 l 135 100 l 139 89 l 139 77 q 139 72 148 68 q 151 72 169 82 l 178 79 l 185 86 l 187 84 l 196 84 l 196 86 l 207 91 l 207 89 l 237 93 l 246 89 q 251 94 251 102 l 310 127 l 305 134 l 311 133 l 316 134 q 329 137 337 154 l 341 150 l 353 161 l 357 161 q 364 165 364 172 l 364 184 q 360 196 360 204 l 377 212 q 380 213 389 225 l 389 222 l 410 236 q 417 232 422 232 q 426 232 426 239 q 426 244 425 247 l 457 254 l 482 220 l 466 170 l 428 66 l 410 7 l 387 -61 l 364 -145 l 357 -154 l 360 -161 q 359 -167 354 -177 q 349 -188 345 -208 q 340 -227 336 -237 q 331 -246 325 -269 q 319 -292 319 -297 l 321 -297 q 305 -346 262 -365 l 244 -368 l 219 -386 q 222 -371 227 -365 q 232 -360 232 -347 l 221 -329 l 228 -316 q 229 -304 237 -304 l 244 -304 q 251 -294 257 -291 l 257 -277 l 271 -259 l 271 -232 q 279 -208 282 -193 q 300 -177 301 -163 l 303 -114 l 310 -109 l 312 -98 q 321 -87 323 -69 q 324 -51 325 -47 q 327 -42 339 -36 l 339 -16 l 348 -11 q 344 0 346 9 l 348 34 l 339 43 l 341 64 q 343 68 343 76 q 343 85 341 89 l 330 95 q 324 91 317 83 q 311 75 302 72 q 293 68 289 68 l 276 70 q 271 70 267 61 q 259 51 246 44 q 233 37 214 32 l 159 16 q 149 11 139 9 q 135 11 132 11 l 121 7 l 110 7 q 95 -2 83 -5 q 77 -2 74 0 q 71 1 67 16 l 51 11 q 40 15 40 30 l 42 40 q 43 50 44 52 q 49 62 54 82 q 60 102 64 110 l 74 125 l 96 166 l 105 159 l 105 168 q 126 189 155 229 q 160 250 171 250 l 178 250 l 181 252 l 181 259 q 181 266 187 266 l 196 275 l 198 270 l 203 279 q 235 312 235 324 l 235 327 q 233 340 205 340 l 198 340 l 198 347 q 183 342 172 342 q 165 342 158 347 l 144 343 l 126 363 l 117 352 l 108 356 q 112 369 114 377 l 124 381 q 128 388 129 395 q 129 401 148 420 l 151 418 l 158 429 l 160 427 l 180 461 q 185 461 192 464 q 198 466 212 486 l 230 490 l 260 513 l 285 518 l 298 531 q 319 533 355 547 l 364 561 l 405 561 l 412 572 l 423 565 z"},"_":{"x_min":0,"x_max":500,"ha":500,"o":"m 0 -133 l 500 -133 l 500 -199 l 0 -199 z"},"v":{"x_min":0,"x_max":626,"ha":626,"o":"m 602 589 l 609 578 l 607 573 l 621 566 l 632 569 l 636 557 l 634 546 l 625 539 q 621 519 618 513 l 621 503 l 611 501 l 605 480 l 596 476 l 596 467 l 584 460 l 586 439 l 586 430 l 580 426 q 577 413 566 387 l 541 330 l 521 296 l 509 292 l 509 277 l 462 203 l 449 171 l 414 125 l 400 114 l 400 107 l 385 102 l 380 102 l 364 77 l 355 79 l 340 58 q 321 47 313 39 l 303 39 l 294 27 q 267 6 264 0 l 271 -9 l 257 -14 q 253 -18 239 -27 l 239 -39 l 232 -43 l 226 -43 l 218 -53 q 214 -59 209 -62 l 196 -68 l 189 -66 l 180 -70 l 167 -54 q 164 -41 160 -39 l 160 -7 l 144 59 l 153 75 l 128 116 l 135 134 q 134 143 126 152 l 133 163 l 126 177 l 130 177 l 128 188 l 130 200 l 135 202 l 135 218 l 117 232 l 124 232 l 126 236 l 124 250 l 114 252 l 110 263 l 114 266 l 114 293 l 117 297 l 110 300 l 105 318 l 99 322 l 96 320 l 89 325 l 80 320 l 71 320 l 64 309 l 55 311 l 46 300 l 37 302 l 40 295 l 28 288 l 15 300 l 10 320 l 30 345 l 40 343 l 67 368 l 80 375 q 97 386 99 386 l 103 386 l 103 377 l 108 377 l 105 384 l 135 395 l 142 393 l 139 395 l 148 395 l 153 397 l 146 400 l 151 400 l 158 409 l 171 413 l 176 419 l 189 419 l 189 424 l 194 424 l 198 431 l 212 431 l 221 422 q 229 419 230 418 l 226 402 l 230 386 l 217 359 l 219 329 l 217 318 l 223 293 l 223 243 l 229 200 l 229 191 q 230 188 235 175 l 255 125 l 260 120 l 260 104 l 264 91 l 255 75 l 262 64 l 321 116 l 348 138 l 358 168 l 373 172 l 371 177 l 378 183 l 383 181 l 387 204 q 402 221 423 247 l 432 261 l 439 269 l 440 275 q 441 278 452 292 q 464 307 470 317 q 477 326 488 352 l 500 357 l 505 376 l 512 385 q 519 397 532 412 l 532 423 l 539 432 l 541 441 q 541 446 545 453 l 553 465 q 557 471 564 476 l 571 494 l 559 512 l 548 507 l 541 510 l 530 491 l 518 491 l 507 476 l 496 476 l 491 480 l 480 471 l 466 469 l 459 476 l 471 487 l 471 496 q 479 506 480 510 l 491 516 l 505 539 l 509 541 l 518 551 q 526 556 534 566 l 543 566 l 552 582 l 557 578 l 571 582 l 582 580 l 591 582 z"},"O":{"x_min":0,"x_max":496,"ha":496,"o":"m 302 661 l 314 658 q 318 654 329 641 q 340 627 341 602 l 357 581 l 355 568 l 375 540 l 373 529 l 380 515 l 375 497 l 389 484 l 395 461 l 416 461 l 437 451 q 441 449 445 445 l 457 434 l 452 404 l 459 397 l 457 379 l 461 365 l 450 347 l 454 331 l 439 314 q 436 311 434 302 l 452 284 l 434 275 l 420 252 l 403 248 q 393 245 386 241 l 368 229 l 373 222 q 354 194 355 191 l 346 186 l 339 163 l 334 161 l 325 145 q 312 135 298 116 l 300 114 l 286 95 l 277 98 l 282 91 l 246 54 l 196 11 l 187 11 l 175 -2 q 165 -5 153 -14 l 141 -7 l 137 -9 l 118 -3 q 109 0 96 9 q 85 20 80 20 l 73 35 l 64 34 l 62 43 l 50 48 l 53 54 l 62 59 l 57 64 l 60 70 l 53 84 l 48 92 q 46 95 41 120 l 35 120 l 37 134 l 35 148 l 39 157 l 35 159 l 41 195 l 35 218 l 41 222 l 39 229 l 41 252 l 37 266 l 46 281 l 46 304 l 57 350 l 55 350 l 60 361 l 57 365 l 62 368 l 60 377 l 79 424 l 80 422 l 80 431 l 82 445 l 87 447 l 87 456 l 89 461 l 98 463 l 94 465 l 100 470 l 98 488 l 105 493 l 112 511 l 114 511 l 117 522 q 119 527 128 536 l 128 545 l 137 547 l 137 552 l 164 581 l 168 592 l 180 597 l 182 608 q 198 622 200 622 q 205 635 223 642 l 257 656 l 282 656 z m 234 574 l 214 561 l 198 536 l 186 524 q 180 518 168 497 l 159 474 l 150 457 q 146 449 143 431 l 137 424 l 137 404 l 125 393 l 121 377 l 121 368 l 109 356 l 109 352 l 91 309 l 94 293 l 84 270 l 89 266 l 84 250 l 89 243 l 82 222 l 75 186 l 84 182 l 69 173 l 75 159 l 80 159 l 78 141 l 78 116 q 88 109 91 102 l 89 95 q 97 79 100 66 l 108 61 q 112 59 125 43 l 146 48 l 153 36 l 171 45 l 173 50 l 184 52 l 189 68 l 191 68 l 196 77 l 212 77 q 227 94 230 104 l 239 107 l 243 120 l 259 150 l 273 157 l 275 168 l 296 177 l 286 186 l 286 197 q 293 209 296 220 l 276 226 q 273 227 262 238 l 241 234 l 252 245 l 271 254 l 280 261 q 291 267 294 273 q 298 279 300 288 l 307 293 l 300 302 l 300 316 l 298 331 l 300 336 l 291 347 l 293 354 l 302 359 l 305 365 l 300 365 l 296 388 l 298 400 l 286 404 l 284 420 l 289 424 q 287 439 277 461 l 282 461 l 271 474 l 273 481 q 261 503 259 515 l 252 522 l 252 540 l 248 549 l 243 552 z"},"(":{"x_min":0,"x_max":542,"ha":542,"o":"m 548 738 q 554 734 564 731 q 573 728 573 723 q 573 717 566 711 l 542 688 l 533 678 q 527 672 521 668 l 502 658 q 501 637 494 634 q 486 631 479 631 l 476 631 l 421 588 l 415 581 l 400 572 l 388 552 l 369 538 l 362 522 q 357 513 353 509 l 337 497 l 329 454 l 308 415 l 312 411 l 312 397 q 305 381 303 368 l 310 363 l 303 350 l 303 322 l 298 295 l 303 284 l 308 259 l 312 250 q 314 247 316 225 l 329 209 l 351 170 l 364 157 l 394 102 l 413 77 l 410 77 l 415 70 q 419 49 423 41 l 384 9 l 372 -20 q 368 -28 355 -34 q 343 -41 331 -41 q 321 -41 316 -21 q 311 0 273 57 l 230 123 l 210 182 q 210 184 212 191 q 210 198 205 209 q 200 221 202 234 l 212 338 l 219 361 l 219 372 l 229 375 l 224 381 l 226 388 q 235 391 235 402 l 235 406 l 232 402 q 240 416 242 424 l 247 424 q 255 436 255 443 l 255 452 q 273 465 273 474 l 273 481 q 280 484 280 490 q 286 493 289 498 q 293 503 295 508 q 296 513 306 524 l 306 529 l 312 533 l 312 536 q 315 536 326 549 l 329 549 q 339 572 355 574 q 360 591 372 592 q 386 617 413 629 q 420 646 438 649 l 462 672 q 464 674 472 688 l 480 688 l 507 708 l 502 706 l 509 715 l 514 715 q 527 715 527 724 l 527 726 l 537 733 l 546 733 z"},"C":{"x_min":0,"x_max":719,"ha":719,"o":"m 137 0 l 131 11 l 90 25 l 67 50 l 60 77 l 49 86 l 35 118 l 35 143 l 42 153 l 39 164 l 42 177 l 56 204 l 49 225 l 56 229 l 65 254 l 62 281 l 78 288 l 78 306 l 87 306 l 92 327 l 94 327 l 99 334 l 94 338 l 99 338 l 101 344 l 101 366 l 131 388 l 128 393 l 149 422 l 151 422 l 158 436 l 171 440 l 171 449 l 176 449 l 178 461 l 201 488 l 205 490 l 208 495 q 219 506 219 508 l 224 511 l 233 527 l 267 558 l 283 578 q 287 583 293 586 l 308 595 l 310 602 l 335 611 l 333 615 q 344 625 353 627 l 353 629 l 360 640 l 378 647 q 402 668 414 672 l 446 683 l 455 679 l 466 683 l 469 683 l 482 679 l 485 667 l 491 670 l 494 667 l 494 661 l 501 642 l 505 570 l 503 570 l 505 568 l 494 518 l 491 524 l 487 499 l 489 489 l 480 477 l 478 477 l 477 469 l 481 455 l 476 438 l 476 434 l 464 434 l 455 411 l 455 409 l 453 409 l 428 379 l 419 375 l 414 363 l 405 368 l 407 352 l 403 345 l 394 345 l 392 350 l 371 359 l 362 379 l 364 395 l 367 397 l 399 483 l 421 509 l 426 538 l 419 590 l 393 597 l 373 595 l 360 588 l 358 588 l 348 574 l 312 552 l 298 554 l 287 540 l 289 538 l 289 536 l 278 533 l 276 524 q 263 514 244 497 q 242 493 226 474 l 226 472 l 215 465 l 215 461 l 203 456 l 203 449 l 201 449 l 178 415 l 181 411 l 153 356 l 142 352 l 142 347 l 148 347 l 145 324 l 138 311 l 129 270 l 119 261 q 113 207 112 202 l 125 193 l 122 159 l 129 127 q 143 105 145 87 l 159 94 l 174 77 l 199 55 q 225 49 242 48 l 264 60 l 271 51 l 314 62 l 326 56 l 328 60 l 392 79 l 401 79 l 435 102 l 466 111 l 489 120 l 519 141 l 526 141 l 537 150 l 582 195 l 596 204 l 589 229 l 560 243 l 562 254 l 666 300 l 669 304 q 686 309 689 313 l 696 313 l 703 295 l 709 295 l 703 268 l 696 268 l 687 250 l 687 254 l 682 250 l 677 233 l 655 211 l 653 216 q 637 193 634 191 l 634 184 l 612 170 q 608 166 605 163 l 594 163 l 591 157 q 581 153 575 138 l 544 123 l 541 120 l 539 123 q 530 119 523 109 l 519 109 l 512 100 l 507 102 l 505 93 l 487 91 l 478 82 q 473 77 453 68 l 453 66 l 446 68 q 439 67 430 59 l 428 48 l 419 50 l 410 45 l 410 43 l 392 43 q 379 29 365 24 q 352 19 314 11 l 314 5 l 292 7 l 292 -2 l 280 0 l 276 -2 l 276 -5 l 262 -5 l 260 -14 l 233 -17 z"},"W":{"x_min":0,"x_max":1128,"ha":1128,"o":"m 312 608 q 332 599 337 592 l 339 577 l 360 572 q 356 567 330 547 l 321 524 l 321 511 l 324 502 l 308 472 l 310 440 l 303 424 l 296 379 l 303 365 l 301 347 l 303 343 l 296 338 l 319 254 l 314 250 l 346 193 l 360 200 l 361 209 q 362 213 366 219 q 371 225 387 238 q 387 243 401 263 l 403 261 l 410 268 l 412 277 l 421 284 l 419 300 q 426 301 446 311 l 451 322 l 455 322 q 463 336 478 347 l 480 359 q 485 362 503 386 l 501 388 l 507 393 l 507 411 l 514 434 l 505 452 l 507 470 l 501 481 q 502 485 512 495 l 519 495 l 532 502 l 532 515 l 544 522 l 553 518 q 560 530 566 536 l 589 543 l 607 533 l 619 495 l 644 479 l 648 427 l 650 418 l 648 406 l 655 400 l 659 370 l 671 334 l 673 322 l 716 236 l 743 188 l 762 182 l 764 157 l 775 152 l 780 152 l 791 141 q 796 136 807 116 l 821 118 l 827 132 l 837 138 l 843 147 q 846 152 862 166 l 866 168 l 876 181 q 882 188 893 195 l 896 204 l 909 216 q 917 234 922 239 q 927 243 939 247 l 943 259 l 946 257 l 951 277 q 952 281 961 293 l 966 293 l 973 300 l 977 320 l 993 350 l 1000 356 l 995 363 l 1005 381 l 1005 411 l 1009 411 l 1014 418 l 1018 418 l 1014 452 l 1009 479 l 975 479 l 966 497 l 973 506 l 977 515 l 985 524 q 989 529 993 540 l 1002 545 l 1002 554 l 1014 561 l 1020 556 l 1023 572 q 1047 584 1054 590 l 1070 583 l 1082 592 l 1089 592 l 1098 574 l 1091 563 l 1098 543 l 1098 472 l 1091 465 l 1093 454 l 1091 436 l 1086 434 l 1077 395 l 1069 382 q 1064 375 1062 370 l 1059 354 l 1059 345 l 1041 311 l 1005 268 l 1007 261 l 991 234 l 923 159 l 914 154 l 900 136 l 796 20 l 768 9 l 757 0 l 746 3 l 728 -18 l 719 -14 l 696 54 l 696 66 l 690 71 q 687 73 680 89 l 678 89 l 646 129 l 646 143 l 625 159 q 615 169 603 179 l 598 202 l 587 211 l 594 222 l 578 241 l 546 327 l 548 331 l 546 345 l 526 343 l 516 313 l 496 295 l 498 291 l 435 218 l 383 141 l 378 130 q 376 125 369 118 q 362 111 351 104 l 348 89 l 335 77 l 333 68 l 324 64 l 324 52 l 305 34 l 278 34 l 274 20 l 260 11 q 250 -2 240 -9 l 224 6 q 221 9 217 20 l 228 43 q 230 52 240 77 l 235 89 l 237 91 l 237 104 l 242 109 l 235 134 l 240 148 l 230 168 l 233 175 l 226 179 l 226 193 l 208 291 l 208 306 l 187 338 l 187 354 l 201 384 l 201 386 l 194 393 l 203 440 q 209 462 212 468 l 199 497 l 133 484 l 110 474 l 97 474 l 81 465 l 58 445 l 28 447 l 15 479 l 24 481 l 35 496 q 42 504 45 506 q 49 508 60 515 l 69 515 q 75 523 101 536 l 103 543 l 128 545 l 145 554 l 156 554 l 160 552 q 161 556 169 561 l 174 549 l 212 563 l 212 565 l 228 563 l 237 565 q 240 568 260 583 l 280 581 q 282 588 294 602 z"},"A":{"x_min":0,"x_max":795,"ha":795,"o":"m 487 738 l 510 735 l 521 717 l 519 695 q 521 688 522 684 q 523 679 526 654 l 530 642 l 530 624 l 541 613 l 541 606 l 557 479 l 562 479 l 569 470 l 553 470 q 562 443 569 415 l 585 409 l 600 422 l 616 415 l 623 415 l 625 413 l 628 415 q 630 413 648 411 l 673 429 l 712 427 l 714 434 l 739 427 l 782 438 l 791 447 q 796 452 804 455 l 823 461 l 832 447 l 848 447 l 855 427 q 846 408 837 399 l 832 402 l 793 361 l 773 347 l 725 347 l 698 340 l 675 345 l 628 325 l 625 327 l 596 315 l 603 209 l 605 209 l 605 204 l 598 197 l 605 191 l 607 168 l 612 163 l 607 154 l 616 141 l 621 102 l 628 93 l 635 95 l 637 89 l 636 82 l 630 82 l 632 25 q 623 10 614 0 l 596 -2 l 591 -16 l 578 -14 l 580 -27 l 572 -37 q 569 -41 546 -55 l 529 -41 q 526 -39 522 -30 l 516 -16 l 516 11 l 507 54 l 503 61 l 507 89 l 503 113 l 512 132 l 501 172 q 505 181 507 197 l 503 204 l 507 225 q 507 234 501 261 l 510 281 l 507 313 l 492 322 l 482 318 l 482 322 l 460 320 l 462 306 l 451 309 l 439 306 l 436 304 q 414 293 392 293 l 378 295 l 349 286 l 319 281 l 317 268 l 296 277 l 296 268 l 292 268 l 278 254 l 258 254 l 265 234 l 246 238 l 217 220 l 210 213 l 194 218 l 176 204 l 158 204 l 158 191 l 140 188 l 133 172 l 124 163 l 112 132 l 115 129 q 114 125 99 111 l 97 84 l 83 73 l 85 68 l 78 68 l 78 57 l 62 45 l 62 41 q 59 38 51 23 l 47 23 l 35 -11 l 31 -5 l 31 -9 l 19 -18 l 16 -27 q 15 -32 6 -41 l -12 -34 q -15 -26 -17 -25 l -15 -18 l -15 -14 l -12 -5 q -18 4 -19 32 l -12 29 l -17 34 l -17 41 l -15 43 l -19 55 l -15 64 l -20 75 l -17 79 q -18 90 -19 109 l -10 116 l 17 95 l 33 95 l 90 166 l 81 172 l 83 182 l 65 175 l 62 170 l 58 172 l 47 166 q 42 163 26 161 l 10 182 q 21 212 31 216 q 31 221 47 238 l 58 241 l 56 243 l 74 268 l 76 268 l 119 277 l 124 268 l 133 270 l 135 268 l 140 268 l 144 277 l 158 275 l 158 279 l 169 288 l 162 300 l 171 313 l 194 322 l 192 327 l 195 334 q 196 338 210 350 q 219 387 230 393 l 226 393 l 249 422 l 251 420 l 285 474 l 283 474 l 296 493 l 299 493 l 326 543 l 330 543 l 353 581 l 360 583 l 371 604 q 373 606 380 626 l 396 638 l 396 640 l 405 663 l 410 665 l 412 683 l 419 683 l 421 690 l 423 690 l 428 701 l 467 724 z m 410 592 l 394 588 l 394 581 l 378 565 l 373 565 l 351 533 l 349 533 l 333 502 l 333 497 l 327 488 q 324 483 319 480 l 305 472 l 299 456 q 296 449 294 422 l 285 424 l 283 411 l 265 397 l 267 395 l 267 384 l 251 377 l 238 341 q 235 331 231 325 l 219 309 l 221 306 l 221 304 l 226 302 l 255 302 l 267 295 l 305 318 l 337 320 l 339 313 l 342 325 l 360 325 l 392 334 l 401 331 l 421 338 l 421 340 l 451 350 l 451 352 l 489 361 l 489 372 l 476 384 l 476 422 l 487 447 l 476 454 l 462 447 l 444 472 l 469 474 l 469 481 l 439 488 l 442 495 l 433 506 l 439 515 l 423 540 l 426 545 l 430 547 l 423 554 l 417 588 z"},"f":{"x_min":0,"x_max":398,"ha":398,"o":"m -90 -462 l -68 -425 l -64 -428 l -61 -414 l -43 -384 l -34 -380 l -32 -371 l -20 -359 q -13 -341 -11 -341 l -11 -337 q -9 -335 2 -312 q 8 -295 11 -294 q 17 -266 27 -246 l 34 -219 l 34 -212 l 41 -201 l 55 -132 l 55 -123 q 60 -119 61 -108 l 70 -46 l 82 -30 l 79 -17 l 82 -8 l 89 33 l 93 42 l 91 56 l 93 60 l 102 99 l 104 115 l 109 129 l 107 147 l 109 151 l 120 149 l 129 181 l 129 194 l 134 224 l 141 226 l 141 242 l 145 249 l 145 272 l 159 310 l 161 319 l 157 328 l 168 349 l 168 358 l 171 368 q 155 379 150 379 l 140 379 l 134 375 l 120 381 l 113 381 l 106 397 l 86 401 l 79 408 l 72 408 l 63 424 l 63 436 l 45 460 l 55 474 l 68 474 q 69 476 77 480 l 79 487 l 84 487 q 88 494 101 501 l 111 501 q 125 492 136 462 l 159 462 l 163 453 l 168 458 l 175 451 l 184 449 l 195 449 l 206 483 l 207 496 l 209 494 l 207 503 l 213 510 l 211 521 l 216 526 q 221 539 225 546 l 220 549 l 229 569 l 232 567 l 234 573 l 236 573 l 236 583 l 243 589 l 247 610 l 243 619 l 254 644 l 261 648 l 261 655 l 281 678 q 286 682 300 698 l 304 698 l 304 701 q 312 707 329 712 l 336 728 l 350 732 l 352 744 l 370 741 l 372 748 l 431 778 l 445 771 q 475 777 479 776 l 516 761 l 522 721 l 529 694 l 487 659 l 465 672 l 449 670 l 423 676 l 423 696 l 409 692 l 393 696 l 388 707 l 381 703 l 379 698 l 372 705 l 370 687 l 359 678 q 352 655 341 644 l 341 639 l 329 628 l 327 612 l 316 605 l 316 598 l 311 598 q 309 589 306 580 l 300 583 l 295 573 l 295 567 l 293 567 l 295 560 q 279 536 275 510 l 270 508 l 266 499 l 266 487 l 261 489 l 259 476 l 249 458 q 243 447 243 440 l 247 428 l 255 423 q 260 420 266 420 l 280 419 l 291 407 l 297 407 l 301 409 l 306 407 l 315 409 l 320 403 l 329 406 l 337 406 l 337 413 l 344 417 l 348 414 l 357 417 l 362 406 l 367 416 l 377 404 l 383 411 l 393 409 l 393 413 l 409 411 q 413 413 419 415 l 426 412 l 439 412 l 450 390 l 447 378 l 437 373 q 429 371 421 367 l 416 360 l 403 362 l 395 356 l 386 363 l 383 352 l 372 352 l 365 356 l 355 356 l 348 359 l 337 352 l 329 354 l 322 347 l 313 353 l 308 344 l 299 344 l 297 349 l 287 344 l 269 349 l 245 342 l 236 351 l 222 333 l 213 331 l 211 308 l 209 310 l 209 299 l 198 278 l 202 272 l 198 258 l 198 233 l 193 235 l 193 222 l 188 201 q 177 177 177 165 l 179 151 q 169 133 168 129 l 173 119 l 166 113 l 166 104 l 173 97 l 170 88 l 173 81 l 159 65 l 163 54 l 157 42 l 154 4 l 150 -3 l 152 -10 l 143 -21 l 145 -39 l 145 -46 l 138 -53 l 125 -112 q 114 -133 114 -135 l 116 -142 l 116 -148 q 107 -168 107 -178 l 107 -189 l 102 -194 l 104 -207 l 100 -210 l 102 -219 l 100 -221 l 100 -216 l 95 -232 q 91 -253 87 -264 q 83 -276 70 -289 l 68 -298 l 64 -298 l 61 -305 l 64 -307 l 57 -312 l 59 -316 l 48 -337 l 46 -345 q 45 -348 30 -366 l 30 -375 l 27 -371 q 15 -386 9 -387 l 9 -405 l -9 -437 l -16 -434 q -21 -447 -34 -468 l -44 -479 q -47 -482 -56 -502 l -74 -510 l -74 -515 l -78 -521 l -83 -517 l -97 -542 l -109 -535 l -122 -549 l -122 -546 l -127 -553 l -131 -553 l -134 -558 l -138 -560 l -141 -567 l -145 -565 l -152 -574 l -161 -574 l -166 -583 l -177 -583 l -186 -582 l -192 -577 q -195 -574 -200 -560 l -190 -544 l -175 -537 l -168 -526 l -150 -524 l -145 -512 l -131 -510 l -121 -499 q -116 -494 -93 -481 z"},"Q":{"x_min":0,"x_max":831,"ha":831,"o":"m 391 690 l 403 681 q 405 679 407 674 l 414 658 l 414 638 q 422 619 430 611 l 430 584 q 437 557 439 536 l 455 518 l 459 474 l 464 468 l 468 440 l 466 428 q 464 416 460 409 l 457 402 l 430 384 l 439 375 l 477 384 l 502 375 l 507 340 l 520 334 l 514 329 l 489 259 l 480 245 l 480 238 l 461 213 l 464 209 l 452 202 q 445 192 432 182 l 432 175 l 416 154 l 396 138 q 388 125 375 114 l 375 107 l 391 98 q 400 93 404 87 l 416 70 l 439 68 q 446 62 450 50 l 468 50 l 477 36 l 509 23 l 523 27 l 530 18 l 541 23 l 557 18 l 566 23 l 575 18 l 575 23 l 618 23 l 629 30 l 643 30 l 650 16 l 663 39 l 675 43 l 691 43 l 686 45 l 697 54 l 709 54 l 713 64 l 715 85 q 716 89 722 98 l 734 100 l 750 98 l 750 107 q 760 119 761 125 q 769 127 784 143 l 797 138 l 831 82 l 827 75 l 768 23 q 750 21 743 14 l 734 19 q 698 -10 659 -14 l 600 -20 l 584 -18 l 573 -25 l 562 -28 q 557 -30 548 -39 l 530 -32 l 523 -34 l 523 -39 l 505 -41 l 493 -32 l 486 -43 l 468 -36 l 455 -36 l 455 -30 l 432 -32 l 423 -23 l 409 -23 l 407 -11 l 380 0 l 386 -23 l 359 -23 l 337 -7 l 323 -7 l 318 0 l 301 5 q 293 7 273 19 l 250 19 l 225 5 l 212 11 l 175 -14 l 155 -18 l 144 -9 l 139 7 l 112 30 l 98 27 l 103 39 l 53 91 l 48 100 l 62 107 l 39 123 l 39 161 l 35 166 l 35 179 l 41 186 l 39 202 l 48 250 q 52 280 55 284 l 53 295 l 60 306 l 69 327 q 77 342 80 352 l 91 359 l 91 386 l 98 397 l 100 409 l 107 418 l 114 436 q 119 446 132 459 l 155 481 q 159 489 164 506 l 169 506 l 166 520 l 175 527 l 178 536 l 171 540 l 203 558 l 198 561 l 214 572 l 230 586 l 243 608 l 255 615 l 284 640 l 293 654 l 316 663 l 359 688 l 371 676 l 377 683 z m 307 583 l 268 568 l 262 547 l 243 536 l 198 477 l 196 472 l 171 440 l 166 431 q 164 427 150 418 q 145 401 132 377 l 135 363 l 116 327 l 119 316 l 110 309 l 114 302 l 103 297 l 103 270 l 91 261 l 89 252 l 89 234 q 86 205 82 195 l 71 188 l 78 166 l 85 161 l 73 141 l 132 77 l 130 75 l 144 54 l 150 61 l 153 70 l 189 104 l 196 104 l 266 123 l 282 123 l 284 116 l 330 125 l 334 136 l 352 143 l 352 154 l 366 163 l 391 209 l 398 211 l 411 232 l 434 291 q 412 295 384 297 l 373 331 l 343 334 l 330 354 l 330 368 l 325 375 l 330 384 l 309 388 l 323 393 l 327 415 l 325 429 l 334 436 l 330 460 l 325 543 l 318 577 l 314 583 z"},"w":{"x_min":0,"x_max":812,"ha":812,"o":"m 770 561 l 792 556 l 792 552 l 799 554 l 812 543 q 815 540 819 531 l 833 536 l 835 527 l 844 513 l 847 481 q 834 464 826 456 l 835 456 l 838 447 l 831 438 l 838 434 q 824 418 824 415 l 813 413 l 813 402 l 804 384 l 797 384 q 791 377 781 370 l 779 354 l 772 345 l 765 347 l 763 334 l 751 320 l 751 322 q 731 299 726 297 l 729 291 l 720 286 l 715 278 q 713 275 699 266 l 691 250 q 688 244 676 234 l 676 225 l 595 143 l 568 107 q 554 97 549 84 q 547 84 529 64 l 520 47 q 518 43 508 36 l 488 20 q 486 0 484 -9 l 477 -9 l 474 -14 l 465 -9 l 438 -23 l 431 -23 l 427 -36 l 418 -32 l 418 -27 l 409 -25 l 411 -30 l 395 -36 l 381 -5 l 372 0 l 375 16 l 365 34 l 368 48 l 372 52 l 372 61 l 377 82 q 365 96 365 116 l 368 141 l 347 161 l 329 186 l 325 204 l 325 207 l 316 220 l 311 220 l 302 195 l 302 168 l 229 102 l 223 90 q 220 84 209 73 l 207 75 l 202 64 l 197 61 l 204 52 l 197 48 l 193 18 l 173 14 l 150 -14 l 138 -25 l 129 -25 l 125 -36 q 113 -30 104 -5 q 89 -2 86 2 q 90 14 102 25 l 100 34 l 109 50 l 111 95 l 104 95 l 114 100 q 103 126 100 143 q 104 145 109 170 q 95 196 79 213 l 75 234 l 79 241 l 79 250 l 86 261 l 82 279 l 69 294 q 66 297 64 302 l 59 316 l 45 311 l 43 306 l 30 306 l 25 322 l 39 338 l 57 370 l 66 375 l 64 377 l 70 377 l 70 379 l 82 381 l 102 402 l 118 402 q 123 404 132 415 l 132 411 l 145 418 l 161 415 l 179 415 l 179 402 l 184 384 l 179 370 l 182 365 l 177 363 l 175 345 l 177 327 l 168 313 l 170 300 l 170 291 l 163 288 l 159 279 l 161 250 l 159 238 l 159 209 l 157 207 l 154 184 l 161 168 l 161 150 l 166 145 l 170 123 l 182 118 q 192 137 197 138 l 197 148 l 204 141 l 209 150 l 209 157 l 216 159 l 220 168 l 229 173 l 227 179 q 238 182 247 188 l 252 200 l 252 207 l 254 213 l 259 211 l 254 222 l 263 222 l 272 232 l 300 270 q 311 276 316 277 l 316 284 l 320 284 l 320 293 l 322 291 l 322 300 l 336 306 l 365 347 l 368 345 l 370 352 l 379 354 l 384 361 l 386 359 l 390 375 l 415 395 l 424 395 l 424 390 l 434 377 l 438 377 l 445 381 l 445 384 l 461 377 l 456 363 l 445 356 l 434 356 l 429 345 l 459 338 l 452 329 l 443 327 l 429 313 l 431 288 l 431 279 l 434 268 l 429 254 l 443 211 l 440 197 l 452 182 l 465 138 l 468 118 l 465 104 l 472 95 l 484 98 q 501 123 502 125 l 508 125 l 511 127 l 518 127 l 520 134 l 522 125 l 522 145 l 545 159 l 565 186 l 598 224 q 602 229 615 236 l 615 243 l 631 257 l 633 263 l 636 261 l 638 268 q 651 275 658 284 l 688 320 l 706 338 l 706 340 l 711 347 l 722 359 q 733 375 738 377 l 742 390 l 749 397 l 767 424 l 767 445 l 772 459 l 745 474 l 731 472 l 726 477 l 724 472 l 711 473 q 706 474 686 484 l 679 479 l 672 481 l 667 474 l 661 474 l 642 459 l 633 463 l 620 449 l 608 449 l 604 459 l 620 465 l 629 493 l 633 495 l 649 524 l 686 540 l 724 547 l 731 552 l 740 552 l 756 561 z"},"-":{"x_min":0,"x_max":434,"ha":434,"o":"m 206 253 l 220 251 l 222 253 q 227 249 236 247 l 234 245 l 248 247 l 252 247 l 252 243 l 260 243 l 272 237 l 264 237 l 292 227 l 300 229 l 316 223 l 316 221 l 324 221 l 324 219 l 328 221 l 336 217 l 338 217 q 360 217 372 209 l 372 203 l 374 203 l 362 187 l 338 183 l 330 163 q 314 155 310 147 l 298 145 l 284 151 l 268 154 q 264 155 260 158 l 250 165 l 236 165 q 221 177 204 177 l 174 177 l 154 185 l 148 185 q 119 185 84 147 l 84 145 l 80 147 l 80 145 q 60 145 60 158 q 60 167 68 183 q 75 199 88 209 q 92 219 96 223 l 100 221 l 104 233 l 120 237 l 120 239 l 134 243 l 132 241 q 146 241 148 245 l 150 243 l 152 247 l 154 247 l 156 245 l 184 253 l 192 251 l 192 255 q 194 250 198 250 q 202 250 206 253 z"},"E":{"x_min":0,"x_max":680,"ha":680,"o":"m 593 640 l 596 637 l 565 597 l 562 592 l 540 581 l 528 586 q 516 573 503 568 l 494 570 l 485 556 l 474 552 l 457 563 l 452 577 l 419 570 l 397 579 l 359 572 l 322 572 q 318 541 312 527 l 315 522 l 309 488 l 302 463 l 302 444 l 297 439 l 300 430 l 379 424 l 419 432 l 453 423 l 472 445 l 502 445 l 506 436 l 522 429 l 522 415 l 514 407 q 510 404 500 382 l 474 364 l 457 356 q 448 352 432 352 l 377 359 l 349 354 l 328 347 l 306 350 l 294 347 l 281 347 l 277 345 l 268 322 l 262 302 l 250 281 l 237 207 l 228 129 l 219 109 l 218 54 l 227 48 l 262 43 l 277 34 l 297 34 l 307 28 l 322 32 l 337 27 l 382 33 l 404 32 l 408 36 l 431 36 l 451 43 l 470 41 l 475 45 l 516 57 l 509 73 l 514 84 q 524 116 534 134 l 559 132 l 577 143 l 605 143 q 616 127 641 109 l 645 82 l 645 73 l 636 61 l 636 52 l 625 45 l 625 34 q 611 18 580 11 l 576 3 q 573 -2 568 -5 l 555 -14 l 502 -16 l 478 -32 l 442 -32 l 433 -27 l 426 -32 l 417 -23 l 374 -36 l 352 -36 l 345 -43 l 318 -38 l 284 -48 l 268 -45 l 256 -52 l 228 -48 l 191 -52 l 177 -48 l 168 -68 l 159 -79 l 157 -86 q 156 -89 144 -102 l 144 -107 q 133 -118 128 -129 l 103 -138 l 72 -159 l 63 -136 l 69 -120 l 68 -102 l 85 -77 l 102 -70 l 112 -43 l 87 -36 l 81 -41 l 69 -32 l 25 -32 l 18 -41 l -12 -39 l -31 -9 l -31 14 l -32 14 l -34 30 l -23 34 l -19 43 l 2 60 l 25 60 l 46 68 q 63 68 90 58 l 112 66 q 128 66 150 57 l 156 70 l 153 82 l 171 179 q 172 188 181 216 l 178 229 l 187 247 l 202 340 l 185 368 q 191 380 210 397 l 206 420 l 212 422 l 222 445 l 219 456 l 227 472 l 216 488 l 222 506 l 218 518 l 218 536 l 225 547 l 216 556 l 216 581 l 181 588 l 172 588 l 110 573 l 75 579 l 66 565 l 47 563 l 31 592 l 37 604 l 44 606 l 50 617 l 75 638 l 93 638 l 102 656 l 109 654 q 116 661 125 667 l 134 667 l 147 663 l 177 661 l 209 665 l 219 658 l 219 661 l 225 665 l 243 658 l 244 663 l 277 670 l 272 672 q 294 685 306 686 l 302 672 l 309 668 l 340 676 l 347 667 l 385 661 l 394 654 l 402 656 l 406 645 l 443 656 l 443 649 l 460 647 l 481 654 l 531 644 l 575 684 l 587 689 l 604 689 l 616 681 l 618 666 l 600 640 z"},"s":{"x_min":0,"x_max":326,"ha":326,"o":"m 237 501 l 253 497 l 262 483 l 271 479 l 264 454 l 242 441 l 153 398 l 139 374 l 142 347 l 173 301 l 179 280 l 197 282 l 216 264 l 216 246 l 225 242 l 259 178 l 269 163 q 265 145 265 138 l 267 131 l 258 117 l 242 84 q 213 59 207 45 l 194 43 l 192 36 l 130 -12 q 104 -38 92 -41 l 33 -57 q 24 -69 12 -75 l 3 -57 l 3 -46 l -4 -37 l 15 -23 q 21 -12 23 -10 l 28 -6 q 31 -4 52 1 q 63 12 70 12 l 77 12 q 91 24 97 30 l 104 30 l 106 35 l 113 37 l 117 52 l 121 52 l 130 66 l 144 72 l 148 84 l 153 88 l 162 118 l 155 134 l 135 193 l 88 226 q 76 242 67 253 l 63 269 q 61 277 52 290 l 47 292 l 40 311 l 40 318 q 37 336 33 342 l 46 374 l 51 372 l 51 386 l 62 395 l 62 401 q 80 414 87 422 l 96 422 l 96 415 l 105 433 l 105 429 q 105 432 124 440 q 125 447 135 449 q 150 469 151 472 l 160 474 l 167 472 l 171 476 l 187 476 l 187 479 l 215 487 q 219 488 235 497 z"},">":{"x_min":0,"x_max":833,"ha":833,"o":"m 129 559 l 704 323 l 704 273 l 129 37 l 129 100 l 617 298 l 129 497 z"},"l":{"x_min":0,"x_max":392,"ha":392,"o":"m 332 126 q 328 126 328 110 q 321 102 315 94 q 309 86 303 83 l 296 85 q 289 79 287 71 q 286 69 282 69 q 279 69 278 74 q 272 62 262 62 l 262 57 l 258 57 l 253 60 q 244 54 244 46 l 237 46 l 239 49 l 235 49 l 235 44 l 228 35 l 219 35 l 219 33 l 214 33 l 214 30 l 205 28 l 205 26 l 201 28 l 199 24 l 196 28 l 176 17 l 178 15 l 174 15 q 172 6 162 6 q 159 -1 153 -1 l 151 -4 q 140 -4 131 -16 q 122 -27 115 -29 l 112 -24 l 110 -29 l 115 -31 l 108 -31 l 108 -33 q 99 -35 85 -49 q 74 -46 71 -40 l 42 17 q 46 20 46 25 q 46 32 42 40 l 44 40 l 35 65 l 40 65 l 35 71 l 37 74 q 40 74 40 77 l 40 80 l 44 78 l 44 83 l 46 90 l 56 94 l 53 96 q 60 106 61 125 q 62 143 65 146 l 60 155 l 60 167 l 65 183 l 67 180 q 71 186 74 198 q 73 200 73 204 q 73 209 74 210 l 83 219 l 80 230 l 87 239 l 87 242 l 90 239 l 90 248 l 87 251 l 90 251 l 96 269 l 96 271 l 99 269 l 103 298 l 105 298 l 115 328 l 112 326 l 128 369 l 126 369 l 142 391 l 142 403 l 146 414 q 142 415 137 423 l 151 446 l 151 469 l 142 475 q 142 478 146 484 q 144 492 142 494 l 119 528 l 115 530 q 107 530 101 525 l 98 525 q 86 525 80 537 l 85 553 l 83 559 l 96 568 l 94 571 q 110 574 116 585 q 123 597 128 603 q 134 603 139 605 q 144 607 146 611 q 148 614 151 618 l 158 618 l 167 632 l 167 637 l 174 643 q 180 643 183 652 l 180 657 l 185 655 l 192 659 q 194 667 201 670 q 208 673 221 680 q 223 686 233 689 l 233 691 l 244 693 l 244 696 l 280 716 l 280 718 q 284 725 292 725 q 305 725 305 699 l 305 689 l 303 689 l 303 682 q 303 659 285 650 q 284 643 279 639 q 273 634 262 621 l 264 621 q 256 616 255 600 q 253 584 248 571 l 246 573 l 248 564 l 246 564 l 244 562 l 248 558 q 243 553 242 547 q 242 541 240 541 l 239 541 l 230 530 q 239 524 239 517 q 239 513 233 512 l 233 507 l 230 509 l 230 484 l 221 484 l 217 469 l 219 455 l 214 444 l 214 441 l 210 441 l 212 430 l 208 432 l 201 389 l 187 344 l 183 326 q 176 317 176 312 q 176 308 178 298 q 162 262 158 228 l 153 226 l 151 223 q 149 213 146 208 l 144 164 l 149 149 l 146 119 l 160 90 q 151 90 149 83 l 146 83 l 155 74 l 153 67 l 158 67 l 167 58 l 176 67 l 187 72 q 192 74 201 83 l 212 83 l 212 87 l 214 85 q 229 100 244 101 l 242 103 l 258 108 l 258 112 q 272 115 280 126 q 297 129 303 139 l 307 139 l 321 149 z"},"8":{"x_min":0,"x_max":510,"ha":510,"o":"m 213 609 l 220 609 q 241 609 241 594 q 241 587 234 577 q 229 573 229 565 l 243 562 l 262 574 l 285 593 l 326 601 l 350 597 l 396 607 l 432 599 l 451 597 l 461 605 l 478 603 l 491 603 q 496 602 520 594 l 531 601 q 551 598 559 587 q 567 575 567 567 l 567 564 q 567 558 565 553 q 562 549 559 544 q 556 540 553 538 q 550 535 547 529 q 543 522 539 517 q 535 512 529 508 l 505 491 l 496 478 l 382 393 l 375 383 l 335 361 l 309 331 l 284 322 l 285 314 l 285 312 l 298 295 q 301 292 303 279 l 313 268 l 342 203 l 344 187 l 350 181 l 345 144 l 345 127 l 298 77 l 219 24 l 200 4 l 184 8 l 137 -19 q 133 -27 116 -27 q 103 -27 86 -23 l 56 -16 l 24 25 l 12 52 l 20 68 l 19 80 l 40 106 l 53 134 q 67 154 76 164 q 84 173 99 195 q 108 201 111 204 l 144 238 q 163 255 175 266 l 173 269 l 173 279 l 176 283 l 147 330 l 132 373 l 127 379 l 129 385 l 123 391 l 116 424 l 100 435 q 99 441 85 455 q 85 459 89 466 l 93 472 l 102 508 l 125 527 l 128 542 l 178 586 l 193 593 z m 315 538 l 287 514 l 267 501 l 258 477 l 235 478 l 230 470 l 218 470 q 214 455 214 446 l 217 428 l 217 426 l 219 418 l 235 404 l 240 384 l 249 371 q 254 364 256 354 l 266 352 q 292 367 307 379 q 321 391 321 396 l 369 437 q 411 465 415 470 l 436 492 l 453 502 l 458 512 l 430 520 l 430 522 l 418 524 l 408 521 l 381 531 l 347 527 z m 198 242 l 198 240 q 198 230 191 225 q 185 219 184 218 l 167 193 l 138 171 l 125 147 l 111 134 l 104 116 q 103 113 91 100 l 92 66 l 94 52 q 94 49 101 48 l 108 47 l 143 51 l 189 66 l 199 72 q 205 75 210 75 l 224 76 q 234 96 260 108 q 265 118 265 126 l 263 138 l 263 142 q 247 163 234 188 q 221 212 221 217 l 221 231 l 213 249 l 202 249 z"},"\\":{"x_min":0,"x_max":482,"ha":482,"o":"m 393 -43 l 389 -29 l 386 -29 q 371 -29 366 -9 l 364 -9 l 363 -2 q 342 19 342 43 l 342 48 l 336 47 l 333 52 l 334 59 q 334 63 330 66 l 326 64 l 321 69 q 319 71 312 91 l 314 91 l 312 93 l 309 93 l 306 102 q 297 113 292 132 q 286 150 282 156 q 278 161 273 175 l 265 180 l 264 200 l 258 204 l 255 216 l 248 223 q 246 247 238 259 l 235 257 l 231 282 l 222 282 l 225 295 l 223 293 l 221 300 q 211 312 211 317 l 211 318 q 213 322 214 325 l 210 329 l 198 359 l 194 382 l 183 409 l 177 443 q 169 448 169 454 l 171 461 q 165 467 156 495 l 145 531 l 146 534 l 144 534 l 131 570 l 124 584 q 120 590 113 615 l 110 613 l 102 631 l 100 631 q 99 642 88 649 q 85 654 83 661 q 81 667 79 675 q 77 683 75 689 q 74 695 67 704 l 68 706 l 63 722 l 73 723 q 78 724 88 731 l 91 731 q 102 727 105 723 q 108 719 117 701 q 126 683 131 662 q 136 641 138 636 q 141 631 149 624 l 149 618 l 153 615 l 179 527 l 191 502 l 212 436 l 224 409 l 224 393 l 234 372 l 244 332 q 247 325 254 314 q 262 303 263 301 q 264 299 268 268 l 285 250 l 297 202 l 308 184 l 319 155 l 344 100 l 357 89 l 360 66 l 374 50 l 419 -38 l 400 -41 l 400 -43 z"},"e":{"x_min":0,"x_max":428,"ha":428,"o":"m 233 445 l 245 443 l 247 443 l 245 438 l 249 438 l 256 431 l 279 429 l 302 429 l 315 422 l 320 422 l 327 397 l 317 388 l 317 379 l 333 363 l 331 318 l 324 318 l 322 309 l 320 309 l 320 295 l 329 293 l 333 288 l 327 279 l 327 272 l 315 266 l 306 259 l 281 245 q 271 234 263 229 l 256 209 l 213 192 l 170 193 l 172 182 l 163 182 l 161 179 l 140 175 l 138 182 l 131 179 l 131 175 l 113 168 l 106 148 l 115 123 l 115 111 l 120 100 q 110 71 106 70 l 109 61 l 104 59 l 115 54 l 115 39 l 125 32 q 149 40 155 43 l 162 36 l 164 38 q 184 40 196 43 l 199 49 l 211 49 l 220 50 l 232 44 l 229 48 l 239 48 l 251 58 l 265 59 l 262 59 l 276 65 l 280 62 l 287 69 l 297 69 l 306 78 q 317 79 341 91 l 341 96 l 355 100 l 370 122 l 386 120 q 395 112 406 111 l 413 104 l 402 83 l 404 70 l 388 61 l 386 56 l 363 53 l 350 40 l 336 39 l 332 28 l 313 30 l 307 16 l 292 18 l 286 11 q 270 5 269 4 l 262 8 l 251 -3 l 235 -3 l 225 -8 l 219 -8 l 212 -14 q 199 -18 186 -25 l 179 -20 l 165 -20 l 159 -25 l 154 -23 l 147 -25 l 145 -23 l 140 -34 l 127 -34 l 116 -40 q 111 -43 93 -45 l 88 -50 l 79 -50 l 66 -52 l 56 -64 l 43 -59 l 36 -68 l 31 -66 q 29 -66 11 -48 l 13 -36 l 11 -30 l 13 -18 l 6 0 l 9 14 l 4 36 l 9 54 l 2 82 l 0 84 l 2 98 l 18 104 l 18 114 l 11 116 l 13 129 l 9 136 l 11 148 l 18 152 l 16 163 l 18 182 l 22 184 l 29 207 l 45 236 l 59 241 l 61 257 l 59 261 l 61 270 l 70 275 l 75 291 l 63 291 l 63 297 l 68 304 l 66 311 l 68 318 l 70 318 l 70 334 l 86 336 l 93 350 l 127 388 l 134 388 q 140 397 149 404 l 156 402 q 163 404 172 418 l 177 418 l 186 424 l 190 424 l 197 434 z m 221 362 l 204 356 l 191 362 q 179 352 172 348 q 170 335 162 327 q 153 318 150 318 l 141 318 l 147 307 q 142 297 133 277 l 125 279 l 122 266 l 125 248 l 135 243 q 139 240 159 237 l 175 247 l 207 250 l 224 275 l 247 294 l 250 330 l 242 342 l 241 359 l 230 359 z"},"b":{"x_min":0,"x_max":491,"ha":491,"o":"m 240 881 l 256 876 l 258 867 l 258 860 l 262 849 l 258 844 l 260 831 l 251 819 l 251 806 l 242 804 l 244 785 l 231 770 l 206 706 l 190 642 l 183 622 l 181 627 l 176 597 l 174 599 l 178 556 l 169 543 l 169 533 l 174 522 l 169 520 l 165 524 l 167 511 l 165 504 l 160 494 q 158 490 153 461 l 151 459 l 165 445 l 163 434 q 153 430 144 418 l 153 418 l 153 415 l 163 415 l 181 409 q 201 420 215 420 l 235 418 l 249 420 l 251 415 l 267 418 l 269 413 l 287 420 l 301 415 l 299 413 l 306 413 l 328 427 l 337 424 l 337 429 l 365 429 l 408 418 l 417 406 l 419 409 q 439 405 460 395 l 462 390 l 476 379 l 462 340 l 458 334 l 451 334 l 449 327 l 449 306 l 446 311 l 444 302 l 430 295 l 426 275 l 412 263 l 415 259 l 410 259 l 412 257 l 405 252 l 403 243 q 389 238 374 204 l 369 207 l 371 202 l 362 200 l 360 191 l 355 193 l 353 184 l 340 173 l 340 168 l 335 159 l 328 161 l 331 157 l 317 154 l 317 148 l 299 134 l 301 129 l 296 123 l 290 123 l 287 127 l 283 120 l 278 120 l 281 114 l 274 111 l 269 98 l 265 95 l 265 91 l 256 91 l 251 82 l 247 84 q 240 67 231 61 l 231 57 l 226 57 l 228 50 l 222 54 l 219 48 l 212 48 l 208 32 l 201 34 l 197 25 q 179 15 176 11 l 178 5 l 174 5 l 174 0 l 167 0 q 157 -8 153 -9 l 151 -7 l 142 -16 q 129 -24 122 -32 l 110 -30 l 79 -54 l 79 -59 l 72 -59 q 53 -79 42 -84 l 40 -89 l 35 -91 l 31 -102 l 26 -98 l 15 -107 l 13 -104 l 8 -120 l -1 -107 l -19 -104 l -28 -107 l -35 -100 l -26 -84 l -15 -79 l -5 -82 l 10 -64 l 10 -50 l 17 -43 l 22 -25 l 33 -14 q 40 -7 42 -2 l 49 14 l 58 20 l 51 25 l 60 34 l 58 48 q 58 69 67 86 l 65 91 l 81 107 l 81 123 l 76 136 l 81 150 l 88 200 q 80 212 79 218 l 88 229 l 85 241 l 88 252 l 85 261 l 83 293 l 85 350 q 93 359 94 370 l 101 370 l 101 381 l 106 386 l 101 388 l 106 393 l 104 397 l 104 411 l 101 415 q 107 429 117 443 l 110 452 l 113 459 l 119 463 l 122 461 l 126 470 l 115 477 l 117 499 l 124 508 l 119 522 q 126 548 131 554 l 128 570 l 138 597 l 135 611 l 135 622 l 138 627 l 131 636 l 133 656 q 139 666 144 686 l 140 695 l 128 701 l 126 715 l 106 713 l 97 701 q 90 688 82 680 q 74 671 67 661 l 63 661 l 47 654 l 22 658 l 13 654 l 3 660 q -1 663 -15 683 l -3 681 l -1 701 l 58 749 q 71 752 74 754 l 104 774 l 113 776 q 123 786 124 792 l 138 801 l 156 824 l 188 858 l 203 860 l 206 869 l 215 869 q 230 877 237 878 z m 294 336 l 290 334 l 278 336 l 271 334 l 274 331 l 267 329 l 265 325 l 262 331 l 260 327 l 249 331 l 231 325 q 227 329 217 331 q 199 321 194 320 q 192 311 183 306 l 181 309 l 176 302 l 174 306 l 172 304 l 163 313 l 158 313 l 156 318 l 147 318 q 143 300 133 284 l 144 263 l 133 218 l 140 204 q 144 196 144 177 l 142 157 l 144 145 l 132 136 l 132 73 l 128 73 l 133 41 l 131 34 l 133 25 l 144 30 l 160 50 l 181 64 l 215 104 l 219 111 l 228 114 q 238 128 240 134 l 247 138 l 269 163 l 271 173 l 290 173 l 287 186 l 298 194 l 303 209 l 321 218 l 342 254 l 346 259 l 346 263 l 353 284 l 344 313 q 313 323 306 334 z"},"%":{"x_min":0,"x_max":701,"ha":701,"o":"m 523 631 q 518 631 514 629 l 516 624 q 503 615 475 576 q 448 537 444 527 q 439 518 431 506 l 425 511 l 425 499 l 416 490 q 409 474 403 465 l 389 447 l 339 363 l 314 327 l 312 315 l 303 308 q 298 304 291 291 l 287 293 l 281 281 l 287 277 l 278 256 l 262 250 l 259 236 q 242 215 238 203 q 234 191 222 178 q 209 166 200 141 q 195 141 184 125 l 180 125 l 178 111 l 153 89 q 134 59 122 46 q 111 34 102 20 l 94 7 l 83 -23 l 64 -41 l 44 -79 q 28 -85 12 -98 q -18 -90 -27 -85 q -36 -80 -36 -71 q -36 -61 -13 -36 l -11 -27 l -8 -27 q 4 -27 5 -14 l 9 -14 l 23 2 q 24 16 37 16 l 39 16 q 39 21 46 23 l 50 36 q 89 67 89 84 l 89 86 l 91 89 q 105 91 107 102 l 112 107 l 112 104 l 116 107 l 118 129 l 123 127 q 130 139 137 145 l 139 154 l 146 159 l 148 170 l 152 170 q 157 173 164 180 q 172 187 182 225 l 191 234 l 198 234 q 202 252 214 256 l 216 268 l 225 277 l 230 291 q 232 297 243 311 l 246 309 l 248 315 l 257 318 l 257 322 q 257 338 268 352 q 281 354 284 368 l 286 365 q 288 394 307 413 l 311 413 l 309 418 l 316 424 l 350 479 l 352 479 q 354 487 361 490 l 361 493 l 364 493 l 368 505 q 370 513 374 517 l 384 529 l 386 543 l 391 547 l 420 583 l 420 588 q 438 602 443 624 l 445 626 q 452 627 452 633 q 464 635 466 647 l 475 656 q 475 668 488 670 l 488 676 q 498 696 518 710 l 518 708 l 520 708 l 527 717 l 527 724 q 536 724 536 733 q 543 739 550 754 l 552 754 q 557 754 557 760 q 564 760 566 772 l 570 769 l 577 776 l 579 774 l 579 779 q 579 783 588 792 l 593 792 q 600 801 600 808 q 612 813 616 819 l 618 817 q 621 822 622 831 l 625 829 l 625 831 l 631 840 l 645 847 l 650 853 l 661 860 q 670 876 673 878 q 677 881 679 881 q 680 881 688 876 q 697 871 710 871 q 718 871 723 872 q 726 866 726 862 q 726 847 695 835 l 675 799 l 609 738 l 591 724 l 584 706 l 556 676 q 536 650 523 640 z m 275 781 l 298 774 q 315 751 336 715 q 321 711 321 695 l 325 676 l 289 645 l 280 611 q 274 603 271 590 l 246 579 l 200 527 l 168 508 l 153 490 l 144 495 q 120 486 107 486 q 95 486 87 504 l 82 502 q 72 507 72 520 l 73 527 l 71 527 l 66 552 l 71 572 l 71 581 l 78 588 q 85 594 86 610 q 87 625 100 654 l 107 654 q 115 657 123 663 q 131 689 131 692 l 148 701 q 154 710 163 711 l 166 722 l 171 732 q 173 735 189 747 l 189 749 l 209 763 q 221 776 237 776 l 246 776 l 257 772 l 262 779 l 271 779 z m 166 642 l 153 633 l 157 620 l 155 608 q 155 604 160 588 q 165 572 175 567 l 178 561 q 180 567 187 572 l 191 572 l 207 586 l 207 590 l 209 592 l 212 590 l 212 592 l 221 595 l 228 611 l 230 606 l 237 611 l 239 611 l 243 636 l 239 651 l 239 679 l 225 683 l 200 683 l 189 679 l 171 679 z m 511 291 l 545 286 l 545 288 l 559 286 l 566 288 l 573 281 q 587 281 604 270 l 602 268 l 622 245 l 618 220 l 632 186 q 614 161 603 136 q 592 112 582 100 l 545 59 l 525 50 l 525 48 l 498 29 l 473 0 l 452 -7 l 416 -30 l 391 -30 l 375 -32 q 374 -30 371 -25 q 366 -18 361 -13 l 348 0 q 345 3 344 6 l 343 12 q 341 18 340 28 l 339 40 q 339 42 337 46 q 336 50 336 54 q 336 59 339 66 l 343 73 l 352 125 l 357 125 l 368 154 l 373 154 q 384 156 384 163 q 384 165 382 170 l 391 172 l 391 184 l 398 193 q 407 196 409 209 q 424 209 425 229 l 436 236 q 462 263 466 266 l 493 284 l 493 286 z m 420 120 l 420 109 q 418 97 418 93 l 425 77 l 434 77 l 441 64 l 441 54 l 468 75 q 486 75 493 91 q 544 115 548 143 l 543 143 q 543 173 529 195 q 514 195 511 204 l 495 207 l 482 200 l 468 200 l 459 182 l 425 145 z"},"m":{"x_min":0,"x_max":873,"ha":873,"o":"m 846 113 l 836 107 l 833 111 l 833 102 l 831 104 q 826 90 823 88 q 821 86 817 86 l 813 86 l 813 84 q 813 79 806 79 l 808 77 l 806 75 l 804 77 l 804 73 q 800 73 798 70 q 795 67 795 66 l 795 59 l 788 61 l 790 57 l 779 52 l 749 18 l 747 20 q 747 12 740 11 q 734 -25 720 -25 l 696 -21 q 687 -19 683 -19 q 679 -18 661 -5 q 656 -6 646 -12 q 639 -8 631 2 l 633 2 l 633 9 l 638 11 l 633 20 l 648 31 l 628 45 l 626 54 q 634 59 634 61 q 634 62 617 88 q 602 102 597 111 l 599 111 l 597 120 l 604 134 l 604 143 l 605 143 q 606 143 606 144 q 606 145 599 163 l 601 163 l 595 170 q 601 178 601 187 q 601 202 581 231 l 575 247 q 573 288 563 295 q 545 281 545 271 l 546 267 q 546 259 533 259 l 529 259 q 521 245 511 232 l 513 223 l 504 216 q 503 208 500 202 q 497 195 492 191 q 488 187 481 173 l 479 175 l 479 169 l 474 166 l 470 157 q 461 152 461 147 q 461 145 463 141 l 461 141 l 461 137 l 458 137 l 452 121 l 442 116 l 445 105 q 438 88 420 66 l 420 55 q 417 23 410 14 l 408 14 q 409 7 399 -3 q 389 -13 383 -17 q 377 -21 366 -21 l 362 -21 q 361 -20 358 -20 q 355 -20 341 -32 l 337 -39 q 336 -42 335 -42 q 333 -42 331 -42 q 326 -42 325 -41 l 314 -25 l 300 -23 l 295 -11 q 298 2 307 16 l 305 23 q 309 24 309 27 q 309 29 307 30 l 311 45 l 311 48 l 308 52 l 310 57 l 313 54 q 314 65 324 68 l 329 77 l 333 79 q 338 92 342 95 l 340 113 q 340 122 345 134 l 348 134 l 348 136 l 345 138 l 357 182 l 364 195 l 364 213 l 352 220 l 348 232 q 343 239 343 243 l 345 261 q 345 282 336 284 q 330 280 325 279 l 325 277 l 318 268 l 307 268 l 305 261 l 300 261 q 293 253 286 236 q 278 219 275 213 q 260 201 252 191 l 252 186 q 238 186 234 170 l 232 173 l 232 168 l 225 168 q 223 157 216 148 q 209 140 202 132 q 202 126 196 125 q 194 115 182 107 l 177 101 q 175 98 173 86 l 166 82 l 166 79 q 159 78 159 73 l 155 73 q 155 62 150 61 q 138 54 132 44 q 125 34 125 32 l 125 27 q 114 12 114 -11 l 112 -11 l 114 -16 l 107 -36 q 121 -30 125 -30 q 132 -30 132 -39 l 127 -43 l 127 -45 l 121 -57 q 104 -70 98 -79 l 98 -82 l 93 -84 q 85 -104 78 -116 l 57 -127 l 51 -113 q 48 -107 34 -91 q 40 -87 41 -84 q 39 -80 30 -75 l 23 -75 q 12 -75 8 -73 q 4 -70 3 -59 l 5 -57 q 2 -54 2 -51 q 2 -49 3 -48 l 3 -39 l 5 -41 l 5 -34 q 16 -30 16 -20 q 20 -18 23 -9 l 19 -2 q 34 4 34 18 q 48 26 48 49 l 48 54 l 55 59 l 50 66 l 55 73 l 50 75 l 50 82 l 59 100 l 55 100 l 55 104 l 46 109 l 46 118 l 57 159 l 53 170 q 54 170 57 182 l 58 182 q 63 182 65 187 q 66 191 66 205 q 67 218 68 227 l 62 232 l 68 243 l 68 257 l 71 266 q 61 270 61 281 l 62 288 l 50 300 l 21 302 l 19 320 l 32 325 l 30 320 l 34 322 q 34 331 43 334 q 46 347 61 349 q 75 352 75 368 l 78 368 l 87 393 l 91 393 l 91 400 l 93 400 q 97 417 114 429 q 130 441 144 445 q 163 447 175 465 l 189 454 l 186 452 q 208 446 236 445 l 236 443 q 230 441 224 439 q 219 437 213 434 q 208 430 206 426 l 202 415 l 191 413 l 191 400 l 193 400 q 191 394 189 393 l 184 379 q 173 366 173 356 l 175 346 q 175 343 173 343 l 168 343 l 168 340 l 166 340 l 168 331 q 162 330 162 322 l 163 319 q 163 312 152 300 q 152 291 143 291 l 132 281 l 137 270 l 134 252 l 134 238 q 131 236 125 234 l 123 222 q 123 214 116 209 l 118 195 l 112 179 l 103 114 q 104 104 112 104 q 116 107 121 111 q 125 116 130 122 q 135 127 138 132 q 141 136 152 143 l 159 157 l 168 157 q 171 163 171 168 q 177 174 177 182 q 196 187 202 204 l 205 204 q 210 222 225 229 q 231 229 234 234 q 237 238 248 250 l 248 257 l 250 257 l 250 263 q 272 281 275 281 l 275 286 l 277 293 l 282 293 q 280 296 280 298 q 280 304 289 311 l 302 311 q 303 331 332 347 l 334 345 l 334 350 l 336 356 l 339 354 q 342 369 346 370 q 350 372 352 372 q 354 372 357 370 q 358 383 365 383 q 369 383 377 377 l 381 377 q 398 377 402 359 q 423 358 430 346 q 436 334 436 329 q 436 321 429 316 l 427 309 q 427 301 433 293 l 434 281 l 432 281 q 430 270 420 259 l 425 252 l 423 234 l 427 225 q 427 209 436 209 q 443 209 445 218 l 450 227 q 469 246 475 257 l 486 259 l 493 275 l 502 281 q 512 286 513 296 q 524 298 535 314 q 546 331 554 331 l 557 334 q 562 345 563 345 l 566 344 q 568 344 568 347 l 577 352 q 591 352 595 368 q 607 370 611 375 l 616 377 l 622 375 q 639 375 645 359 l 656 361 l 670 340 l 670 329 q 681 297 684 279 l 688 279 q 687 263 679 250 l 686 241 l 679 225 q 684 207 684 194 q 684 178 679 173 l 681 143 l 684 143 l 680 131 l 675 129 l 675 123 q 675 103 684 89 q 687 39 703 39 q 708 39 731 66 l 743 68 l 747 79 l 756 86 l 754 89 l 779 111 l 793 129 l 797 129 l 808 148 q 811 145 814 145 q 822 145 829 161 l 831 161 q 833 161 833 162 l 833 163 l 853 142 z"},"#":{"x_min":0,"x_max":630,"ha":630,"o":"m 332 661 l 332 635 l 319 617 l 317 593 l 305 580 l 276 491 l 270 486 l 277 486 l 284 485 l 294 486 l 306 485 q 326 483 328 483 l 339 484 l 356 483 l 377 485 l 389 485 q 412 479 421 479 l 437 480 l 437 488 l 446 495 q 447 500 449 505 q 451 510 453 515 q 456 519 458 531 q 460 542 463 550 q 466 559 469 566 q 473 574 475 582 q 478 583 480 585 l 478 585 q 484 608 489 614 l 494 613 q 498 617 498 618 l 498 620 l 496 627 l 500 634 l 505 633 l 504 637 q 504 641 507 652 q 510 663 516 663 l 544 661 l 544 635 l 530 617 l 529 593 l 517 580 l 488 491 l 483 483 l 492 481 l 506 481 q 507 481 510 480 q 514 479 518 481 q 521 482 525 482 l 539 480 q 547 480 551 481 q 557 478 561 478 q 563 478 567 480 q 579 482 588 482 l 604 481 q 608 481 632 489 q 634 475 642 463 l 638 454 l 628 449 l 620 450 q 617 448 614 443 q 607 438 604 437 l 598 444 q 595 448 590 448 q 587 441 578 441 q 572 441 568 442 l 565 440 l 556 440 l 529 438 l 511 442 l 487 441 l 475 441 l 471 427 q 469 421 454 400 l 452 372 q 452 364 445 355 q 435 338 435 332 l 431 306 l 422 277 l 417 250 l 428 255 q 458 251 463 253 q 467 254 470 254 l 484 252 q 492 252 496 253 q 502 250 506 250 q 508 250 512 252 q 524 254 533 254 l 549 253 q 555 253 562 256 q 569 260 577 261 q 579 247 587 236 l 583 227 l 573 221 l 565 222 q 563 221 559 215 q 555 212 549 210 l 543 217 q 541 220 535 220 q 532 213 523 213 q 517 213 513 214 l 509 212 l 501 212 l 474 210 l 456 214 l 432 213 q 423 213 407 217 l 395 181 l 391 153 l 375 88 l 372 85 l 373 79 q 362 66 360 58 q 348 -32 320 -38 l 314 -31 l 287 -32 l 291 -15 l 291 -13 l 296 -3 q 298 15 307 45 q 318 53 318 65 l 320 65 l 326 84 l 329 83 l 334 109 q 348 139 354 169 l 356 169 l 355 172 l 364 212 l 321 214 l 303 212 q 299 211 290 211 q 280 211 265 214 l 251 217 l 235 215 l 208 217 l 193 214 l 191 202 l 187 188 q 184 181 183 173 l 179 153 l 164 88 l 160 85 l 161 79 q 149 66 148 58 q 144 25 140 10 q 136 -5 129 -18 q 123 -31 118 -34 q 113 -37 96 -38 l 91 -31 l 76 -32 l 79 -15 l 79 -13 l 84 -3 q 86 15 95 45 q 106 53 106 65 l 108 65 l 114 84 l 117 83 l 122 109 q 135 139 142 169 l 144 169 l 144 172 l 152 210 l 150 217 l 144 213 l 122 213 l 107 212 l 65 213 l 36 212 l 29 212 l 24 214 l 22 210 q 13 205 7 198 q 5 205 -3 212 q 2 221 10 227 q 17 232 25 240 q 32 247 44 252 q 56 257 88 257 l 107 254 q 111 254 114 257 l 139 254 l 154 255 q 157 255 160 254 q 162 259 169 265 l 172 300 l 182 331 l 186 335 l 182 342 q 184 352 191 361 l 192 369 l 194 367 l 191 380 l 199 381 l 202 406 l 204 405 q 211 419 214 444 l 203 444 l 197 441 l 175 441 l 160 439 l 118 441 l 89 440 l 82 440 l 77 442 l 75 437 q 65 434 60 426 q 56 433 50 440 q 56 450 62 455 q 69 460 77 468 q 84 475 96 480 q 108 485 141 485 l 160 482 q 163 482 166 485 l 192 482 l 207 483 q 219 483 224 481 l 229 484 l 234 495 q 235 504 240 512 q 245 521 246 531 q 247 541 255 561 q 263 580 263 582 q 266 583 268 585 l 266 585 q 272 608 278 614 l 282 613 q 286 617 286 618 l 286 620 l 284 627 l 288 634 l 293 633 l 292 637 q 292 642 296 653 q 300 664 305 663 z m 373 252 l 373 259 q 373 267 380 271 l 384 300 l 394 331 l 398 335 l 394 342 q 396 352 403 361 l 404 369 l 406 367 l 402 380 l 411 381 l 414 406 l 416 405 q 424 420 425 439 l 372 442 l 353 440 q 348 439 337 439 q 328 439 314 441 l 301 444 l 286 443 l 260 445 l 258 421 l 246 404 q 240 396 240 372 q 240 362 234 355 q 223 336 223 332 l 220 306 l 202 255 l 227 259 l 234 257 l 244 259 l 266 256 l 310 256 l 327 257 l 339 257 q 357 252 373 252 z"},",":{"x_min":0,"x_max":300,"ha":300,"o":"m 52 -194 l 50 -187 l 37 -191 l 27 -181 q 20 -178 20 -172 q 20 -171 22 -168 q 24 -165 24 -161 l 24 -153 q 24 -151 37 -145 q 50 -139 50 -129 q 50 -126 49 -124 l 58 -117 q 74 -115 85 -109 l 90 -92 l 100 -76 l 113 -47 l 120 -21 l 92 -33 q 84 -30 68 -15 l 59 -5 q 55 0 36 13 q 25 16 25 29 q 25 39 45 52 l 63 92 q 75 117 100 117 l 109 114 q 118 111 123 111 q 128 111 139 114 l 145 103 q 148 96 153 92 l 168 80 l 168 64 l 179 31 l 181 21 l 181 6 l 177 -17 l 174 -17 l 170 -40 q 161 -41 161 -52 l 161 -56 l 163 -65 q 160 -72 154 -74 l 156 -74 q 157 -74 157 -76 q 157 -86 145 -99 l 145 -103 l 143 -101 l 134 -115 l 134 -119 q 123 -134 113 -135 q 107 -142 102 -142 q 102 -160 75 -171 q 75 -179 65 -185 l 63 -183 z"},"n":{"x_min":0,"x_max":660,"ha":660,"o":"m 195 449 l 214 447 l 241 450 l 241 416 q 233 410 233 403 q 219 395 219 382 q 219 376 220 373 l 217 354 l 180 288 l 175 256 l 166 244 l 167 219 l 153 153 q 151 151 151 149 q 151 145 156 142 l 178 170 l 191 177 l 201 200 l 220 214 l 243 249 q 252 263 283 275 q 283 283 298 299 q 300 299 310 308 q 320 316 329 322 l 327 325 q 362 344 362 351 q 387 362 394 376 q 429 408 445 410 q 449 411 458 415 q 467 419 473 420 q 483 433 500 433 q 510 433 510 419 l 511 387 l 505 369 l 504 346 l 493 319 l 482 250 q 480 244 475 243 l 481 221 l 474 209 l 486 202 l 482 196 q 479 193 472 180 q 477 175 480 171 l 477 132 l 479 132 q 484 81 490 80 l 511 88 q 523 108 549 122 q 558 124 562 128 q 570 128 572 133 q 581 138 587 140 q 594 142 616 153 l 633 149 q 639 144 640 138 q 627 122 612 100 q 596 77 590 77 l 576 77 l 566 62 l 541 57 l 519 29 l 501 24 l 432 -24 l 411 -45 l 408 -27 l 390 -28 l 384 2 l 374 10 l 373 44 l 368 65 q 368 91 378 93 l 378 95 l 384 118 l 383 150 l 394 172 l 386 181 l 402 199 l 403 237 l 411 255 l 397 274 l 401 275 l 401 289 l 410 294 l 410 297 l 409 305 l 409 307 q 405 312 387 315 l 364 296 l 331 281 l 283 227 l 276 216 q 254 194 255 192 l 245 185 q 243 175 243 172 l 224 150 l 204 121 l 170 67 l 168 67 l 162 53 l 153 21 q 132 4 116 -13 l 100 -17 l 90 -34 l 83 -35 l 70 -32 q 59 -32 47 -37 l 57 -17 l 61 1 q 80 47 90 85 l 92 85 l 92 99 l 102 128 l 106 153 l 108 153 l 103 169 l 108 199 l 111 210 q 113 215 125 231 l 122 244 l 128 253 q 119 276 119 296 l 122 312 l 120 315 l 120 321 q 106 330 90 330 q 84 330 78 327 q 72 324 60 301 q 28 290 23 287 l 14 306 q 14 314 19 319 q 24 323 28 323 l 36 323 l 44 334 l 59 338 l 53 342 l 53 347 l 72 344 l 92 366 l 120 383 l 125 389 l 128 389 l 123 396 q 127 394 129 394 q 133 394 133 403 q 150 423 169 426 q 175 441 191 442 l 191 447 z"},"h":{"x_min":0,"x_max":634,"ha":634,"o":"m 321 799 l 328 804 l 339 797 l 348 799 l 355 790 l 369 794 q 379 794 385 783 l 403 749 q 403 722 387 722 l 382 722 l 360 697 l 362 692 l 357 695 q 352 684 337 683 l 337 679 q 326 693 282 711 l 276 706 l 273 711 q 266 703 260 686 q 255 682 255 678 q 255 676 257 672 q 250 666 246 658 l 246 642 q 243 628 237 615 l 235 615 q 228 598 228 581 q 222 579 222 570 q 222 565 223 563 q 221 551 217 543 l 214 543 q 205 525 205 524 l 203 527 l 203 522 q 192 500 189 484 l 183 454 l 183 431 l 185 427 q 183 423 178 418 l 176 420 l 171 409 l 171 388 l 162 372 l 162 345 l 158 327 l 158 306 l 146 254 l 144 218 q 140 218 140 215 q 140 212 144 211 l 142 195 q 147 184 158 184 l 160 191 l 178 216 l 180 216 l 180 220 q 188 228 198 245 q 208 262 217 263 l 226 277 l 230 275 q 235 281 237 286 l 239 284 l 242 295 l 246 293 l 250 303 q 251 306 256 311 l 269 322 l 298 336 l 296 338 l 339 368 l 360 379 q 366 384 373 386 l 389 377 l 405 375 l 410 372 q 412 371 414 366 q 416 361 416 361 l 416 350 l 428 325 l 425 304 l 435 284 l 437 259 l 444 227 l 428 209 l 430 200 q 457 185 457 157 l 453 141 l 462 118 l 460 95 l 464 64 q 462 62 459 58 q 456 55 455 54 q 465 45 478 39 q 483 46 489 50 q 495 53 505 64 l 514 64 l 517 69 l 522 71 l 522 76 l 535 86 q 541 89 549 95 l 566 108 q 572 108 579 115 q 585 122 589 124 l 603 125 l 605 132 l 631 124 l 629 115 l 631 97 q 616 86 613 72 l 611 74 l 606 65 l 597 60 l 595 54 q 583 51 566 49 l 566 45 q 550 37 543 37 l 540 22 l 530 16 q 519 6 504 6 q 493 -14 482 -14 l 468 -30 l 450 -32 l 450 -36 q 445 -36 421 -45 l 419 -50 l 414 -48 q 411 -59 391 -59 q 383 -59 373 -44 q 364 -30 364 -27 l 364 -23 q 360 10 360 23 l 361 28 l 357 41 l 357 66 l 344 84 l 346 100 l 341 157 l 351 193 l 330 218 q 319 230 319 254 l 317 254 q 321 261 321 264 q 321 277 303 279 l 289 272 l 280 272 l 278 263 l 276 266 q 274 244 257 241 l 257 238 q 242 229 242 220 l 243 214 q 243 211 242 209 l 235 207 l 228 191 l 221 186 q 220 171 203 159 q 200 145 187 136 q 180 116 167 104 l 160 77 l 174 66 l 158 50 l 155 50 l 149 32 l 149 16 l 144 9 l 140 -2 q 139 -5 133 -10 l 119 -23 l 114 -20 l 110 -32 l 105 -32 q 100 -43 87 -43 l 85 -59 l 76 -59 l 67 -70 l 53 -68 q 50 -73 44 -79 l 35 -66 q 42 -61 42 -53 q 42 -49 37 -41 q 41 -40 41 -36 q 42 -32 46 -16 l 44 -16 q 48 -9 48 -3 q 48 3 46 9 l 49 9 q 51 37 58 50 q 55 56 55 60 l 58 75 l 58 82 l 65 104 l 67 104 l 67 109 l 74 141 l 76 138 l 74 154 l 78 164 l 87 170 l 78 184 l 87 218 l 87 227 q 92 230 92 234 l 90 243 l 90 245 l 94 245 l 92 272 l 92 279 l 94 284 l 92 284 l 94 302 q 100 310 102 322 q 105 333 105 334 l 105 347 l 114 359 q 120 360 120 365 q 120 373 112 390 l 121 411 l 121 429 l 128 449 l 130 447 l 133 465 l 136 475 l 135 479 q 135 485 142 495 l 139 495 q 139 499 142 502 l 139 504 q 146 514 146 518 l 146 522 l 149 522 q 151 534 155 538 l 162 540 l 162 552 q 166 568 166 578 l 166 594 q 166 600 169 606 l 174 608 l 174 627 l 179 642 q 187 651 187 666 l 187 672 l 196 697 q 196 703 201 708 l 203 708 l 214 740 q 225 757 228 760 q 254 763 264 790 q 272 790 278 797 l 296 801 l 310 799 l 319 804 z"},"z":{"x_min":0,"x_max":542,"ha":542,"o":"m 284 474 l 295 474 l 300 472 l 297 468 l 304 472 l 311 472 l 343 465 l 349 461 l 347 465 l 365 468 l 388 463 l 404 468 l 406 468 l 414 466 l 428 468 l 429 463 q 448 468 458 472 q 469 468 474 461 l 493 465 q 497 445 503 438 l 499 427 l 483 420 l 463 406 l 452 386 l 422 363 l 413 361 l 409 350 l 397 347 q 392 329 379 322 l 379 316 l 363 297 l 325 270 l 309 247 l 297 247 l 295 241 q 282 227 281 220 l 261 211 l 252 197 l 243 193 l 216 157 q 200 145 197 141 q 193 136 191 129 q 173 112 166 111 q 153 94 145 86 l 141 89 l 141 79 l 107 57 l 109 30 l 122 32 l 143 25 l 152 27 l 170 18 l 179 23 q 188 17 193 5 l 202 5 l 216 11 l 229 7 l 247 7 l 261 0 l 272 7 l 281 7 l 297 2 l 304 2 l 306 -5 l 320 -5 l 320 0 l 329 2 l 343 -2 l 347 2 l 347 7 l 368 2 l 379 5 l 370 5 q 377 8 384 16 l 384 11 l 388 25 l 388 43 q 401 55 420 61 l 429 73 l 465 91 l 468 84 l 468 82 l 474 82 q 487 95 493 95 l 504 75 l 500 70 q 499 68 495 43 l 486 36 q 476 23 468 20 l 470 16 q 455 9 449 0 q 441 -1 427 -9 l 422 -23 l 415 -18 l 406 -30 l 397 -25 l 386 -36 l 380 -38 q 377 -39 365 -50 l 354 -50 l 345 -54 l 336 -50 l 315 -61 l 302 -57 l 290 -59 l 284 -54 l 263 -59 l 261 -57 l 245 -61 l 231 -61 l 225 -64 l 202 -59 l 136 -59 q 125 -62 116 -68 l 104 -59 l 82 -59 q 65 -57 59 -52 l 45 -54 l 34 -48 l 9 -48 l -9 -59 l -16 -59 l -23 -64 l -43 -45 l -45 -36 q -43 -32 -41 -16 q -32 -7 -32 2 l -32 7 l -27 5 l -25 25 l -9 41 l 34 59 l 61 75 l 57 70 l 70 75 l 75 82 l 79 79 l 79 82 l 98 95 l 125 125 l 136 132 l 138 141 l 141 136 l 150 152 l 159 157 l 161 163 l 172 170 l 175 177 l 177 177 q 182 185 202 200 l 206 197 l 213 204 q 223 227 241 236 l 247 250 l 263 254 l 272 263 l 270 281 l 296 300 q 300 302 306 311 l 311 311 l 318 322 l 318 327 l 343 352 l 349 361 l 352 370 l 356 377 l 356 386 l 345 384 l 338 404 q 328 400 325 397 l 322 404 l 315 400 l 254 400 l 250 393 l 213 395 l 209 397 l 197 397 l 191 395 l 188 395 l 179 386 l 175 386 l 172 381 l 166 381 l 157 379 l 157 375 l 147 375 l 154 365 l 152 359 l 157 343 l 152 334 l 145 331 l 138 320 l 136 325 q 125 313 116 300 l 88 291 l 77 297 l 84 311 l 82 329 l 84 345 l 91 350 l 100 347 l 107 356 l 95 384 q 100 407 111 415 l 159 449 l 168 449 l 168 454 l 197 468 l 234 468 l 247 465 l 243 470 l 265 470 z"},"B":{"x_min":0,"x_max":762,"ha":762,"o":"m 114 765 l 125 764 q 131 763 143 756 l 161 760 l 170 749 l 181 749 l 181 744 l 190 749 l 195 749 l 197 740 l 206 742 l 208 735 l 247 733 l 247 729 l 240 722 l 247 717 l 249 726 l 265 726 l 292 733 l 320 724 l 313 722 l 356 713 l 351 701 l 413 681 l 415 674 q 431 673 449 665 l 458 667 l 463 658 q 485 657 506 649 l 517 654 l 535 649 l 544 635 l 553 635 l 556 622 l 567 613 l 569 599 l 562 599 l 551 576 l 522 551 l 506 531 l 499 531 q 496 526 481 508 l 471 505 q 465 504 460 500 l 449 490 l 447 483 l 440 483 q 420 457 406 454 l 404 448 l 397 450 l 390 436 l 450 414 l 498 405 l 556 386 l 569 377 l 580 375 q 585 374 603 361 l 603 358 l 626 361 l 644 354 l 653 356 q 656 348 674 322 l 690 320 l 694 315 l 715 315 l 724 299 l 715 290 l 724 281 l 733 281 l 742 275 q 736 254 729 246 q 721 238 712 231 l 710 225 q 685 211 682 208 l 674 201 q 669 197 658 177 l 646 179 l 644 170 l 635 168 l 631 159 l 615 156 l 583 136 l 572 136 l 565 134 l 562 127 l 556 127 l 553 120 l 538 111 l 531 104 l 517 100 l 506 92 q 501 88 490 86 l 478 72 l 456 68 l 408 45 l 320 16 l 301 7 l 290 9 l 274 0 l 250 -6 q 245 -7 231 -16 l 213 -16 l 183 -39 l 167 -41 q 155 -50 149 -61 l 133 -66 l 122 -64 l 97 -77 l 72 -75 l 61 -64 l 68 -41 l 86 -25 l 81 -2 l 93 16 l 94 25 q 95 29 106 52 l 99 68 l 106 75 l 102 91 l 113 107 l 118 109 l 118 122 q 130 129 136 136 l 133 147 l 143 150 l 140 163 l 149 170 l 149 184 l 156 202 l 158 227 l 172 299 l 167 306 l 172 320 l 163 331 l 181 345 l 167 349 l 163 379 l 170 386 l 161 402 q 167 409 172 431 l 188 442 l 192 456 l 190 463 l 204 481 l 188 504 l 202 522 l 190 538 l 190 547 l 199 561 l 199 576 l 208 583 l 211 610 l 204 615 l 204 638 l 206 647 l 197 663 l 156 667 l 95 663 l 91 681 l 77 676 l 70 667 l 59 674 l 50 694 l 52 701 l 61 699 l 86 738 z m 306 624 l 292 610 l 288 599 l 280 588 q 276 582 276 567 l 276 556 l 261 533 l 265 513 l 254 508 q 251 480 245 458 q 257 454 261 449 l 290 470 q 302 475 320 485 l 338 495 l 370 506 l 376 515 l 392 517 l 422 536 l 440 542 l 444 542 l 458 554 l 460 572 l 451 570 l 435 581 l 426 586 l 419 595 l 390 610 l 374 608 l 347 617 z m 272 347 l 265 347 l 265 338 l 258 338 l 247 329 l 233 331 l 227 306 l 238 211 l 220 184 l 215 163 l 220 154 l 206 120 l 206 100 q 199 87 190 82 l 197 68 l 188 68 l 190 36 l 199 29 l 211 32 l 217 36 l 230 37 q 236 38 247 45 l 267 43 l 299 57 l 308 54 l 329 68 l 365 79 q 382 87 383 91 l 408 86 l 415 97 l 435 101 q 438 102 451 111 l 460 111 l 472 118 l 472 125 l 488 125 l 515 145 l 581 172 l 601 193 l 637 211 l 649 229 l 635 254 l 615 261 l 590 279 l 576 295 q 555 303 553 306 l 538 299 l 515 313 l 510 313 l 504 314 l 498 314 q 494 315 490 317 l 478 324 l 456 322 l 419 331 l 413 336 l 406 336 l 399 345 l 381 340 l 379 336 l 365 336 l 356 340 l 349 331 l 340 338 l 324 336 l 315 343 l 313 338 l 292 343 l 276 340 z"},"K":{"x_min":0,"x_max":884,"ha":884,"o":"m 766 660 l 775 660 l 787 649 l 784 635 l 800 626 l 784 626 l 748 599 q 730 589 703 574 l 700 567 l 680 567 l 669 549 l 650 537 l 646 533 q 630 526 623 521 q 616 515 607 503 l 598 503 q 591 491 585 488 l 578 472 l 560 465 l 545 455 q 537 449 528 447 l 519 429 l 496 417 l 489 401 l 494 394 l 469 367 l 478 354 l 473 335 l 476 320 q 483 298 485 276 l 480 274 l 480 267 l 487 272 l 501 245 l 510 224 l 521 217 l 523 213 l 539 202 l 550 187 q 555 179 569 165 l 587 156 q 589 154 607 149 l 610 145 l 630 138 q 644 127 646 127 l 712 124 l 725 122 l 746 122 l 741 124 l 759 124 l 757 129 l 778 131 l 780 138 l 803 138 l 796 145 l 796 161 l 798 179 l 800 177 l 823 204 l 830 202 q 842 202 848 208 l 843 213 l 848 224 l 864 226 l 871 238 l 877 238 l 884 222 l 880 208 l 882 202 l 877 192 l 882 186 l 875 183 q 867 171 866 163 l 859 156 l 864 154 l 859 149 l 846 120 l 843 118 l 843 108 l 834 99 l 827 95 q 823 93 816 83 l 800 81 l 800 77 l 789 74 l 780 63 l 727 52 l 701 51 l 684 55 l 664 51 l 641 60 l 607 53 l 564 69 l 561 76 l 534 71 l 514 81 q 511 82 498 96 l 477 101 l 473 111 q 471 116 455 132 l 443 135 l 430 153 l 430 166 l 416 173 l 414 185 l 407 189 l 409 194 l 396 207 l 393 223 l 380 257 l 378 265 q 377 269 368 280 l 349 286 l 339 274 l 336 258 q 335 249 331 242 l 319 224 l 319 202 l 312 192 l 317 181 l 308 177 l 312 167 l 308 143 l 312 138 l 308 131 l 312 118 l 308 106 l 305 68 l 307 57 q 308 52 317 36 l 310 -7 l 305 -12 l 305 -16 l 292 -23 l 278 -39 q 257 -50 251 -55 l 235 -46 l 244 -28 l 237 -19 l 240 -5 l 226 6 l 233 20 l 233 31 q 235 49 236 56 l 239 70 q 240 77 249 93 l 244 106 l 249 127 l 255 174 l 262 197 l 262 202 l 267 224 l 269 249 l 274 258 q 276 279 280 283 l 278 290 l 292 351 l 294 376 l 299 381 l 299 397 l 303 413 l 299 431 l 287 438 l 287 451 l 303 467 l 305 488 l 301 508 l 308 524 l 308 535 l 301 544 l 271 558 q 253 550 230 544 q 208 537 206 537 l 190 540 l 171 531 l 124 522 l 125 511 q 126 506 135 492 l 149 492 l 160 472 l 140 458 l 140 453 l 126 440 l 112 438 q 106 438 81 426 l 76 431 l 63 429 l 53 408 l 44 419 l 47 433 l 33 440 l 33 451 l 22 456 l 15 467 q 19 493 24 510 l 33 508 l 47 528 l 51 528 l 53 535 l 60 535 l 66 543 q 69 547 88 556 l 88 562 l 101 565 l 112 576 l 124 578 l 126 585 l 142 587 l 153 597 l 167 597 l 183 601 l 192 610 l 206 608 l 249 615 l 271 624 l 294 628 l 308 633 l 328 633 l 360 637 l 380 646 l 385 653 l 401 656 l 398 660 l 433 662 l 446 640 l 435 628 l 433 617 l 414 592 l 417 581 q 396 520 396 510 l 398 503 l 392 488 l 387 488 l 389 483 l 387 472 l 389 469 q 386 466 376 440 l 385 431 l 371 394 l 378 392 l 398 397 l 398 401 l 410 406 l 417 417 l 442 419 l 442 429 l 460 435 l 489 456 l 503 463 l 517 478 q 519 481 530 485 l 535 494 q 537 497 555 513 l 607 542 q 612 550 619 565 l 655 587 l 666 601 l 707 631 l 714 633 q 727 644 732 646 l 741 642 z"},"R":{"x_min":0,"x_max":689,"ha":689,"o":"m 327 692 l 352 690 l 347 674 l 365 665 l 372 672 l 377 665 l 406 658 l 415 667 l 422 656 l 438 649 l 449 649 l 456 645 l 463 651 l 474 645 l 524 636 l 529 633 q 546 633 572 636 q 584 629 608 624 l 611 613 l 606 599 l 615 581 l 570 524 l 554 518 l 493 468 l 472 454 l 406 415 l 397 406 l 388 411 l 365 397 l 356 379 l 359 347 l 377 275 l 434 191 l 458 163 l 452 150 l 472 138 l 485 129 q 488 127 492 126 l 504 125 l 522 102 l 533 102 l 549 98 l 549 104 l 561 100 l 570 100 l 586 91 l 606 86 l 636 61 l 642 61 l 647 43 l 654 39 l 654 30 l 626 9 l 604 5 l 590 9 l 590 11 l 563 18 l 529 34 l 506 54 l 491 62 q 483 66 472 77 l 458 77 l 445 93 l 434 95 l 434 100 l 415 107 l 409 104 q 391 120 388 125 l 368 127 l 365 143 l 354 152 l 331 154 l 320 168 l 306 173 l 306 179 l 327 179 q 305 184 290 191 l 284 204 l 277 207 l 275 222 l 259 238 l 277 270 l 270 277 l 250 279 l 245 297 l 229 306 l 227 302 l 213 297 l 211 281 l 200 272 l 200 259 l 193 243 l 204 229 l 197 227 q 193 201 186 184 l 188 175 l 182 168 l 184 154 l 179 154 l 182 132 l 175 95 l 175 59 l 170 52 l 166 23 l 161 0 l 159 -18 l 145 -43 l 144 -53 q 143 -57 134 -70 l 136 -73 l 123 -104 l 113 -111 l 103 -133 q 100 -138 95 -142 l 82 -154 l 82 -161 l 68 -163 l 70 -175 l 64 -193 l 27 -220 l 2 -216 l -5 -209 l -2 -204 l -7 -204 l -2 -193 l -16 -182 l -14 -161 l -20 -157 l -16 -146 q -14 -141 -2 -129 l -5 -123 q 6 -103 27 -89 l 54 -95 l 66 -95 l 64 -102 l 73 -93 l 73 -82 l 84 -77 l 84 -64 l 88 -59 l 91 -61 l 91 -39 l 98 -39 l 102 -27 l 95 -16 l 104 -2 l 109 34 l 113 34 l 113 41 l 120 45 l 113 64 l 123 77 l 129 79 l 123 107 l 127 104 l 132 123 l 129 129 l 135 152 q 136 157 145 168 l 141 186 l 147 186 l 143 202 l 145 202 l 166 302 l 179 311 l 177 325 l 184 347 l 182 356 l 184 370 l 193 375 l 191 390 l 197 397 l 195 415 l 200 429 l 191 440 l 202 447 l 202 454 l 186 463 l 182 474 l 182 477 l 175 481 l 184 493 l 168 490 l 157 478 q 150 470 144 466 l 127 456 l 109 456 l 104 468 l 93 472 l 111 506 l 132 520 q 134 527 138 533 l 145 536 q 149 542 161 554 l 150 570 l 156 583 q 159 590 161 613 l 157 620 l 163 627 l 170 629 l 174 634 q 175 636 200 651 l 202 656 q 224 667 252 676 l 263 670 l 275 674 l 281 670 l 293 683 l 306 683 l 309 690 z m 420 595 l 404 588 l 404 577 l 386 570 l 318 572 l 297 568 l 288 556 l 290 536 l 268 486 l 250 481 l 250 472 l 261 463 l 256 447 l 261 445 l 245 427 l 245 415 l 234 393 l 229 363 l 247 368 l 252 375 l 259 377 l 266 397 l 276 400 q 281 402 290 411 l 306 413 l 309 424 l 331 434 l 343 422 l 411 465 l 429 474 l 443 486 l 452 489 q 456 490 463 497 l 472 495 l 477 508 l 499 520 l 511 533 l 520 540 q 524 543 531 554 q 531 560 518 574 l 431 581 l 420 588 z"},"T":{"x_min":0,"x_max":599,"ha":599,"o":"m 655 677 l 689 697 l 709 700 l 707 670 l 688 645 l 656 629 l 650 616 l 618 602 l 613 593 l 587 583 l 552 579 l 536 575 l 525 584 l 511 579 l 516 595 l 493 598 l 486 595 l 473 600 l 459 595 l 450 600 l 436 595 q 432 582 422 564 l 413 548 l 409 518 l 379 452 l 377 445 l 367 431 q 361 423 361 407 l 361 384 l 354 366 l 343 348 l 334 314 l 341 300 l 334 268 l 329 259 l 332 248 l 325 241 l 329 237 l 325 214 l 327 207 l 320 186 l 319 165 l 308 134 l 302 96 l 272 32 l 272 25 l 279 14 l 265 2 q 263 0 247 -4 l 247 -6 l 220 -27 l 206 -25 l 202 -13 l 181 -16 l 165 -6 l 177 23 l 183 25 l 206 62 q 210 80 222 87 l 224 112 l 230 144 l 242 173 l 255 209 l 247 237 l 252 262 l 261 291 q 264 318 269 329 q 274 341 280 346 l 270 357 l 277 368 l 273 377 q 280 397 289 407 l 289 418 l 300 423 l 298 439 l 293 434 l 300 450 l 295 459 l 305 491 l 295 500 l 295 504 l 305 511 l 305 523 l 298 529 l 305 541 l 320 588 l 305 586 l 232 570 l 207 573 l 198 564 l 177 559 l 180 541 l 150 520 l 134 504 l 127 507 l 118 499 q 114 495 109 482 l 84 475 l 80 466 l 73 468 l 64 484 l 37 507 l 25 541 l 28 550 l 41 550 q 47 560 73 579 l 80 598 l 105 604 l 105 611 l 121 613 l 125 623 l 159 625 l 173 627 l 184 623 l 189 632 l 214 629 l 223 632 l 239 632 l 236 634 l 250 641 l 266 638 l 289 638 l 298 648 l 307 645 l 339 648 l 341 654 l 350 654 l 359 648 l 370 648 l 373 645 l 398 650 l 427 659 l 434 652 l 457 654 l 475 650 l 504 641 l 502 645 l 520 661 l 554 657 q 585 666 600 666 l 620 663 z"},"P":{"x_min":0,"x_max":729,"ha":729,"o":"m 243 706 l 253 699 l 352 690 l 355 688 l 452 674 l 459 658 l 470 651 l 489 661 l 493 661 l 502 665 l 511 661 l 527 661 l 534 651 l 539 658 l 561 656 l 568 649 q 601 644 609 629 l 647 624 l 645 617 l 652 611 l 661 611 l 670 605 q 675 603 693 599 l 700 590 l 718 588 l 729 558 l 720 539 q 718 536 716 518 l 722 506 l 702 470 q 698 462 691 458 q 684 453 667 444 l 654 438 l 602 402 l 529 363 l 517 362 l 506 361 q 502 361 489 354 l 480 356 l 473 348 q 470 345 448 334 l 420 329 l 398 313 l 296 284 l 291 288 l 264 277 l 255 277 l 243 261 l 243 236 l 239 213 l 239 186 l 225 175 l 230 170 l 232 161 l 228 157 l 223 127 l 228 123 l 216 109 l 225 100 l 218 91 l 216 66 l 207 57 l 209 45 l 196 16 l 196 -7 l 171 -59 l 162 -73 q 157 -79 150 -98 l 141 -102 l 141 -111 l 75 -177 l 37 -197 l 21 -197 l 19 -202 l 1 -202 l -11 -193 q -9 -176 -4 -168 q -11 -156 -20 -150 l -11 -136 l 19 -111 l 32 -107 l 50 -107 l 62 -125 q 96 -99 100 -86 l 110 -82 l 107 -75 l 116 -59 l 121 -57 l 123 -48 l 130 -43 l 132 -36 l 132 -16 l 146 -7 l 141 -2 l 153 14 l 153 20 l 159 41 l 162 58 q 164 66 171 79 l 166 84 l 173 89 l 166 95 l 175 98 l 171 104 l 182 150 l 182 166 l 189 184 l 180 191 l 189 193 l 198 216 l 178 247 l 173 270 l 173 277 l 178 288 l 203 306 q 208 317 209 318 l 205 327 l 207 338 l 209 340 l 209 363 l 196 372 l 200 377 l 198 397 l 205 409 l 200 415 l 191 415 l 198 434 l 203 436 l 196 440 l 191 461 l 182 463 l 189 472 l 182 481 l 182 493 l 175 497 q 178 503 180 513 l 169 520 l 144 502 l 144 495 l 125 481 l 112 468 l 87 456 l 53 424 l 44 434 l 44 440 l 35 447 l 37 456 q 37 459 50 484 l 71 502 l 80 513 l 116 533 l 121 543 l 130 543 q 142 553 148 554 l 155 563 q 182 576 184 579 l 184 586 l 176 600 q 173 606 157 622 l 153 642 l 157 651 l 184 656 q 204 682 225 695 z m 377 604 l 359 595 l 334 597 l 318 595 l 302 597 l 291 556 l 296 547 l 293 531 l 296 522 l 287 508 l 289 463 l 282 436 l 287 424 l 284 406 l 287 397 l 277 379 l 277 347 q 304 343 318 336 l 341 345 l 357 345 l 366 352 l 414 363 l 559 424 l 566 431 q 570 434 586 440 l 586 443 l 602 449 l 632 474 l 643 495 q 626 524 607 538 l 602 538 l 554 574 l 523 579 l 514 588 l 489 590 l 470 588 l 466 597 l 452 602 l 425 590 l 407 597 l 393 592 z"},"|":{"x_min":0,"x_max":500,"ha":500,"o":"m 219 764 l 281 764 l 281 -236 l 219 -236 z"},"t":{"x_min":0,"x_max":452,"ha":452,"o":"m 316 573 q 316 563 300 537 l 300 528 l 289 503 l 289 487 l 275 453 l 275 448 q 275 437 282 437 l 298 442 q 313 433 323 433 l 345 433 q 375 441 391 441 q 409 441 430 438 l 430 435 l 448 433 l 465 413 l 449 393 l 421 389 l 393 374 l 382 372 q 377 371 366 364 l 336 367 q 333 363 309 362 l 259 360 q 237 345 230 337 l 232 312 l 225 301 l 221 265 l 209 249 l 207 206 l 195 199 l 193 187 l 200 162 l 191 72 l 211 -6 l 234 4 q 240 17 259 17 l 268 17 q 292 25 304 44 l 327 51 l 324 53 l 331 62 q 340 69 343 74 l 357 79 l 361 88 q 368 88 368 95 q 377 110 411 120 q 418 117 418 111 q 418 102 409 78 q 400 53 386 43 l 359 24 l 351 13 q 346 6 339 3 l 322 -5 l 308 -9 l 279 -35 l 261 -37 l 239 -55 l 229 -64 q 227 -67 219 -70 l 157 -94 l 143 -96 l 132 -105 l 109 -90 l 102 -60 l 95 -44 q 92 -37 75 60 q 76 63 84 77 l 84 94 l 96 99 l 111 140 l 106 154 q 126 158 128 160 q 130 162 130 164 q 130 166 125 176 l 141 224 l 146 267 l 168 326 q 166 337 154 347 q 142 358 130 360 l 111 348 l 105 348 q 91 348 85 352 q 79 355 78 355 q 74 355 67 350 q 62 340 55 340 l 53 340 q 51 339 45 339 q 40 339 26 341 q 16 368 16 374 q 16 380 23 396 q 30 412 38 412 l 45 411 l 59 415 q 73 419 78 419 l 81 419 q 83 418 87 418 q 92 418 95 420 q 99 422 104 422 q 110 422 113 420 l 131 429 l 136 429 q 144 429 149 431 q 155 433 164 451 l 175 449 q 176 459 187 478 q 196 479 196 492 l 196 498 l 193 494 q 200 513 205 523 l 202 542 l 223 582 q 232 595 246 598 q 256 613 279 627 q 302 641 309 641 q 326 641 330 626 l 316 598 z"},"M":{"x_min":0,"x_max":908,"ha":908,"o":"m 313 661 l 319 658 l 333 636 l 344 592 l 334 596 q 353 555 354 503 l 365 490 l 360 459 l 367 454 l 372 422 l 379 415 l 379 384 l 388 370 l 382 356 q 385 348 395 334 l 395 311 l 391 300 l 410 287 l 419 265 l 430 267 q 435 268 449 277 l 458 277 l 458 281 l 479 313 l 483 313 l 481 320 l 517 359 l 526 377 q 530 376 553 397 l 558 395 l 560 401 q 560 404 569 414 q 577 423 580 426 q 592 441 608 445 l 612 461 l 606 479 l 608 493 l 617 497 l 612 508 q 628 519 631 524 l 633 543 l 640 549 l 644 563 l 649 563 l 649 577 l 660 588 q 676 595 701 608 q 717 622 733 629 l 746 606 l 753 611 l 765 606 l 760 597 l 769 558 l 753 536 l 742 536 l 735 515 l 724 497 l 721 472 l 717 449 l 721 422 l 710 409 l 708 396 q 708 390 701 379 l 701 372 l 703 359 l 701 350 l 710 297 l 706 286 l 708 263 l 737 186 l 792 79 l 796 57 l 796 54 l 799 43 l 812 43 l 821 52 l 821 48 l 839 59 l 842 48 l 853 39 l 842 11 l 819 -2 l 812 -16 l 776 -27 l 765 -43 l 742 -52 l 737 -50 l 726 -27 l 721 -32 l 710 -30 l 701 -39 l 690 -36 l 685 -30 q 692 -21 699 -7 l 674 61 l 665 68 l 644 120 l 635 157 l 610 216 l 610 222 l 601 252 l 596 262 q 594 266 591 286 l 576 377 l 517 302 l 474 236 l 469 222 l 458 216 l 469 197 l 467 179 l 474 175 l 463 161 q 460 154 444 136 l 444 127 q 432 113 426 104 l 415 111 l 397 91 l 386 83 q 381 79 374 69 q 367 59 365 54 l 351 52 q 343 65 336 89 l 341 95 l 336 107 l 336 143 l 338 159 l 331 175 l 333 177 l 326 193 l 317 259 l 310 275 l 312 293 q 311 296 310 300 l 305 313 q 303 316 300 322 q 296 328 290 336 l 272 331 l 265 318 l 265 304 l 238 216 l 224 197 l 208 143 l 208 138 l 192 111 l 202 98 l 194 83 q 190 75 183 70 l 181 54 l 165 45 l 168 39 l 163 34 l 165 16 l 149 -2 l 152 -14 q 142 -23 140 -30 l 129 -36 l 118 -59 l 88 -73 l 70 -84 l 63 -98 l 34 -111 l 22 -107 l 11 -109 l 0 -102 l 6 -95 l 31 -91 l 25 -61 l 31 -59 l 36 -50 l 29 -43 l 31 -25 q 63 -13 65 -2 q 88 11 109 16 l 115 39 l 122 52 l 126 74 q 127 79 130 84 l 140 98 l 136 107 l 143 134 l 152 141 q 153 152 163 175 l 158 184 l 168 200 l 168 207 l 172 213 l 170 222 l 177 236 l 192 304 l 199 309 l 204 325 l 197 329 l 204 347 l 202 377 l 204 384 l 202 404 l 211 420 l 197 447 l 204 468 l 197 481 q 202 501 206 508 l 195 533 q 180 528 161 513 l 156 515 l 127 497 l 111 484 l 84 468 l 63 465 l 47 502 l 54 504 l 52 511 q 69 520 79 531 l 84 531 q 89 536 120 556 l 120 561 l 136 561 l 177 586 l 183 586 l 188 595 l 190 590 l 195 597 l 211 597 l 261 627 q 274 638 277 641 l 283 645 q 286 647 301 649 z"},"g":{"x_min":0,"x_max":482,"ha":482,"o":"m 300 -269 l 300 -282 l 295 -285 l 297 -298 l 286 -300 l 284 -312 l 288 -321 l 284 -332 l 286 -341 l 270 -387 l 268 -384 q 258 -410 257 -414 l 227 -443 l 220 -455 l 220 -464 l 216 -464 l 211 -475 l 209 -473 l 202 -489 l 191 -493 l 179 -513 q 177 -516 161 -525 l 155 -541 l 137 -550 q 134 -552 124 -565 l 113 -567 l 99 -565 l 93 -574 q 82 -581 73 -588 q 64 -595 61 -606 q 45 -611 40 -615 l 34 -611 l 36 -608 l 22 -599 l 20 -588 q 23 -579 38 -556 l 56 -554 q 61 -543 68 -533 q 95 -527 114 -521 l 124 -503 q 155 -480 167 -469 l 173 -475 l 171 -463 q 187 -439 195 -434 l 193 -428 q 196 -421 214 -412 l 209 -403 l 214 -382 l 227 -366 q 229 -361 236 -357 l 248 -289 q 250 -289 262 -261 l 265 -238 l 273 -220 l 273 -209 l 275 -200 l 271 -191 l 271 -182 l 266 -177 l 268 -166 l 266 -159 l 273 -157 l 268 -138 l 271 -127 l 277 -123 l 273 -107 l 280 -104 l 273 -86 q 271 -67 268 -66 l 273 -57 l 259 14 l 262 30 l 253 107 l 241 114 l 230 109 l 228 111 l 223 104 l 214 104 l 214 93 l 200 89 q 189 83 178 82 l 173 75 l 137 18 l 100 -34 l 89 -43 l 85 -41 l 85 -50 l 75 -61 l 69 -61 l 60 -64 l 60 -73 l 41 -77 l 41 -79 l 35 -77 l 28 -82 l 23 -73 l 28 -59 l 19 -52 l 26 -45 l 21 -41 l 23 -32 l 14 -30 l 16 -25 l 14 -16 l 14 -2 l 19 5 q 14 30 12 32 l 16 36 l 14 43 l 16 54 l 16 68 l 10 70 l 14 77 l 10 91 l 12 91 l 10 98 q 14 102 16 109 l 21 111 l 21 123 q 29 145 30 148 l 23 148 l 26 154 l 30 154 l 41 195 l 49 213 q 53 222 55 236 l 64 247 q 70 281 82 293 l 114 325 l 128 329 q 132 340 153 356 l 180 377 q 186 381 194 384 l 196 390 l 209 390 l 221 402 q 240 410 241 413 l 264 415 l 280 418 l 289 418 l 291 420 l 298 415 l 298 418 l 309 415 l 312 420 l 325 415 l 334 418 l 337 409 l 343 411 l 348 409 l 346 406 l 355 409 l 359 400 l 357 393 l 368 386 q 374 367 375 356 l 377 354 l 393 359 l 396 370 l 409 375 l 418 375 l 432 361 l 407 322 l 393 320 l 380 302 l 373 302 l 377 277 l 375 263 l 368 161 l 364 138 l 364 129 l 350 111 l 355 79 l 352 66 l 348 64 l 355 54 l 348 54 l 343 27 l 348 14 l 341 9 q 333 -18 332 -32 l 327 -36 l 327 -43 l 321 -45 l 325 -59 q 325 -86 318 -95 q 323 -117 330 -134 l 318 -136 l 314 -148 l 309 -148 l 316 -157 l 312 -166 l 309 -166 l 314 -175 l 318 -200 l 316 -209 l 321 -227 l 316 -236 l 309 -236 z m 257 336 l 248 329 l 239 331 l 234 327 l 218 327 l 212 331 l 205 325 l 198 325 q 188 316 180 316 l 171 316 l 148 286 q 137 267 134 266 l 137 254 l 130 238 l 130 236 l 116 234 l 116 202 q 110 188 110 168 q 110 146 119 127 l 114 100 l 121 91 l 130 91 l 137 102 q 163 124 164 127 q 172 129 198 150 l 205 145 q 221 169 243 170 l 255 184 l 246 213 q 256 227 257 229 l 273 238 l 282 254 l 287 259 l 289 266 l 298 275 l 298 284 q 287 308 284 311 l 284 318 z"},"j":{"x_min":0,"x_max":392,"ha":392,"o":"m 282 745 l 280 747 l 289 747 q 306 747 312 740 q 318 733 321 717 l 332 708 l 339 708 q 339 697 342 690 l 339 690 l 339 686 l 335 686 l 337 683 l 326 674 l 330 674 l 330 661 l 332 661 q 331 648 321 645 l 321 640 l 314 636 l 312 638 l 310 633 l 307 633 l 303 629 l 301 633 q 297 629 291 629 q 286 629 282 633 q 267 632 267 622 q 258 622 258 617 l 242 611 l 235 622 q 228 629 228 636 q 228 645 242 663 l 246 661 l 251 672 l 248 672 l 248 688 q 258 690 258 706 q 264 712 264 720 l 258 738 q 258 745 262 747 q 267 750 269 749 z m 273 354 l 273 340 q 271 323 269 310 q 267 297 267 293 l 267 291 l 269 277 l 262 257 l 258 257 l 262 232 l 258 204 l 264 184 q 255 173 255 168 l 258 154 l 255 154 l 255 152 l 258 152 l 258 150 l 253 148 q 255 146 255 144 q 255 142 253 136 q 251 131 251 127 q 251 121 255 116 q 248 116 248 107 l 251 107 l 251 103 q 251 98 248 93 q 252 89 252 85 q 252 82 246 79 l 251 73 q 241 60 241 50 q 241 44 242 41 q 233 40 233 30 l 233 27 q 235 20 235 8 q 235 0 230 -11 q 220 -21 220 -39 q 220 -49 221 -54 l 214 -70 l 212 -70 l 212 -79 q 212 -101 201 -125 l 169 -195 q 160 -204 160 -213 l 158 -213 q 162 -218 162 -226 q 162 -230 155 -244 q 147 -258 144 -261 q 125 -287 124 -306 q 124 -308 118 -315 q 112 -323 110 -334 l 108 -331 l 108 -336 q 100 -350 96 -357 q 92 -363 87 -381 l 80 -386 l 80 -393 l 62 -415 l 60 -422 l 28 -463 l 17 -470 l 15 -468 l -2 -497 q -14 -501 -15 -513 q -36 -514 -47 -533 q -57 -533 -61 -540 l -74 -542 l -77 -551 q -107 -561 -120 -572 l -122 -569 l -124 -572 l -127 -569 l -131 -572 l -134 -569 q -137 -569 -143 -577 q -150 -585 -161 -585 l -168 -583 l -183 -593 l -186 -585 q -204 -574 -208 -565 l -222 -567 l -213 -558 l -211 -540 q -203 -533 -197 -531 l -188 -535 l -174 -533 l -177 -538 l -161 -531 l -127 -526 l -104 -517 l -102 -517 q -70 -509 -59 -492 q -15 -474 -15 -452 q 6 -449 6 -436 l 6 -434 q 7 -435 10 -435 q 15 -435 21 -427 q 18 -420 12 -420 q 17 -419 24 -411 l 19 -413 q 28 -401 37 -397 l 42 -381 l 58 -370 l 56 -359 l 67 -350 q 72 -328 87 -311 l 83 -300 l 94 -286 l 99 -259 l 105 -250 l 110 -238 q 112 -232 124 -220 l 119 -209 l 121 -197 q 131 -183 137 -168 q 137 -156 144 -145 l 144 -132 l 153 -123 l 151 -107 q 155 -100 158 -86 l 155 -84 q 166 -78 167 -66 l 162 -66 l 164 -51 q 164 -45 174 -20 l 164 -5 l 176 20 l 171 34 l 180 59 q 174 69 174 80 q 174 83 180 107 l 169 116 l 169 132 l 167 132 q 162 157 146 173 l 151 173 l 151 177 l 160 195 q 158 203 158 206 q 158 210 160 216 l 151 232 l 160 261 l 158 279 l 161 288 q 164 298 167 302 l 164 302 l 162 311 q 153 305 140 305 q 133 305 130 306 l 115 302 l 99 309 l 85 304 l 80 297 q 80 301 78 301 q 76 301 74 293 l 71 295 l 62 288 q 61 275 53 275 l 51 275 q 48 264 42 263 l 37 266 l 37 263 q 34 260 30 260 q 26 260 24 261 q 20 259 17 259 q 8 259 -4 279 l -1 284 l -6 284 l -6 293 l -4 293 q -4 300 1 304 q 1 313 8 316 l 10 320 l 28 329 l 35 338 l 49 346 q 56 350 76 368 l 76 365 q 94 377 108 381 l 108 377 l 115 381 l 115 377 l 124 386 l 124 384 l 135 384 l 135 381 q 150 381 164 388 l 171 390 l 178 390 l 189 381 l 190 387 l 208 397 l 208 400 l 217 402 q 226 403 226 409 l 228 409 q 239 424 258 424 q 279 424 279 409 l 276 390 l 278 370 z"},"i":{"x_min":0,"x_max":355,"ha":355,"o":"m 302 675 l 299 675 l 281 636 l 279 638 q 279 633 274 629 l 274 627 q 263 610 247 602 l 243 604 l 243 600 q 224 603 214 608 q 203 614 198 627 q 193 640 188 654 q 195 664 200 666 l 204 679 l 220 688 l 229 707 l 245 716 l 245 713 l 254 709 q 257 711 259 712 q 260 713 262 715 q 264 717 273 719 q 283 721 288 724 l 293 727 l 297 727 l 304 716 l 304 700 l 306 686 z m 231 389 l 229 389 l 225 364 l 229 361 l 222 343 l 220 346 l 220 339 q 220 317 202 298 l 206 298 l 206 289 l 204 289 l 206 232 l 202 225 l 204 216 l 197 180 l 199 180 q 199 170 194 152 l 190 139 l 184 74 q 182 64 182 63 q 182 54 190 54 q 199 54 210 62 l 242 83 q 255 99 261 99 l 264 99 q 272 103 280 112 q 287 122 291 123 q 298 136 304 136 q 305 136 308 135 q 312 134 326 132 l 330 118 q 330 107 322 93 q 314 78 310 69 q 305 59 289 53 l 289 50 l 282 52 l 282 45 l 278 45 q 276 32 264 30 l 264 27 l 251 27 l 251 25 l 246 25 l 233 16 l 229 16 l 222 7 l 202 4 q 199 -2 193 -2 l 168 -20 l 168 -24 l 156 -22 l 159 -27 l 143 -31 l 143 -33 l 136 -33 l 136 -40 l 129 -45 l 127 -45 l 127 -47 q 121 -65 109 -65 l 102 -63 q 96 -45 82 -27 q 86 -11 86 -4 l 82 16 l 82 27 q 82 42 85 58 l 88 71 l 88 73 l 87 73 q 86 73 86 74 q 86 75 91 90 q 95 104 95 128 q 95 134 91 135 l 97 148 l 97 207 l 105 224 q 109 232 113 255 q 119 259 120 262 l 116 268 l 120 278 q 112 293 102 293 l 79 293 q 75 289 75 284 l 72 284 q 69 271 59 268 q 57 255 45 253 l 36 239 l 34 239 q 31 228 22 228 q 12 228 6 242 q 0 256 0 258 q 0 260 2 262 q 7 284 32 298 l 32 302 q 43 312 54 318 l 50 318 q 71 322 74 340 q 78 357 100 357 l 106 355 l 118 361 l 111 361 l 122 368 l 125 366 l 134 377 l 136 375 q 142 389 163 389 q 168 389 168 393 l 168 398 l 172 398 l 170 400 l 186 411 q 194 425 211 425 q 222 425 230 419 q 238 413 238 407 q 238 401 231 389 z"},"y":{"x_min":0,"x_max":649,"ha":649,"o":"m 368 -284 l 373 -305 q 360 -325 356 -340 q 352 -355 345 -370 q 339 -385 339 -391 l 325 -409 l 316 -441 l 295 -470 l 277 -522 l 259 -540 l 253 -569 q 253 -569 247 -579 q 241 -588 235 -592 q 229 -596 220 -596 l 212 -595 l 190 -568 q 207 -556 213 -538 q 224 -530 225 -520 q 229 -506 236 -506 l 238 -506 q 245 -501 245 -497 l 245 -495 l 241 -490 q 251 -472 253 -471 l 255 -461 q 256 -457 271 -439 q 274 -408 284 -395 q 293 -382 298 -364 l 302 -364 l 309 -339 q 321 -329 321 -319 l 321 -305 l 325 -307 q 325 -299 327 -291 q 329 -284 329 -282 l 329 -281 l 345 -227 l 368 -166 l 374 -145 l 381 -138 q 392 -117 395 -116 l 397 -84 l 402 -82 l 402 -70 l 406 -66 l 406 -61 q 417 -37 420 -32 l 415 -19 q 422 4 427 11 l 431 11 l 429 27 l 431 39 l 427 54 l 442 70 l 442 134 l 440 163 l 442 179 l 424 241 l 422 234 l 415 236 l 395 216 l 388 216 l 383 207 l 379 207 l 379 202 l 370 200 l 363 182 q 347 168 345 166 q 343 163 340 148 l 327 143 l 321 135 q 318 132 306 125 l 304 116 l 293 111 l 288 100 l 274 95 l 265 78 q 263 75 249 66 l 243 54 q 229 45 218 34 l 213 36 l 209 25 l 204 25 l 200 18 l 186 18 l 184 9 q 170 1 168 -2 l 165 0 l 159 -7 q 149 -8 143 -14 l 138 -9 l 131 -16 l 120 -18 l 106 -9 l 97 -9 l 91 -2 l 93 54 l 91 134 l 91 145 q 104 154 106 163 l 104 175 q 104 183 111 191 l 109 220 l 118 236 l 116 261 q 116 270 122 279 l 118 313 l 122 316 l 120 331 l 104 343 q 95 336 86 316 l 66 308 q 63 306 54 295 q 44 293 38 288 l 20 313 l 22 329 l 25 322 l 32 329 l 27 329 l 36 336 q 42 346 48 352 q 54 357 75 361 l 77 368 l 77 352 l 82 375 l 134 411 l 177 445 l 197 452 l 227 470 l 238 470 l 246 466 q 249 465 261 449 l 243 427 l 245 420 l 240 411 l 238 379 l 229 338 l 231 336 l 227 327 l 222 325 l 225 316 l 220 284 l 209 270 l 206 173 l 209 154 l 204 145 l 213 104 l 220 104 l 240 127 l 243 134 l 252 136 l 263 150 l 270 152 l 281 163 l 293 173 l 306 177 l 331 209 l 356 227 l 381 259 l 386 259 l 433 304 l 442 316 l 445 311 l 445 347 l 447 363 l 452 368 l 449 368 l 451 378 q 452 384 455 387 l 463 397 l 470 397 l 482 410 q 486 413 491 415 q 497 417 504 420 l 517 420 l 524 424 l 529 411 q 543 419 549 420 l 554 429 l 563 434 l 563 440 l 572 434 l 576 424 q 563 397 563 388 q 570 384 579 381 l 579 375 l 570 370 q 562 352 558 347 l 560 325 l 556 316 l 558 306 l 554 286 l 547 284 l 542 268 l 547 254 q 524 216 524 207 l 524 200 l 520 195 q 514 169 511 168 l 511 161 l 513 159 l 501 150 l 499 116 l 504 103 l 499 79 l 492 66 l 492 57 l 481 30 l 476 32 l 472 23 l 471 15 q 470 11 463 0 l 467 -9 l 463 -20 l 458 -19 l 465 -27 l 463 -36 l 463 -45 l 452 -48 l 454 -52 q 444 -67 440 -89 l 436 -93 l 433 -111 q 420 -124 420 -132 l 422 -152 l 417 -157 l 411 -157 l 413 -179 l 402 -188 l 404 -197 q 390 -216 390 -227 l 390 -232 l 386 -241 l 386 -250 l 374 -263 z"},"@":{"x_min":0,"x_max":986,"ha":986,"o":"m 581 164 q 521 61 430 61 q 370 61 332 106 q 295 151 295 225 q 295 325 370 408 q 445 491 532 491 q 619 491 640 396 l 666 484 l 736 484 l 653 186 q 644 155 644 133 q 644 110 656 96 q 669 83 690 83 q 729 83 780 123 q 832 163 862 230 q 893 298 893 382 q 893 518 797 601 q 701 685 558 685 q 368 685 248 562 q 128 438 128 247 q 128 79 244 -16 q 361 -112 528 -112 q 688 -112 827 -11 l 842 -29 q 696 -137 522 -137 q 317 -137 194 -25 q 71 87 71 262 q 71 445 208 577 q 346 709 545 709 q 714 709 815 617 q 916 526 916 374 q 916 247 844 154 q 772 61 682 61 q 587 61 581 164 z m 618 367 q 618 413 595 442 q 571 471 536 471 q 471 471 418 365 q 366 260 366 183 q 366 138 386 111 q 406 85 439 85 q 508 85 563 183 q 618 281 618 367 z"},".":{"x_min":0,"x_max":300,"ha":300,"o":"m 106 123 l 163 85 l 174 66 q 189 56 192 52 q 195 48 195 38 l 170 7 q 166 1 161 -6 q 157 -12 147 -24 l 127 -27 l 106 -52 l 104 -52 l 97 -49 l 93 -43 l 84 -20 l 68 -6 l 52 12 q 20 23 20 37 q 20 52 29 66 l 34 66 l 34 73 l 36 71 q 41 91 56 91 l 61 89 l 68 97 q 72 100 79 116 l 90 121 l 106 119 z"},"p":{"x_min":0,"x_max":539,"ha":539,"o":"m 256 313 q 269 331 292 340 l 292 343 l 315 359 l 317 356 l 317 361 l 321 363 l 324 361 l 358 386 l 360 384 l 371 395 l 385 397 l 387 402 l 405 409 l 433 409 l 446 413 q 471 397 471 379 l 473 377 l 478 345 l 476 345 q 472 336 469 329 q 467 323 458 304 q 463 295 467 291 l 458 286 l 467 272 l 462 227 l 462 207 l 453 186 l 453 170 l 442 143 q 444 141 444 139 q 444 135 437 125 l 439 125 l 419 75 l 387 41 l 383 30 l 367 25 q 363 19 358 14 q 353 8 345 2 q 338 -5 332 -6 l 315 -9 l 290 -36 l 267 -43 q 262 -45 257 -50 l 244 -64 l 201 -70 l 160 -102 l 135 -102 l 124 -138 l 117 -168 l 115 -191 q 101 -226 99 -232 l 90 -263 l 83 -279 l 81 -302 q 71 -318 65 -335 q 59 -353 53 -367 q 47 -381 47 -388 l 33 -406 l 24 -438 l 3 -467 l -15 -519 l -33 -537 l -39 -566 q -39 -566 -45 -576 q -51 -585 -57 -589 q -63 -593 -72 -593 l -80 -592 l -102 -565 q -89 -562 -79 -535 q -68 -527 -67 -517 q -62 -503 -56 -503 l -54 -503 q -47 -498 -47 -494 l -47 -492 l -51 -487 q -41 -469 -39 -468 l -37 -458 q -36 -454 -21 -436 q -18 -404 -8 -391 q 1 -377 6 -361 l 10 -361 l 17 -336 q 29 -326 29 -316 l 29 -302 l 33 -304 l 29 -284 q 29 -278 33 -270 l 38 -268 q 46 -237 49 -216 l 60 -204 l 58 -191 q 58 -190 61 -182 q 63 -174 65 -152 l 69 -152 q 76 -133 76 -123 q 76 -110 77 -107 q 78 -104 90 -89 l 94 -52 l 101 -20 l 106 79 l 113 93 l 101 116 l 101 138 l 99 157 l 103 184 l 92 234 l 92 254 l 81 257 q 80 257 54 234 l 40 236 l 22 211 q 19 209 15 209 q 8 209 7 219 q 5 229 1 245 q 8 248 10 254 l 15 252 q 20 272 38 284 l 76 309 l 78 316 l 90 316 l 101 329 q 112 329 115 340 l 117 338 l 117 354 q 131 363 131 379 l 133 379 l 156 402 l 160 402 q 176 402 181 413 l 192 415 q 210 415 212 411 q 223 395 231 386 l 224 372 l 231 356 l 206 279 q 213 272 215 272 q 219 272 219 277 l 237 301 q 247 313 255 313 z m 360 195 q 359 201 354 217 q 350 232 350 241 l 353 259 l 353 281 q 356 290 356 298 l 355 306 q 355 318 344 318 l 340 316 l 326 297 q 323 295 319 292 q 316 289 299 280 q 281 271 270 262 q 259 254 251 243 l 211 186 q 206 177 200 173 l 183 161 l 181 150 l 178 150 q 178 140 183 132 l 172 109 l 167 57 l 147 43 q 146 38 146 30 q 146 18 151 9 q 147 0 147 -9 q 147 -20 156 -20 q 167 -20 187 5 q 197 -2 205 -2 q 210 -2 214 2 q 218 5 233 14 l 231 16 l 237 16 l 235 18 l 251 23 l 251 25 l 256 25 l 265 32 l 265 34 l 269 34 l 269 36 l 283 39 q 288 57 310 66 q 312 70 319 73 l 328 91 q 338 123 349 141 l 346 157 l 355 173 l 353 186 z"},"X":{"x_min":0,"x_max":645,"ha":645,"o":"m 563 697 l 581 690 l 599 690 l 615 667 l 615 654 l 604 629 l 608 620 l 599 599 l 583 590 l 583 577 l 538 518 l 525 497 q 522 493 511 486 l 499 488 l 492 477 l 497 472 q 490 465 478 449 l 468 436 l 406 377 l 397 363 l 389 360 q 386 359 370 343 l 374 313 l 429 257 l 443 236 l 517 170 l 538 123 l 552 116 l 553 106 q 554 102 561 93 l 538 68 l 538 59 l 499 30 l 468 11 l 433 64 l 415 86 l 413 114 l 404 127 l 359 163 l 349 177 l 339 188 q 334 193 327 207 l 311 216 l 304 234 l 284 241 l 247 207 l 238 204 q 226 191 222 179 l 204 179 l 202 159 l 188 148 l 107 45 l 104 23 l 111 7 l 91 -11 l 75 -18 l 20 -66 l 2 -45 l 2 -23 l 0 -18 l 20 11 l 32 25 q 46 51 66 57 l 61 57 q 65 63 69 69 q 73 74 76 80 q 80 86 87 94 q 95 102 99 108 l 109 125 l 134 132 l 141 154 l 157 163 l 159 177 l 179 182 l 179 195 l 197 218 l 204 220 l 209 234 l 216 238 l 227 261 l 238 268 l 254 295 l 250 318 l 229 340 q 221 359 216 361 l 218 370 l 209 386 l 211 406 q 202 423 195 431 l 195 452 l 188 456 l 191 465 l 184 493 l 172 493 l 172 497 l 168 490 l 152 490 l 143 497 l 141 493 l 138 499 l 120 481 l 104 481 q 81 473 68 470 l 59 454 l 45 449 l 29 459 l 25 479 l 36 486 l 48 500 q 50 502 54 515 l 79 527 l 79 531 l 90 532 q 95 533 113 543 l 113 547 l 127 545 l 125 549 l 134 549 l 143 554 l 147 549 l 152 556 l 172 561 q 186 574 206 590 l 222 597 l 234 597 l 229 611 l 236 620 l 245 615 l 247 611 l 256 611 l 265 617 l 284 617 l 297 588 l 300 558 l 304 549 l 302 540 l 309 511 l 306 504 l 327 429 l 324 409 l 331 395 q 334 388 345 377 l 356 379 l 361 390 l 365 388 l 368 397 l 381 402 l 384 418 q 391 422 395 427 l 418 454 l 438 470 l 436 474 l 447 490 l 471 512 q 478 526 481 527 l 488 556 l 488 570 l 499 581 l 497 597 l 495 599 l 488 597 l 472 604 l 465 599 l 438 622 l 438 636 l 461 656 l 472 661 q 499 679 517 686 l 515 681 l 523 688 q 527 690 552 695 l 556 692 l 558 697 z"},"*":{"x_min":0,"x_max":652,"ha":652,"o":"m 261 763 l 267 751 q 266 748 266 741 q 266 721 295 688 l 317 663 q 322 668 324 672 l 326 670 q 331 682 331 688 q 331 695 325 704 l 325 720 l 326 733 l 331 731 l 333 738 l 335 735 l 340 740 l 345 740 l 349 745 q 357 747 360 747 q 366 747 383 724 l 374 715 q 376 703 379 699 l 367 686 l 369 674 l 365 647 l 365 642 q 372 638 377 638 q 384 638 385 645 q 387 644 389 644 q 391 644 394 648 q 396 652 399 654 q 400 666 410 667 q 417 676 426 676 l 429 681 q 431 688 438 695 l 433 697 l 453 711 l 458 711 l 458 724 l 465 726 l 467 733 l 472 735 l 474 742 q 479 742 483 740 l 488 742 l 488 745 q 500 739 510 726 l 499 714 q 494 708 478 697 l 453 681 l 438 661 l 422 654 l 401 631 l 381 624 l 381 617 q 381 588 406 588 q 423 588 440 602 l 463 597 l 474 604 q 479 608 492 608 q 505 608 520 612 l 533 617 l 542 617 l 542 620 l 565 624 q 567 624 577 618 q 586 613 587 608 q 584 597 572 586 l 508 579 l 483 586 l 451 574 l 431 574 q 422 570 419 561 l 424 556 q 434 541 447 527 l 492 479 q 500 470 519 456 q 528 452 542 440 l 522 424 q 519 422 508 404 l 481 411 l 494 420 l 497 429 l 485 454 l 467 465 l 456 488 l 433 515 l 422 518 q 417 535 398 548 q 380 561 369 561 q 364 561 354 549 l 345 472 l 342 472 l 335 461 l 338 445 q 330 428 329 420 l 331 420 l 320 409 l 326 388 q 326 380 315 367 q 304 354 292 354 q 279 354 265 377 q 265 394 274 409 l 276 409 l 276 427 q 282 429 283 445 l 285 445 l 299 461 q 306 501 306 503 q 306 507 303 520 q 300 533 288 533 q 287 533 279 531 l 267 515 l 226 481 l 215 479 l 204 466 l 172 439 l 154 432 l 141 398 q 138 391 131 386 q 124 382 120 382 q 110 382 104 390 q 97 398 97 403 q 97 415 113 425 l 119 425 l 119 428 l 122 428 l 125 430 l 125 434 q 132 443 136 443 l 144 443 l 141 446 l 145 446 q 167 455 172 462 l 172 466 q 186 469 194 482 q 200 484 204 490 q 213 490 213 499 l 247 524 l 249 520 q 250 529 258 529 l 258 531 q 274 548 274 563 q 274 567 270 570 l 251 565 l 242 574 q 228 573 216 569 q 203 565 186 564 q 168 562 167 563 l 136 572 l 120 565 l 106 586 l 108 590 l 111 588 l 108 595 l 113 597 l 111 599 q 120 607 131 608 l 127 608 q 130 611 138 613 q 147 610 154 606 q 162 596 167 596 l 170 597 l 177 597 l 192 595 l 199 595 q 224 595 258 583 l 261 590 l 263 588 l 274 595 q 280 591 283 588 l 308 595 l 308 592 q 312 591 322 606 l 315 624 l 315 638 q 309 644 301 646 q 292 648 288 658 q 279 658 277 665 q 274 671 274 672 l 274 673 q 274 680 261 687 q 249 695 240 704 q 239 714 235 722 q 231 731 231 744 q 231 758 236 765 l 238 765 l 238 767 q 238 770 241 770 l 242 770 z"},"Y":{"x_min":0,"x_max":733,"ha":733,"o":"m 285 665 l 297 659 q 305 656 308 652 l 317 640 l 310 636 l 303 608 l 287 581 l 292 577 l 278 563 l 278 554 l 271 545 l 271 529 l 258 511 l 244 454 l 235 445 l 235 422 l 228 418 l 212 361 l 209 356 l 203 306 l 210 302 l 208 284 l 215 277 l 228 284 l 260 313 l 265 322 l 285 331 l 324 372 l 336 381 q 342 386 349 397 q 362 399 374 406 l 383 431 l 392 434 l 398 440 q 401 443 412 447 l 414 456 l 435 481 l 448 488 l 448 490 l 457 495 q 460 497 471 515 l 483 511 l 492 522 l 494 540 q 497 541 507 556 l 511 545 l 511 577 l 519 595 l 521 590 l 530 610 q 532 615 544 631 l 542 633 l 578 656 l 611 670 q 616 672 639 674 l 657 653 l 644 638 l 653 599 l 673 588 l 655 577 l 657 570 l 641 555 q 637 552 635 547 q 633 542 630 533 l 632 493 l 623 461 q 621 447 619 431 l 628 413 l 626 345 l 598 281 l 601 266 l 610 266 l 594 254 q 610 231 610 220 l 605 193 l 596 184 l 596 170 q 582 150 573 95 l 582 84 l 573 73 l 576 48 l 569 39 l 571 25 l 567 18 l 567 -5 l 551 -36 l 553 -36 l 551 -61 l 539 -73 l 519 -132 l 505 -193 l 496 -197 l 496 -209 l 483 -232 l 469 -245 l 462 -266 l 419 -313 l 401 -320 l 394 -338 l 380 -347 l 358 -356 l 326 -384 l 310 -386 l 310 -393 l 299 -400 l 267 -429 l 215 -452 l 203 -438 l 209 -428 q 212 -424 215 -402 l 258 -379 l 292 -354 l 305 -340 l 312 -338 l 312 -336 l 321 -334 l 351 -313 q 353 -309 362 -302 l 362 -297 q 376 -283 389 -275 l 396 -257 l 419 -232 l 419 -225 q 429 -220 446 -200 l 439 -184 l 460 -159 l 467 -141 l 467 -129 l 473 -120 q 481 -113 489 -104 q 485 -94 478 -89 l 487 -68 l 483 -52 q 483 -46 488 -33 q 493 -20 501 -14 l 505 9 l 503 16 l 514 32 l 505 39 l 519 61 l 517 82 l 521 89 l 526 125 l 521 157 l 528 157 l 528 184 l 537 186 l 530 222 l 523 227 l 528 243 l 521 266 l 530 284 l 528 293 l 530 297 l 526 304 l 526 313 l 528 318 l 526 325 l 519 393 l 510 395 l 510 418 l 507 449 q 503 459 503 463 l 505 477 l 494 477 l 428 404 l 408 395 l 362 345 l 360 340 l 303 288 l 292 281 l 260 250 l 209 216 l 183 197 l 140 184 l 119 168 l 111 178 q 108 182 103 200 q 115 218 124 242 q 132 267 135 268 l 135 293 l 131 300 q 142 320 142 325 l 142 343 l 140 359 q 150 377 153 379 l 165 438 l 165 456 l 174 470 l 172 481 l 181 504 l 174 524 l 178 529 l 174 547 l 160 547 l 153 540 l 137 538 l 131 522 l 119 520 l 108 502 l 81 493 l 60 527 l 65 547 q 74 553 81 565 l 101 572 l 110 588 l 226 640 l 242 649 l 253 649 z"},"c":{"x_min":0,"x_max":439,"ha":439,"o":"m 405 63 l 389 43 l 376 36 q 370 32 364 23 q 353 20 350 16 l 339 16 l 327 14 l 270 -14 l 261 -11 l 257 -16 l 241 -20 l 236 -27 l 227 -30 l 216 -36 l 205 -38 q 200 -39 186 -48 l 175 -48 l 164 -57 l 161 -52 l 159 -61 l 143 -59 l 130 -68 l 123 -68 l 98 -75 l 78 -66 l 68 -52 l 30 -7 l 28 18 l 30 27 l 23 27 l 20 92 l 25 118 l 23 125 l 23 138 l 30 150 l 28 173 l 41 234 l 41 243 l 46 236 l 43 252 l 57 293 l 57 300 l 75 329 q 79 345 84 352 l 84 363 l 100 381 l 118 393 l 143 420 l 180 443 l 208 452 l 230 452 l 250 461 l 252 459 l 268 459 l 286 465 l 298 465 l 307 461 l 307 454 q 313 449 323 447 l 323 443 l 339 436 l 339 424 l 334 415 q 329 411 320 395 q 309 390 300 384 l 291 386 l 284 372 l 275 372 l 266 368 l 266 350 l 255 350 l 239 347 l 232 347 l 216 336 l 209 338 l 205 347 l 205 356 l 200 361 l 182 359 l 175 347 l 173 340 l 153 316 l 146 293 l 138 275 l 134 253 l 126 232 l 121 166 l 130 104 l 130 98 l 137 89 l 137 66 l 157 30 l 161 32 l 168 25 l 182 25 l 198 36 l 198 32 l 207 36 l 234 41 l 250 48 l 257 48 l 259 50 l 275 48 q 288 57 309 64 l 307 68 l 314 66 q 324 69 339 77 l 348 75 l 350 81 l 371 85 l 384 90 l 399 90 l 409 78 z"},"!":{"x_min":0,"x_max":401,"ha":401,"o":"m 399 785 l 401 779 q 401 772 390 767 q 385 763 381 754 l 372 735 l 351 706 l 335 665 l 310 624 q 312 621 317 617 q 307 602 301 583 q 299 573 294 563 l 278 540 q 278 538 276 533 l 272 513 l 267 495 l 263 461 l 254 445 l 256 420 l 254 420 l 254 415 l 249 384 l 251 381 l 247 375 l 249 375 l 249 372 l 244 372 l 242 359 l 238 297 l 242 288 l 240 268 l 244 261 l 233 229 l 215 218 l 203 200 q 201 197 190 191 l 181 197 l 165 188 l 158 191 q 151 182 145 182 l 138 184 l 133 193 l 133 195 l 142 222 l 133 252 l 140 281 l 142 305 q 142 308 147 312 q 152 317 160 318 l 160 320 q 165 332 165 336 l 160 352 l 176 356 l 181 372 q 183 396 184 402 q 185 407 185 409 l 185 413 q 183 423 183 427 q 183 435 190 438 l 192 447 l 190 447 l 190 456 l 194 454 l 192 465 l 197 472 l 197 484 l 213 484 l 206 499 q 219 542 219 543 l 219 558 l 226 581 l 231 581 l 235 583 l 238 588 l 240 588 l 244 592 q 244 603 235 622 q 245 644 247 654 l 251 658 l 247 665 l 254 667 l 263 690 l 269 695 l 285 731 l 290 729 q 294 738 294 742 q 294 752 311 762 q 328 772 335 779 l 337 776 l 335 776 l 337 774 l 344 783 q 360 788 362 792 z m 150 -33 q 146 -38 133 -41 q 120 -45 115 -45 q 101 -34 94 -29 q 86 -23 76 -9 l 70 -7 l 74 2 l 74 7 l 86 30 l 92 27 q 95 37 108 43 l 108 45 l 120 52 l 124 52 l 131 57 l 129 61 l 131 64 q 131 77 151 77 q 174 77 189 63 q 204 50 204 30 q 204 13 197 9 l 174 -5 z"},"/":{"x_min":0,"x_max":482,"ha":482,"o":"m 427 731 l 434 731 l 434 729 l 452 726 l 400 638 l 384 622 l 379 599 l 365 588 l 336 533 l 322 504 l 309 486 l 293 438 l 275 420 l 268 393 q 266 383 259 377 q 247 362 245 356 l 232 316 l 220 295 l 218 279 l 204 252 l 177 186 l 163 161 l 154 134 l 129 73 l 125 70 l 125 64 q 113 55 109 45 q 81 -43 57 -43 l 54 -43 l 45 -36 l 30 -34 l 36 -18 l 36 -16 l 43 -7 q 51 20 61 39 q 72 45 75 57 l 77 57 l 86 75 l 89 73 l 98 98 l 107 113 q 112 119 127 154 l 129 154 l 129 157 l 143 193 q 154 221 161 227 l 159 234 q 159 241 168 245 l 177 279 l 191 306 l 197 329 l 211 359 l 216 363 l 213 370 q 214 380 225 388 l 227 395 l 229 393 l 227 406 l 236 406 l 243 431 l 245 429 l 251 439 q 254 443 259 465 q 267 471 270 484 l 277 488 l 279 508 l 288 513 q 289 518 292 522 q 294 527 298 531 q 301 536 306 547 q 310 558 314 566 q 318 574 323 581 q 328 587 331 595 l 334 595 l 336 597 l 334 597 q 343 620 350 624 l 354 622 q 359 625 359 629 l 359 636 l 363 642 l 368 640 l 368 645 q 372 665 383 678 q 395 692 395 697 l 397 697 q 403 717 419 717 l 422 717 z"},"[":{"x_min":0,"x_max":542,"ha":542,"o":"m 450 727 l 467 713 q 470 711 475 699 l 470 693 l 482 681 l 466 677 l 466 675 l 445 668 q 442 663 440 663 q 437 663 434 672 q 431 674 418 679 l 411 672 l 411 675 q 399 661 396 650 q 398 648 398 645 q 398 641 393 638 l 398 636 l 389 634 l 389 629 q 383 627 383 623 q 383 621 384 620 q 371 602 367 590 l 370 583 l 363 577 l 358 548 l 342 520 l 335 486 l 330 486 q 326 486 326 476 q 326 461 317 449 l 321 443 q 312 435 310 424 q 315 419 317 415 l 310 406 l 301 404 l 303 381 l 299 372 q 291 356 291 339 q 291 331 292 327 l 290 327 l 285 304 l 280 302 l 283 286 l 278 288 q 287 271 285 263 l 269 200 l 260 157 l 253 136 l 250 117 q 249 107 242 91 l 246 77 l 234 44 l 238 30 l 227 35 l 227 19 l 225 12 l 220 12 l 212 8 l 212 -4 l 222 -2 l 222 -11 l 247 -15 q 256 -15 274 -6 q 281 0 308 1 l 308 -2 l 324 -13 l 324 -24 q 312 -47 290 -47 l 236 -47 l 218 -49 q 208 -52 205 -52 q 203 -52 193 -42 l 181 -45 l 170 -42 q 167 -47 163 -47 q 159 -47 154 -42 q 154 -51 145 -52 l 141 -49 q 125 -52 120 -52 q 114 -52 107 -40 q 100 -29 100 -27 l 100 -17 l 111 -6 q 112 4 118 19 q 122 18 134 44 q 146 44 148 48 l 165 84 q 178 92 178 107 l 181 104 q 193 107 193 114 q 193 120 189 125 q 185 131 185 136 q 192 137 192 147 q 192 155 190 159 l 190 154 q 194 162 194 171 q 194 180 192 184 l 201 191 l 201 204 l 204 204 l 204 216 l 208 213 q 215 221 215 231 q 215 238 210 247 l 217 252 l 215 259 q 221 271 221 277 l 221 293 q 227 294 231 309 l 242 350 l 251 411 l 258 420 l 265 486 q 255 518 255 529 q 255 547 260 558 l 264 568 q 267 572 270 581 q 274 589 279 605 q 285 621 287 625 l 284 627 l 284 629 l 289 638 l 289 663 q 293 663 293 665 q 293 668 291 670 q 301 691 313 691 q 318 691 321 690 l 323 693 q 347 702 361 718 l 391 722 l 439 722 l 445 727 z"},"6":{"x_min":0,"x_max":463,"ha":463,"o":"m 304 660 q 313 642 313 630 q 313 620 305 604 q 301 597 299 577 l 293 577 q 269 570 269 554 l 275 533 q 267 520 262 513 q 257 506 255 500 l 253 500 l 247 477 l 250 472 q 246 462 228 448 l 217 402 l 208 400 l 201 387 l 201 384 q 201 367 188 360 l 191 352 l 187 352 q 186 329 168 313 l 156 287 l 149 269 l 128 237 q 122 219 122 204 q 122 198 124 191 q 122 185 122 182 l 132 184 l 146 197 l 153 197 l 164 206 l 187 209 q 194 222 209 222 l 212 222 l 214 224 l 271 238 q 276 246 282 246 q 284 246 286 245 q 289 244 290 244 l 292 244 l 324 245 l 344 252 q 348 252 378 238 l 380 232 l 380 230 l 391 220 l 402 218 l 399 210 l 399 207 l 406 193 l 399 179 l 403 159 q 403 157 387 130 q 371 103 365 98 l 365 103 l 349 97 l 349 93 l 345 93 q 332 82 317 73 q 302 65 298 61 q 294 57 286 53 q 278 49 267 42 l 262 25 l 234 16 q 198 -8 167 -16 l 138 -20 l 95 -36 q 60 -32 50 -12 l 36 15 l 21 39 l 26 48 l 22 63 l 22 66 q 22 72 17 74 l 21 83 q 22 87 25 94 q 34 105 34 109 l 34 123 l 36 139 l 39 136 q 47 158 47 163 l 50 161 l 52 169 l 54 170 l 54 173 q 54 181 58 188 q 62 195 67 217 l 72 222 l 76 238 l 79 237 l 79 240 l 73 245 l 82 245 l 93 270 l 97 272 l 106 292 q 109 305 115 310 l 115 322 l 119 322 l 116 335 l 121 331 q 132 357 135 358 q 136 370 146 388 l 140 396 q 142 405 142 409 q 142 417 139 422 q 141 427 147 430 l 152 442 q 154 445 158 463 q 165 505 177 523 q 188 535 191 541 q 194 547 194 557 q 194 568 192 574 l 197 574 l 208 621 l 216 635 l 220 635 l 220 641 q 228 652 239 656 q 257 658 261 668 q 274 683 297 683 q 315 683 315 672 q 315 663 304 660 z m 287 189 l 274 186 l 274 183 l 260 186 q 259 186 252 183 q 245 181 241 176 l 237 181 q 214 163 181 161 l 181 159 l 164 161 l 146 148 l 135 145 q 130 143 115 130 l 115 126 q 88 114 88 73 q 88 56 92 52 q 96 47 104 47 q 122 47 135 52 q 147 56 150 56 l 160 54 l 167 54 l 183 59 q 191 59 196 54 q 212 52 215 52 q 223 52 239 63 l 290 97 q 301 114 308 134 l 316 136 q 320 138 323 167 z"},"r":{"x_min":0,"x_max":394,"ha":394,"o":"m 218 449 q 229 444 231 433 q 218 419 218 392 l 218 385 q 213 380 213 375 q 213 370 215 367 l 218 367 l 215 353 l 206 351 l 202 335 l 199 335 q 201 327 206 324 q 218 325 245 355 l 247 353 l 297 390 l 306 392 l 329 405 l 347 410 q 364 425 401 426 q 417 416 423 416 q 429 416 429 412 q 429 409 425 392 l 404 380 l 392 365 l 358 349 l 345 355 l 336 355 l 336 353 q 301 339 272 333 q 258 306 222 263 q 185 219 184 197 l 181 126 l 162 94 l 164 50 q 162 42 157 33 q 153 25 151 19 q 149 12 137 -6 l 128 -8 q 125 -9 102 -27 l 77 -27 l 66 -31 l 50 -15 q 50 -1 60 20 q 70 41 72 51 q 79 99 97 108 l 102 122 l 100 131 l 104 138 l 91 160 l 91 167 l 88 210 q 95 215 97 215 q 101 215 106 210 l 125 235 l 122 253 l 127 274 l 115 283 l 115 333 l 97 319 l 86 319 l 70 308 l 54 312 l 38 310 q 25 310 25 319 q 25 333 40 354 q 54 374 84 390 l 84 392 l 97 394 q 105 408 115 408 q 121 411 128 418 q 136 425 161 437 l 174 430 l 184 435 l 199 439 z"},"2":{"x_min":0,"x_max":679,"ha":679,"o":"m 572 662 q 591 656 597 638 l 600 638 q 612 624 617 615 q 615 611 603 595 q 591 579 589 580 l 586 572 l 579 572 q 575 551 559 542 q 547 519 529 511 l 529 509 l 527 508 l 529 503 l 526 491 q 516 487 513 475 l 511 477 q 501 446 470 446 l 449 434 l 425 408 l 412 408 q 409 406 403 397 q 397 387 386 378 l 381 380 l 369 360 l 361 362 q 355 350 348 346 l 348 342 q 329 339 321 331 q 313 322 313 315 l 314 312 l 303 310 q 300 300 280 292 l 275 278 l 271 279 q 264 279 258 263 q 252 248 250 247 l 223 231 l 212 214 q 197 208 190 200 l 192 200 l 163 165 l 248 145 q 263 144 273 137 q 279 124 287 124 l 290 124 l 306 110 l 318 114 l 342 105 l 343 100 l 361 95 l 368 85 q 371 80 380 74 l 391 70 q 398 66 418 65 l 417 61 q 420 58 422 53 l 463 43 l 482 45 l 500 72 l 499 97 q 499 100 506 110 q 513 119 519 124 q 524 128 532 131 l 588 150 q 601 148 609 137 l 614 133 q 616 131 636 124 q 643 108 657 90 l 646 47 l 624 45 l 615 34 l 609 34 l 609 30 l 597 33 q 590 10 568 8 l 568 6 q 532 -9 497 -9 q 487 -9 472 -7 l 466 -2 l 463 -6 l 442 -9 l 421 -3 l 406 -14 l 391 -12 l 375 -15 l 375 -4 q 357 -2 346 6 l 338 1 l 322 8 q 310 17 304 16 l 274 11 q 268 12 264 15 q 260 18 256 37 l 247 36 l 232 41 l 230 34 q 209 42 200 42 l 194 42 q 188 42 181 50 q 174 50 145 62 l 128 57 l 103 57 q 100 56 97 55 q 95 53 78 34 l 71 34 l 58 24 l 28 18 q 5 4 -3 -4 l 0 -9 q -10 -19 -21 -20 l -21 -25 q -41 -43 -51 -43 q -68 -43 -73 -21 l -77 0 q -77 11 -68 20 q -59 29 -53 30 l -43 46 l -38 42 l -33 46 l -39 50 q -21 65 -21 76 l -21 78 l 28 119 l 61 133 l 96 157 l 119 181 q 134 182 140 209 l 144 205 q 154 211 162 222 l 160 232 l 172 240 l 171 242 q 192 260 196 260 l 206 275 l 225 284 l 243 305 l 274 332 l 285 345 l 294 345 l 302 355 l 329 377 l 334 387 q 337 392 349 404 q 361 417 371 424 q 381 432 383 434 l 433 484 l 469 510 l 489 554 l 486 563 l 466 561 l 450 549 l 424 547 l 417 539 q 390 528 384 524 l 382 526 q 367 521 366 498 l 352 501 l 348 497 l 339 496 q 336 496 320 485 l 309 488 l 298 485 q 292 467 291 466 l 276 471 q 266 452 236 437 q 219 445 210 462 q 221 483 227 489 l 257 521 q 272 522 278 532 q 284 543 289 550 l 301 550 l 322 569 l 326 569 q 341 569 346 580 l 367 587 q 389 601 391 602 l 411 604 q 422 609 426 611 q 430 613 444 613 l 449 612 q 469 623 484 623 q 498 638 514 638 l 517 638 l 526 645 l 543 647 l 553 659 l 558 655 z"},"{":{"x_min":0,"x_max":542,"ha":542,"o":"m 308 388 q 299 378 295 375 q 292 373 286 371 q 281 369 277 369 q 273 369 260 362 q 266 347 280 344 l 292 324 l 289 305 l 294 290 l 285 280 l 289 269 l 287 259 l 283 258 q 284 253 284 245 q 284 235 278 231 q 278 221 272 213 l 276 206 l 273 198 q 261 184 261 167 l 262 159 q 250 146 250 136 l 251 132 l 248 134 l 252 109 l 255 109 l 252 100 l 254 100 l 256 77 l 252 76 l 254 75 l 250 70 l 248 72 l 249 62 l 249 41 l 260 28 l 260 14 l 262 16 l 255 4 l 258 5 l 268 -11 l 271 -12 l 270 -18 l 279 -21 q 281 -29 292 -31 l 314 -34 q 326 -41 338 -41 l 346 -40 l 347 -44 l 354 -44 l 357 -41 q 371 -51 371 -62 l 371 -71 q 362 -73 359 -77 q 331 -86 316 -86 q 310 -86 306 -84 l 279 -70 l 248 -61 l 224 -41 l 206 -38 l 189 -24 l 175 14 l 172 55 q 168 59 168 62 l 172 75 l 170 90 l 179 115 l 178 125 q 178 143 186 156 l 193 168 l 200 190 q 216 206 216 224 q 216 229 215 232 l 212 247 q 212 249 223 278 l 218 293 l 227 296 l 219 317 q 212 324 212 331 l 213 337 l 202 347 l 193 344 l 186 357 q 178 350 171 350 q 165 350 161 354 l 148 354 l 138 362 q 143 398 171 393 q 179 391 185 391 q 196 391 204 400 l 206 392 l 220 399 q 226 397 230 397 q 240 397 248 406 q 256 416 256 436 l 256 447 l 263 455 l 263 472 q 273 489 273 502 l 273 511 q 273 515 277 520 l 282 541 l 286 564 q 295 586 302 607 q 315 618 336 648 l 336 649 q 336 650 344 662 q 353 674 376 691 l 372 694 l 386 700 l 393 717 l 445 728 l 492 741 q 501 744 506 744 q 509 744 518 740 q 527 735 527 728 l 526 722 l 525 710 l 525 701 q 525 698 517 682 l 497 687 l 492 695 l 476 689 l 461 691 l 449 688 q 437 677 418 662 q 417 653 403 640 q 388 628 388 623 l 389 613 l 377 601 l 369 600 l 371 595 q 368 591 367 566 l 357 553 l 358 542 q 328 484 328 469 l 328 466 q 319 433 316 428 q 314 424 314 414 l 314 406 q 306 398 306 394 q 306 390 308 388 z"},"9":{"x_min":0,"x_max":464,"ha":464,"o":"m 339 700 l 362 686 l 371 669 l 380 667 l 392 651 l 392 642 q 392 626 397 620 l 402 622 l 405 621 l 411 629 l 421 627 l 427 631 q 429 633 451 638 q 456 634 476 632 q 480 647 491 647 q 497 647 503 641 q 509 634 509 627 q 509 624 506 618 l 492 595 l 487 575 q 485 566 474 544 q 460 535 458 525 l 449 504 l 422 460 l 406 444 l 386 397 l 354 363 l 347 343 l 336 328 l 319 302 l 301 295 l 303 291 l 296 277 l 300 277 l 290 254 q 259 221 259 191 l 259 166 l 246 111 l 246 95 l 242 95 q 238 87 238 83 l 240 73 l 240 52 q 240 37 246 35 l 304 62 l 322 54 l 325 41 q 325 40 320 25 q 315 10 310 7 l 269 -15 l 253 -31 l 192 -58 l 160 -62 l 165 -31 l 156 -17 l 174 83 l 194 181 l 212 187 l 212 191 q 212 208 222 230 l 226 230 l 237 249 l 255 295 l 272 323 l 275 355 l 287 362 l 290 374 q 291 379 302 395 q 299 403 288 406 l 277 400 q 258 387 239 380 q 226 362 215 358 q 205 354 176 349 q 147 343 135 338 q 124 333 110 320 q 95 306 86 306 q 76 306 69 320 q 61 334 50 351 l 50 371 l 45 387 l 55 402 l 60 422 q 68 431 73 439 q 79 447 81 454 q 83 461 94 479 l 110 505 l 141 548 l 155 559 l 153 561 q 158 574 173 584 l 177 600 l 190 614 l 205 632 q 207 635 223 645 l 225 653 l 238 658 l 262 686 q 269 696 279 696 l 288 695 l 318 697 z m 296 504 l 290 557 q 286 575 279 587 q 271 599 266 599 q 255 599 251 594 l 232 570 l 221 566 l 214 551 l 211 551 l 197 534 q 172 493 162 486 q 150 481 147 478 q 144 474 141 452 l 128 438 l 128 414 l 119 393 q 120 384 124 382 l 129 382 q 144 387 159 397 l 184 408 l 202 413 q 228 426 234 426 l 234 432 l 247 437 q 254 440 258 443 l 269 454 l 269 449 l 301 474 q 308 478 308 484 l 307 491 z"}," ":{"x_min":0,"x_max":231,"ha":231,"o":""},"I":{"x_min":0,"x_max":386,"ha":386,"o":"m 409 679 l 418 676 l 420 656 l 441 649 l 441 642 l 427 633 l 423 620 q 389 608 361 588 q 346 570 336 565 l 277 536 l 284 527 l 270 497 q 269 484 261 465 l 255 449 l 236 361 l 223 277 l 216 279 l 216 213 l 211 213 l 216 202 l 214 191 l 220 114 l 218 107 l 227 98 l 275 102 l 287 98 q 299 93 304 89 q 279 52 268 52 l 264 43 l 250 45 l 236 25 l 225 23 l 219 15 q 216 11 198 0 l 186 2 l 161 -7 l 121 -11 l 46 -25 l 28 -32 l 14 -23 l 3 -27 l 0 0 l 30 27 l 35 33 q 37 36 50 43 l 53 54 l 55 50 l 77 64 l 107 70 l 118 68 l 133 74 q 141 77 155 89 l 155 102 l 148 111 l 152 152 l 148 159 l 155 177 l 152 204 l 146 209 l 155 222 l 152 236 l 157 252 l 152 261 q 161 280 171 291 l 161 304 l 171 329 q 169 335 157 345 l 171 365 l 152 375 l 161 390 l 157 409 l 161 434 l 161 447 l 173 461 q 177 486 182 497 l 189 502 l 180 527 l 186 543 l 171 549 l 141 540 l 127 527 q 120 523 114 518 l 105 518 l 97 532 q 93 538 87 561 l 96 578 q 103 588 123 590 l 123 597 l 130 599 l 136 608 l 146 608 q 161 617 175 629 l 191 631 q 213 645 216 645 l 230 645 l 230 642 q 242 641 261 631 l 279 642 l 345 640 l 357 638 l 395 670 z"},"H":{"x_min":0,"x_max":819,"ha":819,"o":"m 639 672 q 661 664 670 663 l 679 636 l 668 615 l 634 536 l 634 527 l 620 522 l 618 515 l 611 515 q 616 508 618 488 l 611 486 l 609 456 l 598 443 l 595 424 l 589 422 l 591 406 l 586 395 l 586 377 l 582 372 l 582 356 l 575 340 l 630 331 l 634 327 l 658 330 q 666 331 671 334 l 684 343 l 704 340 l 727 352 q 753 359 767 366 l 789 362 l 789 326 l 773 302 l 773 293 l 759 295 l 748 291 l 734 293 l 720 286 l 714 291 l 704 279 l 670 272 l 650 261 l 627 261 l 600 254 l 598 259 l 582 254 l 571 236 l 571 166 l 566 159 l 573 143 l 571 123 l 575 107 l 575 91 l 586 84 l 609 84 l 627 79 l 630 61 l 614 48 l 611 34 l 593 9 l 589 -7 l 575 -18 l 571 -32 l 534 -54 q 527 -65 522 -70 q 518 -74 512 -78 l 507 -82 l 475 -93 l 477 -75 l 489 -68 l 493 -54 l 498 -50 l 502 -39 l 489 -27 l 500 25 l 498 32 l 502 48 l 498 57 l 509 89 l 502 120 l 505 129 l 507 197 l 509 216 l 507 220 l 507 229 l 496 247 l 496 259 l 475 261 l 475 247 l 446 252 l 437 252 l 409 241 l 409 234 l 382 229 l 368 234 l 366 229 l 357 232 l 325 226 l 275 207 l 269 197 l 269 123 l 262 109 l 298 95 l 298 75 l 300 66 l 291 59 l 287 39 l 289 18 l 294 14 q 289 1 282 -5 l 269 -5 l 269 -11 l 263 -16 q 260 -18 250 -36 l 246 -36 l 235 -48 l 210 -43 l 196 -43 l 185 -34 l 188 -24 q 189 -20 198 -11 l 200 11 l 196 27 l 200 57 l 198 75 l 205 100 l 203 123 l 205 125 l 205 138 l 212 154 l 212 163 l 205 175 l 212 200 l 200 211 l 185 213 l 178 204 l 171 209 q 165 204 151 202 l 141 193 l 82 182 l 76 182 l 69 173 l 51 182 l 35 175 l 30 184 l 35 197 l 30 202 l 37 234 l 53 241 l 57 247 l 89 254 l 105 250 l 110 245 l 130 254 l 148 252 l 162 254 l 176 250 l 180 257 l 187 259 l 191 257 l 200 261 q 203 257 223 254 l 230 266 l 225 300 q 238 317 241 329 l 235 331 l 244 345 l 235 375 l 241 409 l 237 445 l 244 454 l 241 461 l 248 477 l 244 508 l 227 507 q 219 506 211 501 q 203 497 196 488 l 187 490 l 178 482 q 173 477 167 475 l 153 470 l 157 450 l 148 427 l 146 441 q 133 430 121 418 l 114 423 l 96 417 l 94 411 l 78 402 l 78 395 l 49 404 l 37 417 l 37 436 l 46 461 l 69 486 l 87 493 l 99 502 q 105 506 123 513 l 128 520 l 148 524 l 153 531 l 164 531 l 185 547 l 200 547 l 205 554 l 225 554 l 243 563 q 246 565 255 577 l 266 578 q 271 579 282 586 l 284 595 l 298 597 l 305 606 l 312 606 l 325 622 l 350 631 l 373 629 q 384 614 396 604 l 396 581 l 391 572 l 366 568 l 362 547 l 349 506 l 339 463 l 339 449 l 330 440 l 332 424 l 325 415 l 309 340 l 300 327 l 298 302 l 303 293 l 321 295 l 343 288 l 366 293 l 418 297 l 430 297 l 434 293 l 466 300 l 471 304 l 489 304 l 509 300 l 523 308 l 519 334 l 531 350 l 525 365 l 532 388 l 531 410 l 535 426 l 531 440 l 535 452 q 537 458 546 468 l 536 481 l 548 508 l 548 524 l 543 547 l 548 554 l 543 561 l 557 586 l 561 588 l 564 613 l 571 617 l 575 627 l 589 633 l 616 656 l 632 656 z"},"4":{"x_min":0,"x_max":637,"ha":637,"o":"m 468 622 q 479 620 483 615 q 486 609 486 595 l 486 581 q 479 578 477 572 q 478 569 481 563 l 459 527 l 459 522 q 459 503 447 495 q 437 473 431 422 q 413 410 413 393 l 413 375 l 404 352 q 402 327 399 314 q 396 301 388 277 l 391 266 l 388 266 q 388 258 397 252 l 397 254 l 404 254 l 409 259 q 413 257 416 254 l 431 254 q 443 247 452 247 l 470 250 l 493 250 q 501 250 511 252 q 520 254 522 254 q 531 262 531 277 l 525 275 l 528 282 l 532 281 l 532 286 l 538 302 l 550 307 l 550 309 q 561 318 575 318 l 577 327 q 581 329 585 329 q 590 329 600 325 l 600 329 q 605 339 609 343 q 621 340 627 325 q 622 305 621 302 q 620 298 619 290 q 618 281 614 276 l 606 261 l 572 244 l 550 222 l 541 222 l 537 215 l 534 218 l 528 211 l 528 204 l 512 200 l 503 211 l 487 200 l 474 204 l 462 195 l 453 198 q 446 189 437 189 l 426 191 l 416 186 l 402 195 l 384 186 l 382 175 l 379 177 l 379 173 l 375 173 l 354 91 l 368 59 q 353 40 349 36 q 346 32 341 28 q 336 24 327 14 q 317 4 308 -4 q 299 -13 286 -22 q 274 -32 263 -32 q 252 -32 250 -27 q 243 -24 239 -18 q 234 -12 234 -8 q 234 -7 235 -7 l 236 -7 l 252 12 l 259 30 q 265 36 266 41 l 268 41 l 284 91 q 290 103 295 127 l 300 150 l 309 182 q 309 198 272 198 l 263 198 l 263 202 l 248 198 l 248 191 l 207 191 l 200 198 l 195 191 l 179 198 l 155 195 l 132 204 l 132 200 l 123 200 l 123 195 q 113 201 101 201 q 93 201 84 198 l 84 195 l 59 204 q 51 204 47 202 q 43 200 27 186 q 11 192 0 207 l 0 209 q 0 213 7 216 l 5 225 l 14 239 l 23 243 l 23 252 q 27 261 34 261 l 39 263 q 41 264 59 284 q 62 285 73 290 q 84 294 98 297 q 111 300 116 304 l 141 325 q 141 332 150 335 q 158 339 164 343 l 168 354 l 170 352 q 173 360 175 361 l 175 363 l 202 378 l 232 409 q 236 421 248 422 l 254 427 l 254 431 q 254 435 262 436 q 270 437 275 438 q 281 457 295 466 l 295 463 l 298 466 q 300 474 307 479 l 343 509 q 363 525 363 538 l 363 540 l 366 540 l 363 543 l 370 550 l 372 554 q 378 572 391 576 l 409 581 l 418 595 q 437 612 438 615 l 447 615 q 458 615 468 622 z m 318 425 q 311 423 305 414 q 299 405 293 400 l 291 402 q 281 394 267 385 q 252 377 252 377 l 250 377 q 241 364 229 352 q 213 345 211 343 q 209 340 206 333 q 198 315 186 304 l 184 295 l 182 293 l 200 284 l 211 284 l 220 270 l 241 270 l 254 264 l 277 270 l 280 270 q 287 270 289 268 q 292 265 302 250 l 309 248 l 316 248 l 318 257 l 322 257 l 332 311 l 332 329 l 341 345 l 334 379 l 341 425 l 338 429 q 335 436 327 436 q 318 436 318 425 z"},"~":{"x_min":0,"x_max":833,"ha":833,"o":"m 747 370 l 747 306 q 649 236 558 236 q 530 236 503 242 q 477 249 417 270 q 356 292 327 297 q 298 303 275 303 q 197 303 87 225 l 87 290 q 190 361 276 361 q 312 361 346 352 q 379 343 447 319 q 515 294 559 294 q 640 294 747 370 z"},"D":{"x_min":0,"x_max":758,"ha":758,"o":"m 209 747 l 225 745 l 227 742 l 249 742 l 297 740 l 297 731 l 299 733 l 318 731 l 345 715 l 352 715 l 354 708 l 368 708 l 370 704 l 429 692 l 465 683 l 467 676 l 492 667 l 496 664 q 497 663 517 658 q 523 649 536 642 l 540 642 l 540 638 l 545 640 l 547 633 l 551 633 q 555 627 565 620 l 581 623 l 583 615 l 590 615 l 590 608 l 599 604 l 606 592 l 622 590 l 622 586 l 615 583 l 619 563 l 649 552 l 656 543 l 665 545 l 669 531 l 683 524 l 688 506 l 719 474 l 738 400 l 733 390 l 733 372 l 722 356 l 713 297 l 694 272 l 692 263 l 676 232 l 669 227 l 667 222 q 646 205 635 191 l 635 195 l 588 150 l 574 143 l 558 129 q 540 120 538 118 l 533 118 q 508 102 506 100 l 506 98 l 476 79 l 458 77 l 456 73 q 445 69 436 59 l 433 64 l 408 52 l 408 50 l 402 50 l 399 45 q 387 43 383 39 l 381 39 l 327 9 l 322 11 l 220 -34 l 218 -39 l 197 -45 l 186 -45 l 172 -57 l 145 -66 l 111 -91 q 87 -112 84 -114 l 84 -123 l 68 -129 l 59 -143 l 22 -150 l 13 -150 q 0 -134 0 -132 l 9 -118 l 2 -82 l 9 -61 l 25 -54 l 93 -14 l 93 -18 l 100 -20 l 102 -7 l 109 -2 l 111 9 l 113 7 l 136 75 l 138 104 l 147 134 l 147 225 l 152 232 l 159 320 l 184 445 l 172 461 l 181 486 l 179 513 l 159 515 l 159 511 l 143 511 l 143 506 l 134 506 l 127 497 l 109 497 q 107 500 95 513 l 100 520 q 115 528 118 533 l 120 529 l 122 536 l 122 538 l 129 545 l 131 545 l 147 556 q 150 558 156 570 l 186 583 l 184 608 l 172 615 l 165 638 l 147 647 l 127 642 l 118 654 l 125 665 l 165 674 l 156 704 l 150 704 l 152 713 z m 313 622 l 313 620 l 299 611 l 295 588 l 302 583 l 290 554 l 277 447 l 270 413 l 256 384 l 252 379 l 259 359 l 254 359 l 245 293 l 225 234 l 211 136 l 204 123 l 184 54 l 181 52 l 159 7 l 161 -5 l 231 14 l 249 23 l 290 39 l 302 34 l 308 45 l 327 45 l 324 48 l 333 59 l 356 66 l 361 66 l 381 79 l 388 79 l 386 82 l 440 109 l 449 111 l 456 118 l 458 118 l 467 120 l 476 132 l 481 129 l 520 150 l 520 154 l 522 154 l 522 157 l 549 173 l 615 229 l 631 247 l 669 309 l 676 316 l 674 343 l 654 404 l 642 420 l 642 434 l 626 449 l 619 465 l 581 497 l 572 508 l 558 511 l 551 524 l 524 533 l 506 549 l 476 568 l 454 572 l 442 583 l 436 579 l 363 606 l 351 609 q 345 611 324 623 z"},"^":{"x_min":0,"x_max":1000,"ha":1000,"o":"m 456 714 l 543 714 l 797 438 l 752 438 l 499 651 l 245 438 l 201 438 z"},"0":{"x_min":0,"x_max":439,"ha":439,"o":"m 297 666 l 312 662 q 325 649 332 638 q 340 627 341 604 l 357 582 l 355 569 l 375 541 l 373 530 l 380 516 l 375 498 l 388 487 l 395 462 l 395 445 l 410 437 l 405 406 l 412 399 l 410 379 l 414 364 l 403 346 l 407 330 l 388 309 l 387 303 l 408 283 l 385 272 l 375 255 l 398 246 l 370 228 l 374 222 l 356 195 l 354 188 l 345 183 l 338 159 l 332 157 l 324 142 l 315 136 q 312 133 299 116 l 301 114 l 283 89 l 244 50 l 193 6 l 184 6 l 172 -6 q 162 -9 148 -19 l 136 -12 l 132 -14 l 102 -4 q 85 8 81 14 l 72 16 l 65 31 l 56 28 l 53 40 l 38 46 l 44 57 l 49 60 l 47 63 l 50 70 l 39 90 q 37 93 32 115 l 25 115 l 27 134 l 25 149 l 28 155 l 25 156 l 31 195 l 25 220 l 31 224 l 29 228 l 31 252 l 27 267 l 36 282 l 36 304 l 46 345 l 43 345 l 50 360 l 45 366 l 52 370 l 50 377 l 71 440 l 85 468 l 90 472 l 88 490 l 96 496 l 104 516 l 106 516 l 109 525 q 110 530 118 538 l 118 549 l 127 551 l 127 554 l 155 584 l 159 595 l 171 600 l 173 611 q 189 625 191 625 q 201 639 216 646 l 251 661 l 276 661 z m 229 569 l 212 558 l 197 533 l 185 521 q 179 515 167 495 l 158 472 l 145 448 l 143 436 q 142 429 137 422 l 137 402 l 124 391 l 121 377 l 121 366 l 109 354 l 109 351 q 97 325 91 309 l 94 293 l 84 271 l 89 268 l 84 251 l 89 244 l 81 221 l 75 189 l 89 182 l 70 171 l 73 164 l 80 164 l 78 141 l 78 118 q 85 112 91 103 l 89 95 q 95 81 99 69 q 110 63 122 48 l 143 53 l 150 42 l 162 48 l 165 54 l 175 56 l 181 73 l 183 73 l 188 82 l 205 82 q 217 97 222 108 l 230 111 l 234 122 l 250 153 l 264 160 l 266 171 l 282 178 l 276 184 l 276 198 q 286 213 286 221 l 286 247 l 294 262 l 288 279 l 291 291 l 295 294 l 290 300 l 290 316 l 288 331 l 290 335 l 281 346 l 284 357 l 294 362 l 293 360 l 291 360 l 286 388 q 286 399 298 418 l 290 434 l 295 451 l 284 477 l 286 477 l 280 484 l 282 491 q 271 512 269 524 l 261 531 l 261 550 l 258 557 z"},"F":{"x_min":0,"x_max":587,"ha":587,"o":"m 610 668 l 623 665 l 622 651 l 637 631 l 626 635 l 617 615 l 610 614 l 609 607 l 592 597 l 586 600 l 572 592 l 568 583 q 554 575 529 554 l 523 557 l 522 553 l 510 556 l 504 571 q 461 574 456 579 l 429 579 l 421 571 l 415 578 l 372 582 l 368 576 l 361 576 l 362 589 q 346 576 335 571 l 334 553 l 335 546 l 331 531 q 329 524 329 523 l 329 519 l 328 514 l 328 510 l 327 505 q 327 504 322 495 l 326 488 l 315 446 l 315 425 l 308 421 l 309 401 l 320 393 l 336 392 l 344 384 l 346 388 l 362 382 l 389 382 l 446 377 l 455 378 l 469 375 l 476 376 l 490 371 l 525 382 l 536 362 l 553 357 l 552 341 l 543 336 l 539 321 l 508 305 l 505 295 l 464 271 l 459 264 l 454 269 q 448 264 437 259 l 428 274 l 417 279 l 412 276 l 404 296 l 388 296 l 373 297 q 365 298 355 303 l 341 302 l 340 295 l 328 305 l 289 302 l 284 296 l 275 301 l 265 293 l 266 276 l 260 264 l 256 214 l 240 185 l 241 167 l 233 166 l 233 143 l 204 61 l 199 57 l 187 24 l 184 8 l 157 -26 l 155 -35 l 137 -54 l 136 -65 q 132 -72 107 -87 l 86 -90 l 69 -100 l 32 -104 l 25 -78 l 42 -66 l 46 -51 l 44 -46 l 48 -28 l 72 -19 l 91 -2 q 104 5 120 14 l 122 18 q 145 45 152 68 l 161 97 l 167 101 q 181 137 181 138 l 180 154 q 180 162 193 178 l 192 189 l 197 198 l 196 210 l 206 220 l 205 231 l 197 237 l 206 247 l 205 255 l 222 267 l 215 286 l 205 291 l 202 282 l 160 286 l 151 289 l 138 304 l 144 317 l 137 338 l 165 366 q 170 365 188 377 l 195 376 l 210 391 l 212 412 l 220 422 l 216 436 l 225 456 l 223 461 l 214 464 l 219 474 l 211 482 l 221 499 l 226 529 l 225 536 l 227 542 l 222 556 l 227 563 l 206 588 l 205 576 q 184 581 170 588 l 158 580 q 153 576 134 571 l 122 579 l 114 571 l 100 569 l 99 560 l 92 554 l 76 555 l 72 566 q 71 569 65 574 l 52 587 l 56 610 q 69 621 87 625 l 92 634 l 118 650 l 122 654 l 153 658 l 154 665 l 163 657 l 169 659 q 182 659 202 654 l 219 650 l 235 653 l 241 641 l 252 643 l 262 648 l 278 648 q 287 649 292 652 l 299 648 l 310 651 l 324 650 l 322 657 l 331 651 l 341 657 l 347 655 l 361 656 l 367 645 l 379 641 l 378 643 l 385 646 l 410 644 l 421 650 l 437 649 l 454 652 q 460 657 468 658 l 471 662 l 491 658 l 511 658 l 521 646 l 554 655 l 593 649 z"},"`":{"x_min":0,"x_max":500,"ha":500,"o":"m 291 548 l 250 533 l 223 549 l 201 587 l 201 591 q 201 603 184 628 q 167 654 159 661 l 157 679 q 134 711 134 715 l 134 733 l 141 736 l 141 743 q 142 746 156 765 l 178 768 l 182 782 l 197 787 l 205 784 q 207 783 210 780 q 212 778 218 771 l 223 765 l 250 713 q 252 712 253 709 q 254 707 256 701 q 257 694 259 690 q 260 685 263 679 q 266 672 271 665 q 276 657 283 650 q 285 648 293 622 l 306 619 l 296 598 l 309 588 l 313 570 l 303 557 z"},"k":{"x_min":0,"x_max":699,"ha":699,"o":"m 207 400 q 206 394 206 383 q 206 358 221 358 q 225 358 228 359 l 228 367 l 263 385 l 280 404 l 283 401 q 289 421 307 422 l 306 426 q 323 438 334 448 q 346 448 360 459 l 365 455 l 391 466 l 434 478 q 453 494 474 494 l 477 494 l 475 497 q 488 506 511 512 l 533 517 q 555 517 555 486 q 555 479 546 479 l 544 479 l 544 474 l 538 471 l 544 470 l 520 430 l 514 425 l 517 422 l 513 423 q 506 423 506 418 q 506 415 509 412 q 488 386 488 377 l 487 379 l 469 372 q 439 330 433 324 q 427 319 423 319 l 422 319 l 420 314 q 420 312 412 303 q 403 294 384 279 q 364 265 341 248 l 337 219 l 348 207 l 350 191 l 356 184 l 361 152 l 382 128 l 394 98 q 400 87 422 71 l 425 63 l 428 65 q 428 62 429 62 l 431 62 q 438 59 443 57 q 449 56 466 48 l 471 38 l 477 35 l 495 33 q 502 30 520 29 l 519 26 l 535 25 l 551 21 l 564 23 l 572 21 l 571 19 l 598 16 q 609 27 609 35 l 605 54 q 605 70 626 76 l 627 74 l 628 79 l 631 77 l 633 89 l 637 88 l 638 92 q 642 96 647 96 l 649 96 q 659 93 665 84 q 671 75 671 66 l 668 50 l 673 40 l 672 26 l 675 12 q 679 -2 679 -10 q 679 -21 673 -31 l 668 -30 l 656 -42 l 650 -41 l 652 -47 q 644 -53 631 -53 l 612 -53 l 595 -36 q 590 -37 581 -40 q 572 -44 566 -44 q 559 -44 548 -38 q 537 -31 526 -29 l 515 -33 q 498 -26 485 -26 l 480 -26 q 477 -29 474 -29 q 468 -29 467 -17 l 455 -20 q 449 -17 443 -11 l 420 -6 q 418 -7 415 -7 q 412 -7 406 -3 l 402 -5 l 399 3 q 388 7 377 14 l 374 13 q 372 13 369 15 q 366 16 362 19 l 354 25 q 350 28 345 31 q 341 34 335 38 q 329 42 325 48 q 321 53 316 59 q 311 65 306 70 l 303 70 q 299 70 297 72 l 294 89 l 285 92 l 284 95 q 278 99 269 116 q 259 133 250 139 q 261 143 265 147 q 260 156 254 156 q 250 156 250 148 l 239 185 l 241 185 q 238 196 231 197 l 215 222 l 203 216 l 205 191 l 201 166 l 203 150 l 198 150 q 193 133 187 103 q 182 73 173 64 l 169 48 l 159 36 q 154 31 151 -4 q 146 -10 142 -13 l 139 -11 l 132 -25 l 126 -27 l 128 -31 l 122 -31 q 121 -38 113 -38 l 110 -38 q 104 -45 101 -45 q 96 -45 94 -43 l 98 -47 l 92 -47 q 80 -50 80 -61 l 67 -61 l 58 -36 l 37 -31 q 44 -16 60 -16 l 63 0 q 64 3 73 14 l 73 28 q 76 29 77 38 q 78 48 83 68 l 89 73 l 89 80 l 94 93 l 97 91 l 97 98 l 94 96 l 97 97 q 95 98 95 100 q 95 102 99 109 q 102 117 110 141 l 117 146 q 118 172 125 181 q 133 190 133 191 q 133 192 128 202 l 130 214 l 122 227 q 123 242 124 249 q 125 256 139 280 q 147 288 147 311 q 147 316 139 327 l 142 327 l 142 343 l 144 343 q 149 343 149 348 q 149 349 147 355 l 144 355 q 144 365 148 368 l 151 393 l 148 400 q 152 409 158 417 q 163 425 163 432 q 163 435 160 441 q 157 446 157 450 q 157 459 164 473 l 169 473 q 162 481 162 504 l 164 507 l 157 511 q 153 521 153 525 q 153 532 157 536 l 157 545 l 160 545 l 166 566 l 164 566 l 166 577 l 153 586 l 153 622 l 142 618 q 136 620 133 620 q 124 620 114 613 l 114 611 l 110 613 l 103 602 l 87 604 q 80 604 80 601 q 80 598 83 593 l 58 600 l 58 595 l 42 593 l 40 586 l 17 570 l 6 575 l 6 572 l -1 572 l -4 579 l -10 575 l -15 595 l -17 595 l -22 602 l 1 618 q 5 630 12 635 q 18 641 33 645 l 69 656 l 105 659 l 153 681 l 155 688 l 169 695 l 185 695 l 182 706 l 182 713 l 189 718 q 193 718 198 713 l 198 718 l 201 720 l 203 725 l 248 759 l 250 756 l 261 756 q 275 756 280 751 q 285 746 285 733 l 285 725 l 287 725 q 273 694 273 688 q 273 685 275 677 l 269 675 l 272 672 l 264 670 l 266 654 l 255 625 l 253 597 l 244 575 l 244 566 l 232 547 l 232 520 l 223 502 l 216 470 l 222 470 l 222 467 q 222 456 218 444 q 214 433 214 430 l 216 414 l 216 398 z m 413 420 l 413 418 q 411 417 407 417 q 403 416 403 414 l 394 413 l 394 411 l 378 408 q 373 404 362 401 q 347 395 337 388 q 327 381 320 372 q 313 363 306 352 l 306 355 q 295 339 263 317 q 250 314 246 308 q 241 301 240 300 l 238 301 l 233 300 q 219 287 214 272 q 216 270 216 266 l 215 260 q 221 260 221 255 q 222 256 224 256 q 228 256 231 253 l 237 254 l 268 266 l 275 280 l 286 275 l 299 276 l 301 287 q 311 287 311 297 q 320 303 336 308 l 341 316 l 368 329 l 369 337 l 371 335 q 397 343 417 395 l 428 402 l 432 414 l 432 417 q 432 423 427 423 l 425 423 z"},"u":{"x_min":0,"x_max":694,"ha":694,"o":"m 258 463 l 273 445 q 261 423 255 406 l 237 395 l 233 384 l 237 381 l 237 372 l 239 368 l 235 363 l 235 352 l 228 336 l 221 331 q 213 310 210 295 l 199 286 l 196 270 l 199 268 l 187 254 l 187 243 l 183 238 l 189 211 l 183 188 l 187 161 l 192 141 l 192 123 l 196 100 l 192 91 l 192 64 q 206 70 212 77 l 221 75 l 221 82 l 244 104 l 255 111 l 255 116 l 273 132 l 278 148 q 290 154 296 161 l 298 157 l 298 166 l 308 175 l 308 170 l 312 177 l 319 177 l 319 182 l 321 186 l 330 186 l 332 193 l 330 204 l 364 232 q 369 236 371 240 l 376 252 q 385 257 394 259 l 396 266 l 401 270 l 407 270 l 407 279 l 410 272 l 410 281 q 415 289 419 291 l 421 297 l 444 322 l 453 322 l 462 331 l 471 350 q 495 376 498 384 l 512 386 l 525 409 l 521 397 l 539 411 l 550 404 l 564 413 l 582 413 l 591 406 l 594 388 l 586 380 q 582 377 575 361 l 578 352 l 573 336 l 573 329 l 566 322 l 566 309 l 557 306 l 557 281 l 555 270 l 557 259 l 548 250 l 553 238 l 548 229 l 553 207 l 548 195 l 548 109 l 553 91 l 562 84 l 580 86 l 589 77 l 587 66 l 575 61 l 571 50 l 562 48 l 555 36 l 548 36 l 544 25 l 523 18 l 516 5 l 489 0 l 478 -11 l 455 -16 l 444 -9 l 435 20 l 444 32 l 439 41 l 446 50 l 455 52 l 466 120 l 466 129 l 460 141 l 469 145 l 466 154 l 469 166 l 460 170 l 455 177 l 464 184 l 464 195 l 469 207 q 456 217 451 218 l 448 241 l 439 241 l 432 245 l 423 229 l 373 175 l 364 168 l 362 161 l 323 116 l 319 107 l 278 59 l 228 5 l 213 -3 q 210 -5 203 -16 q 182 -24 180 -25 l 180 -30 l 174 -27 l 174 -41 l 160 -50 l 142 -48 l 124 -61 l 121 -54 l 110 -48 l 108 -36 q 101 -31 96 -20 l 85 -16 l 81 -5 l 74 73 l 81 102 l 85 102 l 85 123 l 96 132 l 94 141 l 101 157 l 110 157 l 112 163 l 110 177 l 117 179 l 119 195 l 121 197 l 115 204 l 121 218 l 121 234 l 124 268 l 128 268 l 128 284 l 137 295 l 130 304 l 137 316 l 135 322 l 144 340 l 130 356 l 121 354 l 119 345 l 106 343 l 101 331 l 85 331 l 78 340 l 24 322 l 10 345 l 28 363 q 42 369 46 381 l 62 384 l 62 388 l 76 388 l 94 390 l 106 411 l 124 406 l 144 411 q 146 415 151 419 l 167 419 l 165 422 l 169 424 l 180 424 l 183 429 q 194 433 205 445 l 214 445 l 221 454 l 228 456 l 235 454 l 244 459 l 249 454 l 253 463 z"},"]":{"x_min":0,"x_max":542,"ha":542,"o":"m 238 703 l 255 704 l 251 702 l 269 694 l 269 691 l 290 692 l 289 689 l 298 692 l 300 688 l 303 693 q 309 695 311 695 l 317 694 q 322 691 331 691 l 331 689 l 342 690 l 342 692 l 349 691 l 353 696 q 372 693 376 687 l 376 689 l 383 688 l 381 690 q 390 690 394 694 q 400 695 402 699 q 421 697 421 681 l 421 674 l 415 672 l 416 651 q 409 648 406 645 q 400 644 400 633 q 400 626 403 614 l 400 619 l 397 611 q 396 608 384 597 l 385 593 q 381 583 379 569 q 376 555 370 555 l 369 555 q 368 542 363 542 q 359 529 359 518 l 360 512 q 360 509 357 509 l 356 509 l 356 506 l 353 506 l 355 497 l 352 493 l 354 488 q 336 480 336 461 l 333 461 l 329 440 l 334 438 l 329 436 l 328 427 l 326 427 l 325 422 l 327 422 l 327 417 l 323 417 l 325 415 l 323 415 l 324 411 l 321 412 q 319 412 319 410 q 319 407 322 403 l 319 405 l 317 403 l 321 396 l 316 391 l 303 333 l 302 313 q 297 303 297 297 q 297 294 298 292 l 296 292 l 281 200 l 278 193 l 269 120 l 258 60 l 261 62 l 260 58 l 256 58 l 260 34 q 265 26 266 20 q 263 17 257 17 l 244 2 l 250 -15 l 249 -29 q 237 -23 230 -22 q 225 -27 219 -28 l 217 -30 l 186 -29 l 184 -32 l 180 -29 l 177 -34 l 170 -31 q 167 -45 156 -46 q 149 -41 139 -26 q 129 -12 120 -12 l 99 -16 l 97 -18 q 88 -17 70 12 q 83 26 110 26 l 116 26 q 146 23 148 23 l 148 26 l 153 28 l 153 30 l 173 46 q 183 50 184 57 q 186 65 186 66 l 200 114 l 203 112 l 204 123 q 214 131 214 134 q 214 144 210 152 l 212 152 l 210 170 l 215 176 q 218 190 224 201 l 222 201 l 225 219 l 227 221 l 226 234 q 226 235 229 262 q 239 271 240 286 l 244 291 l 248 301 q 249 305 259 317 q 252 327 250 343 l 252 344 l 251 349 q 252 350 258 358 q 255 367 255 371 l 255 380 l 257 380 q 261 390 266 395 l 266 420 q 281 428 285 435 q 285 438 279 444 l 285 451 q 282 453 276 458 q 270 464 270 470 q 270 481 290 487 l 285 487 l 288 490 l 283 490 l 283 492 l 289 496 l 284 499 l 289 499 l 286 505 l 290 508 l 285 510 l 290 510 l 288 519 l 294 532 l 280 555 l 280 556 q 283 560 292 567 l 293 573 q 293 576 291 580 l 287 580 l 283 593 l 285 594 q 299 597 305 607 l 301 613 l 301 616 l 296 617 l 295 624 q 303 629 305 634 l 301 641 l 305 643 q 300 663 282 663 l 276 663 l 271 664 l 271 660 l 264 665 l 260 665 q 243 665 234 673 q 225 681 225 684 q 225 691 229 698 l 233 694 l 233 701 l 238 701 z"},"U":{"x_min":0,"x_max":747,"ha":747,"o":"m 304 592 l 322 590 l 329 581 l 345 577 l 349 552 l 342 547 l 336 533 l 297 504 l 290 493 l 222 329 l 215 320 l 218 309 l 211 304 l 211 284 l 202 259 q 194 243 188 222 l 190 220 l 183 207 l 172 129 l 174 109 l 169 79 l 177 75 l 190 77 l 195 82 l 215 89 l 229 104 l 247 114 q 260 125 265 125 l 279 141 l 288 143 l 304 161 l 308 161 l 336 188 l 347 197 l 354 207 q 358 211 370 218 l 386 250 l 392 250 q 401 267 410 272 l 415 284 l 433 288 l 451 311 l 458 311 l 472 350 l 488 347 l 497 356 l 494 365 l 499 375 l 517 456 l 524 454 l 531 470 l 554 490 l 578 504 l 588 502 l 596 512 q 597 513 598 514 l 613 522 l 619 522 l 622 529 l 635 531 l 642 531 l 651 511 l 637 499 l 647 488 l 622 384 l 610 365 l 597 236 l 599 186 l 606 163 l 599 143 l 617 107 l 631 98 l 640 111 l 649 111 l 658 100 l 672 98 l 672 77 l 656 66 l 603 9 l 565 -20 q 553 -11 547 0 l 526 0 l 494 70 l 504 86 l 488 102 l 481 182 l 483 202 l 483 229 l 488 243 l 481 252 l 483 268 l 481 277 l 406 191 l 390 177 l 388 170 l 356 141 l 347 138 l 338 120 l 331 118 q 324 108 311 100 l 295 95 l 286 86 l 245 52 l 229 52 l 222 36 q 195 21 181 18 l 174 9 l 163 11 l 145 2 q 136 -2 111 -7 l 102 -16 l 81 -18 l 75 -11 l 77 -5 l 70 0 l 79 32 l 93 70 l 88 82 l 102 125 l 90 143 l 102 166 l 102 186 l 109 202 l 115 204 l 120 229 l 129 238 l 129 245 l 122 247 l 120 270 l 127 277 l 127 284 l 138 297 l 138 354 l 152 338 l 153 354 q 154 363 159 372 l 152 384 l 161 386 l 168 409 l 154 411 l 159 429 l 170 418 l 170 449 l 163 456 l 136 452 l 102 436 l 93 429 l 72 440 l 69 463 l 95 479 l 120 497 l 170 520 l 174 524 l 208 533 l 218 549 l 220 547 l 236 556 l 236 561 l 261 568 l 256 570 l 274 581 z"},"o":{"x_min":0,"x_max":422,"ha":422,"o":"m 286 450 l 311 450 l 327 443 q 333 417 346 417 q 351 417 351 427 q 366 438 379 438 q 387 438 392 433 q 397 427 398 422 l 402 366 l 399 355 q 396 344 394 331 q 393 318 389 311 q 386 304 385 302 l 345 260 l 350 231 l 340 214 l 335 198 l 304 163 l 289 125 q 275 110 250 101 l 243 73 l 215 55 l 190 25 l 145 -9 l 132 -12 l 81 -53 l 67 -40 q 50 -27 44 -18 q 37 -9 37 -2 q 37 2 40 5 l 45 47 l 24 81 q 21 85 21 89 q 21 95 27 102 l 27 104 l 35 112 l 26 136 l 29 187 l 29 200 l 36 204 q 31 214 31 227 q 31 234 37 242 l 46 242 l 38 249 l 44 260 l 54 286 l 69 304 l 73 318 l 88 338 q 90 345 92 350 l 92 349 q 92 357 95 362 q 99 367 107 380 l 131 392 l 133 399 q 157 418 181 423 l 214 429 l 236 442 l 252 441 z m 256 363 l 254 359 q 245 359 241 359 q 237 358 230 352 l 216 358 l 162 328 q 142 317 128 291 q 114 266 114 249 q 114 239 118 231 l 120 231 q 120 220 126 190 l 114 171 l 123 157 l 118 140 q 118 137 122 128 q 126 120 126 115 q 125 111 134 98 l 133 88 q 133 61 146 61 q 157 61 175 76 q 179 89 192 90 l 197 105 q 205 106 205 113 l 205 116 q 208 118 210 119 q 213 121 214 121 q 220 140 237 164 l 240 162 l 239 166 l 254 183 l 273 246 l 276 252 l 282 254 l 283 265 l 283 274 q 283 277 290 292 l 260 316 l 283 325 l 280 352 l 284 362 l 278 359 z"},"N":{"x_min":0,"x_max":805,"ha":805,"o":"m 782 740 l 786 738 l 798 738 l 843 706 l 875 672 l 821 633 l 814 624 l 777 615 l 759 617 l 743 629 l 734 629 l 693 545 l 675 524 l 673 502 l 657 472 l 650 449 l 641 436 l 637 404 l 631 387 q 630 384 618 372 l 618 361 l 612 340 l 616 327 q 609 304 603 295 l 605 277 l 598 254 l 603 250 l 603 238 l 612 229 l 607 213 l 612 177 l 609 177 l 607 150 q 607 142 628 118 l 623 111 l 632 100 l 637 54 l 625 43 l 625 30 l 618 14 l 612 14 l 591 -16 l 573 -14 l 557 -33 l 528 -54 l 507 -16 l 507 23 l 500 57 l 503 73 l 475 114 l 482 125 l 475 138 l 480 143 l 462 150 l 455 145 q 453 154 437 171 l 430 171 l 419 209 l 398 228 l 387 250 q 379 264 378 273 l 351 298 l 344 312 l 346 323 l 339 334 l 332 337 l 326 352 l 321 352 l 314 371 l 300 390 q 297 393 294 407 l 282 405 l 269 377 l 269 368 q 266 348 258 325 l 248 320 l 253 304 l 264 297 l 260 275 l 260 250 l 237 222 l 239 202 l 233 188 l 239 173 l 235 168 l 237 154 l 228 134 l 228 120 l 219 109 l 212 79 l 212 70 l 208 66 l 185 -5 l 178 -18 l 160 -27 l 162 -32 l 126 -48 l 108 -43 l 103 -25 l 115 -11 l 110 -5 l 96 -5 l 96 0 l 112 14 l 108 32 l 124 36 l 146 66 l 153 93 l 153 104 l 164 116 l 164 136 l 194 259 l 192 266 l 192 286 l 205 306 l 201 320 l 212 338 l 214 350 l 219 368 l 217 377 l 224 404 l 205 452 q 209 459 219 465 l 212 490 l 217 506 l 226 508 l 228 522 l 187 522 l 146 508 l 137 513 l 115 468 l 58 415 l 28 402 l 15 427 l 15 445 l 26 449 l 24 459 l 17 461 l 17 472 l 28 481 l 28 490 l 46 484 l 51 490 l 44 497 q 46 502 65 524 l 90 531 l 92 547 l 103 545 l 112 555 q 115 558 123 561 l 142 568 l 144 572 l 158 573 q 166 574 172 579 q 179 584 203 588 l 226 592 l 281 623 l 294 637 l 322 648 l 346 651 l 359 625 q 345 600 347 589 l 362 510 l 369 491 l 369 478 l 382 478 l 384 458 l 405 440 l 403 427 l 407 422 l 446 356 l 487 275 l 498 263 l 498 257 l 507 247 l 521 245 l 523 257 l 530 259 l 530 266 l 548 325 l 549 339 q 550 345 559 370 l 578 384 l 578 395 l 589 413 l 589 427 q 600 440 605 463 q 608 464 613 471 l 618 477 l 646 552 q 651 562 656 566 l 662 592 l 671 599 l 682 620 l 689 640 l 698 651 q 702 656 707 670 l 716 672 l 741 719 l 752 729 l 757 729 q 763 738 766 738 z"},"+":{"x_min":0,"x_max":833,"ha":833,"o":"m 388 596 l 446 596 l 446 327 l 709 327 l 709 270 l 446 270 l 446 0 l 388 0 l 388 270 l 124 270 l 124 327 l 388 327 z"},"G":{"x_min":0,"x_max":619,"ha":619,"o":"m 387 651 l 399 649 l 410 645 l 435 647 l 449 642 l 451 636 l 453 638 l 458 627 l 465 627 l 480 602 l 474 590 l 476 568 l 476 545 l 465 533 l 471 520 l 485 524 l 496 522 l 496 511 l 490 497 l 510 454 l 503 448 q 501 445 480 436 l 476 420 l 478 402 l 469 386 q 448 377 435 368 l 431 359 l 412 365 q 397 352 394 340 l 371 338 l 362 354 l 365 368 l 356 388 l 369 420 l 367 434 l 371 459 l 371 484 l 376 524 l 367 554 l 362 563 l 358 563 l 344 570 l 319 570 q 287 556 285 552 l 281 552 l 206 477 l 197 456 l 190 452 l 188 440 l 165 415 l 158 381 l 148 370 q 142 363 140 356 l 135 338 l 124 338 l 124 318 l 117 313 l 110 268 l 97 257 l 95 243 l 99 232 l 92 213 l 95 177 l 85 168 l 81 150 l 88 132 l 90 109 l 115 64 l 122 48 l 147 34 l 131 34 l 131 20 l 151 16 l 197 20 l 203 18 q 218 25 228 34 l 233 34 l 244 54 l 281 73 l 290 81 q 294 84 315 93 l 315 98 l 331 102 q 333 109 345 119 q 357 129 367 129 q 378 149 390 159 l 390 186 l 431 227 l 446 232 l 483 257 l 496 259 l 512 247 l 519 257 l 539 247 l 526 211 l 517 209 l 519 102 l 524 95 l 524 70 l 517 57 l 519 34 l 514 27 l 514 5 l 490 -61 l 479 -104 l 472 -115 l 472 -124 l 465 -138 q 450 -159 449 -163 l 447 -158 l 445 -165 l 429 -176 l 422 -190 l 413 -199 l 404 -219 l 390 -235 l 383 -249 q 370 -259 356 -276 l 338 -281 l 340 -294 q 326 -304 318 -306 l 315 -312 l 315 -321 l 297 -328 l 286 -344 l 277 -346 l 274 -356 l 222 -385 l 213 -394 l 206 -392 l 188 -412 l 179 -410 l 163 -421 l 156 -442 l 141 -446 l 125 -444 l 95 -458 l 82 -451 l 68 -469 l 57 -471 l 52 -467 l 41 -473 q 34 -476 28 -477 l 11 -478 l 0 -464 l 9 -444 l 13 -446 l 20 -437 l 25 -439 q 42 -435 50 -430 l 52 -433 l 61 -428 l 68 -428 q 71 -423 90 -416 l 109 -408 l 118 -408 l 125 -401 l 145 -394 l 190 -371 l 204 -358 l 225 -349 l 234 -342 l 243 -337 l 277 -308 l 277 -303 l 306 -274 l 318 -265 l 322 -251 l 352 -220 l 352 -208 l 383 -160 l 383 -153 l 393 -149 l 410 -95 l 408 -64 l 417 -52 q 414 -11 406 2 l 415 39 l 419 41 l 412 59 l 401 66 l 390 100 l 381 100 q 368 91 362 79 l 342 75 l 333 64 l 324 61 l 317 52 l 265 14 l 217 -11 l 210 -18 l 174 -32 l 169 -27 l 138 -32 l 122 -23 l 117 -11 l 106 -18 l 85 0 l 83 18 l 72 24 q 67 27 58 39 l 60 52 l 45 68 l 49 79 l 40 107 l 56 116 l 51 134 l 42 138 l 42 150 l 56 177 l 45 191 l 51 209 l 63 216 l 54 229 l 54 236 l 65 257 l 63 275 l 76 306 l 81 313 l 79 325 l 106 393 l 113 393 l 120 418 l 132 430 q 138 436 140 443 l 135 454 q 142 460 149 472 l 154 474 l 156 472 l 158 484 q 182 504 185 524 l 208 545 l 238 568 l 242 577 q 251 579 272 597 l 274 595 q 302 620 308 622 l 337 633 l 342 638 l 353 640 l 367 649 z"},"q":{"x_min":0,"x_max":553,"ha":553,"o":"m 286 411 q 293 414 299 420 q 305 418 308 413 q 323 418 329 418 l 331 418 l 354 409 l 367 409 l 370 413 l 385 404 l 385 406 l 394 404 l 401 397 l 413 397 q 416 393 416 387 q 416 375 390 343 l 342 331 l 338 322 l 329 318 l 329 316 l 315 316 l 301 327 l 286 329 l 277 334 q 274 336 247 340 l 247 345 l 220 327 q 202 321 192 311 l 186 297 l 170 279 q 160 257 149 243 l 145 204 l 131 186 l 136 186 l 136 177 q 136 166 124 136 l 129 125 l 122 120 l 120 93 l 106 86 l 115 77 l 118 54 l 124 50 l 149 66 l 177 98 l 192 107 l 206 127 l 238 159 l 265 195 l 306 241 l 334 264 q 339 268 347 276 l 363 295 q 372 306 381 322 l 394 329 l 401 336 q 406 340 412 341 l 426 345 l 433 356 q 439 352 444 352 l 476 361 l 478 345 l 492 334 l 481 329 l 481 320 l 476 311 l 476 306 l 463 293 l 463 277 l 458 266 q 455 245 444 229 l 449 229 l 435 207 l 433 182 q 428 168 426 150 q 419 145 413 127 l 401 127 l 397 118 l 394 118 l 399 114 l 388 82 l 390 70 l 379 48 l 379 14 l 370 -2 l 365 -20 q 344 -50 342 -73 l 338 -114 l 331 -125 l 335 -143 l 333 -148 l 335 -148 l 315 -209 l 310 -218 q 317 -222 320 -227 q 317 -233 309 -242 q 301 -251 301 -257 l 301 -261 q 301 -273 298 -278 l 290 -288 l 286 -302 q 276 -321 276 -327 q 276 -339 298 -339 l 308 -338 l 308 -336 l 313 -334 l 313 -336 l 317 -334 l 317 -331 l 322 -334 l 322 -331 l 329 -334 q 340 -349 355 -346 l 385 -338 l 415 -345 l 454 -343 l 499 -351 l 547 -345 l 567 -347 q 572 -347 576 -340 l 581 -343 l 581 -340 l 599 -345 l 635 -343 l 646 -340 q 657 -346 668 -346 l 675 -345 l 678 -345 l 701 -340 l 701 -336 l 712 -336 l 742 -329 l 735 -329 q 759 -318 759 -304 q 759 -298 758 -294 q 757 -290 757 -280 q 757 -265 774 -259 l 774 -257 q 774 -252 780 -252 q 781 -252 789 -254 q 800 -229 805 -225 l 821 -227 l 842 -222 q 846 -234 853 -243 l 844 -252 l 842 -266 l 828 -279 l 830 -325 q 817 -339 794 -363 l 774 -372 l 759 -385 q 755 -388 748 -390 l 733 -395 l 683 -397 l 649 -400 l 651 -397 l 619 -400 l 535 -397 l 488 -400 l 488 -397 q 477 -395 476 -395 l 472 -395 q 464 -397 459 -397 l 454 -397 q 446 -400 436 -401 l 415 -404 l 392 -400 l 385 -404 l 381 -397 l 381 -402 l 351 -402 q 351 -407 347 -411 l 331 -406 q 321 -406 306 -411 l 297 -409 l 286 -413 l 276 -406 l 247 -413 l 236 -413 l 227 -424 l 213 -422 l 202 -424 l 202 -422 q 194 -428 190 -429 q 184 -425 183 -422 q 179 -429 174 -429 q 170 -429 167 -424 q 153 -433 143 -434 q 133 -429 129 -427 l 122 -434 l 106 -434 l 65 -452 q 47 -446 45 -443 l 49 -434 l 47 -420 l 61 -413 l 61 -411 q 75 -398 88 -396 q 101 -395 108 -390 l 113 -393 l 111 -384 l 118 -381 l 115 -384 l 120 -386 q 123 -384 124 -377 l 127 -379 q 129 -378 131 -372 q 149 -372 154 -356 l 158 -356 l 156 -359 l 161 -359 l 163 -356 l 167 -356 q 170 -356 181 -347 l 186 -350 l 186 -347 q 195 -344 208 -313 l 215 -311 l 213 -295 l 220 -275 l 224 -281 l 223 -281 q 236 -277 236 -266 l 245 -257 l 240 -252 l 242 -236 l 251 -229 l 249 -211 q 259 -191 264 -182 q 270 -173 271 -167 q 272 -160 273 -149 q 274 -139 276 -125 l 279 -129 l 283 -120 l 281 -104 l 281 -102 q 281 -85 297 -84 l 299 -82 l 301 -84 l 304 -70 l 301 -59 l 308 -48 l 308 -39 l 317 -32 l 313 -9 l 317 5 l 317 23 l 329 30 l 322 39 l 329 49 q 331 52 332 60 l 335 79 l 344 89 q 349 95 351 104 l 340 134 l 342 152 l 339 160 q 338 163 333 188 l 326 191 l 313 173 l 283 138 q 264 112 258 109 q 248 74 224 57 l 202 41 l 172 9 q 147 7 137 -2 q 127 -11 119 -19 q 111 -27 93 -43 l 88 -41 q 83 -45 77 -48 q 71 -51 59 -61 l 59 -66 l 52 -66 l 43 -70 l 38 -61 q 27 -56 27 -43 l 27 -39 q 10 -29 10 -17 q 10 -11 15 4 q 20 19 20 32 l 22 30 l 20 39 l 22 39 l 29 64 l 38 118 l 45 134 q 45 134 46 137 q 48 139 49 141 l 47 145 l 47 150 q 49 151 57 167 q 65 184 65 186 l 56 197 l 63 200 l 63 207 q 67 213 72 218 l 74 236 l 77 234 l 77 238 l 74 245 l 86 247 l 84 266 l 84 269 q 84 277 93 279 q 98 276 102 270 l 104 279 q 104 284 100 284 l 99 284 l 102 300 q 109 304 115 311 q 125 323 135 332 q 146 341 146 341 q 148 345 155 349 q 162 353 176 360 q 179 361 192 377 l 190 372 l 226 396 q 234 400 249 404 q 264 408 276 418 z"},"d":{"x_min":0,"x_max":492,"ha":492,"o":"m 462 735 l 476 733 l 478 726 l 485 724 l 483 704 l 483 697 l 476 690 l 475 674 q 473 660 465 651 l 471 647 l 460 642 l 460 631 l 449 620 l 449 602 l 446 604 l 440 592 l 438 572 q 437 568 430 558 l 433 547 l 429 535 q 426 527 422 523 l 412 513 l 412 495 l 417 493 l 412 465 l 415 459 l 403 438 l 403 420 l 394 411 l 394 388 l 383 372 l 383 363 l 387 359 l 385 345 l 390 338 q 383 323 369 318 l 367 304 l 374 300 l 360 291 l 362 281 l 360 268 q 386 270 390 272 l 399 268 l 358 218 l 344 163 l 335 157 l 337 141 l 333 136 l 335 129 l 333 125 l 333 104 l 335 91 l 331 91 l 328 79 l 321 73 l 317 73 l 317 48 l 326 43 l 315 27 l 319 27 l 317 18 l 324 9 l 324 0 l 331 -7 l 328 -23 l 333 -32 l 333 -68 l 326 -70 l 333 -86 l 333 -100 l 342 -134 l 371 -197 l 369 -197 l 385 -211 q 399 -234 408 -247 q 423 -255 426 -261 l 430 -261 l 430 -266 l 440 -272 l 446 -272 l 455 -279 q 475 -274 483 -257 q 493 -255 508 -243 l 517 -259 l 510 -261 l 510 -270 l 501 -275 l 503 -286 l 503 -295 l 510 -293 l 510 -309 l 496 -316 l 499 -320 l 492 -322 l 489 -327 l 492 -331 l 485 -331 l 487 -336 q 475 -339 458 -350 q 453 -348 435 -327 l 415 -334 l 405 -322 l 401 -313 l 398 -311 q 396 -309 394 -305 q 393 -302 390 -297 l 390 -288 l 383 -277 l 383 -272 l 374 -266 l 324 -204 l 294 -150 l 297 -143 l 285 -125 l 294 -120 l 290 -111 l 287 -86 l 283 -77 l 278 -57 l 269 -44 q 267 -41 266 -29 l 262 -2 l 262 18 l 260 18 l 265 39 l 262 50 l 249 52 l 253 61 l 258 57 l 251 86 l 242 75 l 251 104 l 244 104 l 244 102 l 237 104 l 215 82 l 213 84 l 199 77 l 199 68 l 188 59 l 188 54 l 181 54 l 173 48 q 169 45 156 43 l 158 32 l 147 25 q 142 5 135 -2 l 135 -9 l 126 -16 l 126 -27 l 117 -25 l 104 -52 l 85 -59 l 81 -68 l 72 -70 l 72 -73 l 58 -79 l 56 -79 q 51 -62 45 -57 l 45 -61 q 34 -46 29 -43 l 26 -18 l 29 -7 l 29 0 q 25 8 22 11 l 26 18 l 26 25 l 29 39 l 20 48 l 29 54 q 22 68 22 84 l 22 91 l 24 102 l 20 114 l 29 129 l 24 159 l 29 159 l 33 175 l 33 182 l 38 182 l 38 227 l 45 232 l 47 254 l 47 263 l 63 263 l 67 288 l 83 284 l 94 313 l 94 322 l 97 318 q 104 329 113 356 l 119 361 l 119 368 l 122 361 l 124 375 l 133 377 l 138 388 l 138 393 l 145 395 q 148 402 172 422 l 174 418 l 181 427 l 190 424 l 194 427 l 194 431 l 199 429 l 206 449 l 228 443 l 226 445 l 240 445 l 237 447 l 244 449 l 268 446 l 297 429 l 287 429 l 306 424 l 306 420 l 319 406 q 325 385 328 384 l 335 386 l 340 400 l 349 404 l 349 427 l 351 434 l 358 436 l 356 452 l 360 459 l 371 465 l 367 474 l 369 477 l 360 481 l 360 572 l 367 579 q 369 589 371 592 l 369 595 l 369 622 l 358 615 l 349 617 q 347 615 337 613 l 335 604 l 321 597 l 315 597 l 303 606 l 297 624 l 292 627 l 297 633 l 292 647 l 297 654 l 306 656 l 308 663 l 317 665 l 326 681 l 331 681 l 333 686 l 369 713 l 371 717 l 387 717 l 387 722 l 392 717 l 399 717 l 401 724 q 410 726 417 731 z m 217 363 l 213 350 l 181 334 l 167 304 l 160 300 l 158 300 l 154 293 l 151 295 l 147 284 l 151 279 q 147 254 142 250 l 142 241 q 134 235 129 218 l 124 218 l 124 207 l 117 186 l 122 175 q 112 147 106 138 l 110 132 l 110 114 l 115 109 l 108 98 l 110 84 l 119 73 l 119 77 l 126 73 l 140 79 l 144 77 l 169 107 l 176 109 l 176 111 l 190 125 l 206 132 l 217 145 l 224 148 l 247 168 l 278 191 l 284 210 q 285 213 297 225 q 301 244 308 254 l 294 270 l 292 306 l 290 318 l 290 322 q 285 329 283 336 l 276 336 l 274 325 l 262 327 l 262 338 l 258 336 l 256 343 l 242 338 l 228 343 l 226 354 z"},"1":{"x_min":0,"x_max":320,"ha":320,"o":"m 301 643 l 308 643 q 321 636 328 636 l 351 644 l 355 628 l 344 615 l 346 593 l 335 585 q 334 583 333 581 q 332 578 331 576 q 331 563 317 553 q 308 551 302 525 l 304 525 l 299 504 q 297 504 294 491 l 299 486 l 280 478 l 280 470 l 272 473 q 269 463 259 460 q 256 441 246 433 q 236 424 232 418 q 227 412 224 404 l 218 386 l 194 335 l 194 318 l 184 308 l 185 299 l 182 299 q 182 298 173 283 l 173 270 l 164 259 l 168 244 q 163 232 163 218 l 165 200 l 161 165 l 152 103 l 161 88 l 145 30 l 151 -16 l 151 -17 q 151 -23 141 -28 q 130 -32 129 -32 l 97 -25 q 91 -32 84 -33 l 81 -45 l 69 -39 q 58 -47 48 -61 l 24 -32 l 33 -19 q 27 -9 27 -5 q 27 -1 36 10 q 46 17 53 25 q 59 33 59 34 l 59 37 l 63 44 q 59 52 59 63 q 59 78 68 91 l 68 119 l 71 119 l 82 163 l 82 170 l 87 175 l 106 234 l 108 234 l 111 260 l 130 311 l 133 315 l 162 390 q 179 408 179 424 l 184 431 l 184 441 l 205 501 q 196 505 187 505 l 176 504 q 175 504 169 506 l 162 492 l 151 492 l 144 474 l 141 474 l 131 462 l 128 464 l 120 456 l 106 458 l 82 447 q 66 451 66 467 q 66 476 75 487 q 84 498 90 501 l 118 519 l 124 528 l 153 540 l 167 550 l 172 549 l 174 554 l 186 554 q 194 554 208 568 q 219 582 228 587 q 238 587 240 600 l 243 600 q 246 606 256 609 l 256 614 l 267 618 q 270 619 274 624 l 286 637 l 288 637 q 295 637 301 643 z"},"5":{"x_min":0,"x_max":447,"ha":447,"o":"m 253 663 q 274 648 288 648 l 300 648 l 300 646 l 362 646 l 371 644 l 381 644 l 393 643 l 423 644 l 435 640 l 437 644 l 464 646 l 511 657 q 529 657 534 637 q 531 630 524 608 l 485 583 q 476 576 465 569 q 454 562 453 560 l 441 557 l 431 560 l 430 557 q 368 556 361 549 q 350 557 333 557 l 296 541 l 278 541 l 269 531 q 269 521 251 495 q 243 474 243 458 q 243 445 252 445 q 259 445 276 451 l 279 450 q 283 454 289 454 q 296 454 300 447 q 306 449 320 449 q 326 449 340 445 l 346 450 l 367 443 q 379 431 385 427 q 400 390 400 368 q 400 342 377 319 l 366 308 l 346 280 q 326 269 322 266 q 318 262 314 254 q 309 246 307 235 l 297 235 q 291 232 289 228 q 281 227 281 222 l 262 199 l 251 199 l 239 184 l 239 178 l 234 178 l 230 162 l 224 170 q 219 159 208 159 q 209 156 187 132 q 172 121 171 119 l 160 120 q 153 116 146 103 q 139 89 136 88 l 103 73 l 93 57 l 69 52 l 67 50 l 68 46 l 86 51 l 89 51 q 113 51 127 27 l 98 8 q 86 -2 80 -24 l 64 -24 l 52 -39 q 32 -41 28 -57 q 21 -62 12 -68 l -6 -79 q -14 -83 -24 -83 q -52 -83 -52 -44 l -50 -32 l -58 -19 l -42 7 q -25 7 -25 22 q -14 25 -12 27 l -16 34 l -7 38 l -7 45 l 2 45 l 37 72 l 37 82 l 50 82 l 75 104 l 75 102 l 92 116 l 94 114 q 94 119 124 143 l 146 159 l 184 195 l 209 213 l 220 228 l 231 239 l 240 253 l 250 262 q 254 266 264 285 q 274 303 284 315 q 293 328 293 329 q 293 337 273 355 l 253 353 l 247 355 l 222 353 l 216 351 q 213 351 203 356 l 189 352 q 162 337 146 337 q 134 337 119 352 q 104 367 104 389 l 104 399 q 118 399 118 407 l 118 422 l 125 418 l 128 419 l 127 431 l 133 437 l 132 441 l 143 455 l 143 469 l 147 469 l 147 479 l 150 489 l 150 493 l 154 517 q 156 522 167 543 l 166 553 q 159 563 159 572 l 160 588 l 160 594 q 171 612 186 617 l 186 620 l 196 626 l 198 634 l 209 636 l 215 647 z"}}}
